<?xml version="1.0" encoding="utf-8" standalone="no"?>
<!DOCTYPE svg PUBLIC "-//W3C//DTD SVG 1.1//EN"
  "http://www.w3.org/Graphics/SVG/1.1/DTD/svg11.dtd">
<!-- Created with matplotlib (http://matplotlib.org/) -->
<svg height="113pt" version="1.1" viewBox="0 0 126 113" width="126pt" xmlns="http://www.w3.org/2000/svg" xmlns:xlink="http://www.w3.org/1999/xlink">
 <defs>
  <style type="text/css">
*{stroke-linecap:butt;stroke-linejoin:round;}
  </style>
 </defs>
 <g id="figure_1">
  <g id="patch_1">
   <path d="
M0 113.04
L126 113.04
L126 0
L0 0
z
" style="fill:#ffffff;"/>
  </g>
  <g id="axes_1">
   <g id="patch_2">
    <path d="
M25.8 51.9275
L64.3638 51.9275
L64.3638 20.544
L25.8 20.544
z
" style="fill:#ffffff;"/>
   </g>
   <g id="patch_3">
    <path clip-path="url(#p89231e03a9)" d="
M27.3426 51.9275
L27.3426 51.9275
L28.1138 51.9275
L28.1138 51.9275
L28.8851 51.9275
L28.8851 51.9275
L29.6564 51.9275
L29.6564 51.9275
L30.4277 51.9275
L30.4277 51.9275
L31.1989 51.9275
L31.1989 51.9275
L31.9702 51.9275
L31.9702 51.6407
L32.7415 51.6407
L32.7415 51.4973
L33.5128 51.4973
L33.5128 49.0598
L34.284 49.0598
L34.284 48.1995
L35.0553 48.1995
L35.0553 46.4788
L35.8266 46.4788
L35.8266 41.0302
L36.5979 41.0302
L36.5979 40.6
L37.3691 40.6
L37.3691 38.0191
L38.1404 38.0191
L38.1404 34.5778
L38.9117 34.5778
L38.9117 34.7212
L39.683 34.7212
L39.683 34.1477
L40.4543 34.1477
L40.4543 30.9932
L41.2255 30.9932
L41.2255 37.3022
L41.9968 37.3022
L41.9968 34.7212
L42.7681 34.7212
L42.7681 36.2985
L43.5394 36.2985
L43.5394 38.8794
L44.3106 38.8794
L44.3106 42.7508
L45.0819 42.7508
L45.0819 40.4567
L45.8532 40.4567
L45.8532 40.4567
L46.6245 40.4567
L46.6245 44.3281
L47.3957 44.3281
L47.3957 45.9053
L48.167 45.9053
L48.167 46.3355
L48.9383 46.3355
L48.9383 47.0524
L49.7096 47.0524
L49.7096 48.4862
L50.4808 48.4862
L50.4808 49.9201
L51.2521 49.9201
L51.2521 50.7804
L52.0234 50.7804
L52.0234 50.637
L52.7947 50.637
L52.7947 50.637
L53.566 50.637
L53.566 50.9238
L54.3372 50.9238
L54.3372 51.4973
L55.1085 51.4973
L55.1085 51.7841
L55.8798 51.7841
L55.8798 51.6407
L56.6511 51.6407
L56.6511 51.4973
L57.4223 51.4973
L57.4223 51.7841
L58.1936 51.7841
L58.1936 51.6407
L58.9649 51.6407
L58.9649 51.9275
L59.7362 51.9275
L59.7362 51.7841
L60.5074 51.7841
L60.5074 51.9275
L61.2787 51.9275
L61.2787 51.7841
L62.05 51.7841
L62.05 51.9275
L62.8213 51.9275
L62.8213 51.9275
L63.5925 51.9275
L63.5925 51.9275" style="fill:none;opacity:0.5;stroke:#000000;stroke-linejoin:miter;"/>
   </g>
   <g id="patch_4">
    <path clip-path="url(#p89231e03a9)" d="
M27.3426 51.9275
L27.3426 51.9275
L28.1138 51.9275
L28.1138 51.9275
L28.8851 51.9275
L28.8851 51.9275
L29.6564 51.9275
L29.6564 51.9275
L30.4277 51.9275
L30.4277 51.9275
L31.1989 51.9275
L31.1989 51.9225
L31.9702 51.9225
L31.9702 51.7391
L32.7415 51.7391
L32.7415 51.051
L33.5128 51.051
L33.5128 49.3911
L34.284 49.3911
L34.284 47.0531
L35.0553 47.0531
L35.0553 44.4213
L35.8266 44.4213
L35.8266 41.4705
L36.5979 41.4705
L36.5979 39.0647
L37.3691 39.0647
L37.3691 36.9301
L38.1404 36.9301
L38.1404 35.5866
L38.9117 35.5866
L38.9117 34.911
L39.683 34.911
L39.683 34.6423
L40.4543 34.6423
L40.4543 35.0492
L41.2255 35.0492
L41.2255 35.7774
L41.9968 35.7774
L41.9968 36.9025
L42.7681 36.9025
L42.7681 37.9874
L43.5394 37.9874
L43.5394 39.2656
L44.3106 39.2656
L44.3106 40.5815
L45.0819 40.5815
L45.0819 42.1285
L45.8532 42.1285
L45.8532 42.9873
L46.6245 42.9873
L46.6245 44.6347
L47.3957 44.6347
L47.3957 45.6694
L48.167 45.6694
L48.167 46.4202
L48.9383 46.4202
L48.9383 47.4273
L49.7096 47.4273
L49.7096 48.2083
L50.4808 48.2083
L50.4808 48.7984
L51.2521 48.7984
L51.2521 49.4338
L52.0234 49.4338
L52.0234 49.9511
L52.7947 49.9511
L52.7947 50.4534
L53.566 50.4534
L53.566 50.7472
L54.3372 50.7472
L54.3372 50.9531
L55.1085 50.9531
L55.1085 51.159
L55.8798 51.159
L55.8798 51.2921
L56.6511 51.2921
L56.6511 51.5282
L57.4223 51.5282
L57.4223 51.591
L58.1936 51.591
L58.1936 51.7015
L58.9649 51.7015
L58.9649 51.7567
L59.7362 51.7567
L59.7362 51.8019
L60.5074 51.8019
L60.5074 51.8446
L61.2787 51.8446
L61.2787 51.8747
L62.05 51.8747
L62.05 51.8823
L62.8213 51.8823
L62.8213 51.8948
L63.5925 51.8948
L63.5925 51.9275" style="fill:none;stroke:#333333;stroke-linejoin:miter;"/>
   </g>
   <g id="patch_5">
    <path d="
M25.8 51.9275
L64.3638 51.9275" style="fill:none;stroke:#000000;stroke-linecap:square;stroke-linejoin:miter;stroke-width:0.5;"/>
   </g>
   <g id="patch_6">
    <path d="
M25.8 51.9275
L25.8 20.544" style="fill:none;stroke:#000000;stroke-linecap:square;stroke-linejoin:miter;stroke-width:0.5;"/>
   </g>
   <g id="matplotlib.axis_1">
    <g id="xtick_1">
     <g id="line2d_1">
      <defs>
       <path d="
M0 0
L0 -4" id="mc7db9fdffb" style="stroke:#000000;stroke-width:0.5;"/>
      </defs>
      <g>
       <use style="stroke:#000000;stroke-width:0.5;" x="25.8" xlink:href="#mc7db9fdffb" y="51.9274859377"/>
      </g>
     </g>
    </g>
    <g id="xtick_2">
     <g id="line2d_2">
      <g>
       <use style="stroke:#000000;stroke-width:0.5;" x="33.5127639899" xlink:href="#mc7db9fdffb" y="51.9274859377"/>
      </g>
     </g>
    </g>
    <g id="xtick_3">
     <g id="line2d_3">
      <g>
       <use style="stroke:#000000;stroke-width:0.5;" x="41.2255279797" xlink:href="#mc7db9fdffb" y="51.9274859377"/>
      </g>
     </g>
    </g>
    <g id="xtick_4">
     <g id="line2d_4">
      <g>
       <use style="stroke:#000000;stroke-width:0.5;" x="48.9382919696" xlink:href="#mc7db9fdffb" y="51.9274859377"/>
      </g>
     </g>
    </g>
    <g id="xtick_5">
     <g id="line2d_5">
      <g>
       <use style="stroke:#000000;stroke-width:0.5;" x="56.6510559595" xlink:href="#mc7db9fdffb" y="51.9274859377"/>
      </g>
     </g>
    </g>
    <g id="xtick_6">
     <g id="line2d_6">
      <g>
       <use style="stroke:#000000;stroke-width:0.5;" x="64.3638199493" xlink:href="#mc7db9fdffb" y="51.9274859377"/>
      </g>
     </g>
    </g>
   </g>
   <g id="matplotlib.axis_2">
    <g id="ytick_1">
     <g id="line2d_7">
      <defs>
       <path d="
M0 0
L4 0" id="md7965d1ba0" style="stroke:#000000;stroke-width:0.5;"/>
      </defs>
      <g>
       <use style="stroke:#000000;stroke-width:0.5;" x="25.8" xlink:href="#md7965d1ba0" y="51.9274859377"/>
      </g>
     </g>
     <g id="text_1">
      <!-- 0.0000 -->
      <defs>
       <path d="
M9.07812 0
L9.07812 10.0156
L19.0938 10.0156
L19.0938 0
z
" id="ArialMT-2e"/>
       <path d="
M4.15625 35.2969
Q4.15625 48 6.76562 55.7344
Q9.375 63.4844 14.5156 67.6719
Q19.6719 71.875 27.4844 71.875
Q33.25 71.875 37.5938 69.5469
Q41.9375 67.2344 44.7656 62.8594
Q47.6094 58.5 49.2188 52.2188
Q50.8281 45.9531 50.8281 35.2969
Q50.8281 22.7031 48.2344 14.9688
Q45.6562 7.23438 40.5 3
Q35.3594 -1.21875 27.4844 -1.21875
Q17.1406 -1.21875 11.2344 6.20312
Q4.15625 15.1406 4.15625 35.2969
M13.1875 35.2969
Q13.1875 17.6719 17.3125 11.8281
Q21.4375 6 27.4844 6
Q33.5469 6 37.6719 11.8594
Q41.7969 17.7188 41.7969 35.2969
Q41.7969 52.9844 37.6719 58.7812
Q33.5469 64.5938 27.3906 64.5938
Q21.3438 64.5938 17.7188 59.4688
Q13.1875 52.9375 13.1875 35.2969" id="ArialMT-30"/>
      </defs>
      <g transform="translate(6.4865625 53.4785796877)scale(0.06 -0.06)">
       <use xlink:href="#ArialMT-30"/>
       <use x="55.615234375" xlink:href="#ArialMT-2e"/>
       <use x="83.3984375" xlink:href="#ArialMT-30"/>
       <use x="139.013671875" xlink:href="#ArialMT-30"/>
       <use x="194.62890625" xlink:href="#ArialMT-30"/>
       <use x="250.244140625" xlink:href="#ArialMT-30"/>
      </g>
     </g>
    </g>
    <g id="ytick_2">
     <g id="line2d_8">
      <g>
       <use style="stroke:#000000;stroke-width:0.5;" x="25.8" xlink:href="#md7965d1ba0" y="36.2357429688"/>
      </g>
     </g>
     <g id="text_2">
      <!-- 0.0125 -->
      <defs>
       <path d="
M4.15625 18.75
L13.375 19.5312
Q14.4062 12.7969 18.1406 9.39062
Q21.875 6 27.1562 6
Q33.5 6 37.8906 10.7812
Q42.2812 15.5781 42.2812 23.4844
Q42.2812 31 38.0625 35.3438
Q33.8438 39.7031 27 39.7031
Q22.75 39.7031 19.3281 37.7656
Q15.9219 35.8438 13.9688 32.7656
L5.71875 33.8438
L12.6406 70.6094
L48.25 70.6094
L48.25 62.2031
L19.6719 62.2031
L15.8281 42.9688
Q22.2656 47.4688 29.3438 47.4688
Q38.7188 47.4688 45.1562 40.9688
Q51.6094 34.4688 51.6094 24.2656
Q51.6094 14.5469 45.9531 7.46875
Q39.0625 -1.21875 27.1562 -1.21875
Q17.3906 -1.21875 11.2031 4.25
Q5.03125 9.71875 4.15625 18.75" id="ArialMT-35"/>
       <path d="
M50.3438 8.45312
L50.3438 0
L3.03125 0
Q2.9375 3.17188 4.04688 6.10938
Q5.85938 10.9375 9.82812 15.625
Q13.8125 20.3125 21.3438 26.4688
Q33.0156 36.0312 37.1094 41.625
Q41.2188 47.2188 41.2188 52.2031
Q41.2188 57.4219 37.4688 61
Q33.7344 64.5938 27.7344 64.5938
Q21.3906 64.5938 17.5781 60.7812
Q13.7656 56.9844 13.7188 50.25
L4.6875 51.1719
Q5.60938 61.2812 11.6562 66.5781
Q17.7188 71.875 27.9375 71.875
Q38.2344 71.875 44.2344 66.1562
Q50.25 60.4531 50.25 52
Q50.25 47.7031 48.4844 43.5469
Q46.7344 39.4062 42.6562 34.8125
Q38.5781 30.2188 29.1094 22.2188
Q21.1875 15.5781 18.9375 13.2031
Q16.7031 10.8438 15.2344 8.45312
z
" id="ArialMT-32"/>
       <path d="
M37.25 0
L28.4688 0
L28.4688 56
Q25.2969 52.9844 20.1406 49.9531
Q14.9844 46.9219 10.8906 45.4062
L10.8906 53.9062
Q18.2656 57.375 23.7812 62.2969
Q29.2969 67.2344 31.5938 71.875
L37.25 71.875
z
" id="ArialMT-31"/>
      </defs>
      <g transform="translate(6.4396875 37.7868367188)scale(0.06 -0.06)">
       <use xlink:href="#ArialMT-30"/>
       <use x="55.615234375" xlink:href="#ArialMT-2e"/>
       <use x="83.3984375" xlink:href="#ArialMT-30"/>
       <use x="139.013671875" xlink:href="#ArialMT-31"/>
       <use x="194.62890625" xlink:href="#ArialMT-32"/>
       <use x="250.244140625" xlink:href="#ArialMT-35"/>
      </g>
     </g>
    </g>
    <g id="ytick_3">
     <g id="line2d_9">
      <g>
       <use style="stroke:#000000;stroke-width:0.5;" x="25.8" xlink:href="#md7965d1ba0" y="20.544"/>
      </g>
     </g>
     <g id="text_3">
      <!-- 0.0250 -->
      <g transform="translate(6.4865625 22.09509375)scale(0.06 -0.06)">
       <use xlink:href="#ArialMT-30"/>
       <use x="55.615234375" xlink:href="#ArialMT-2e"/>
       <use x="83.3984375" xlink:href="#ArialMT-30"/>
       <use x="139.013671875" xlink:href="#ArialMT-32"/>
       <use x="194.62890625" xlink:href="#ArialMT-35"/>
       <use x="250.244140625" xlink:href="#ArialMT-30"/>
      </g>
     </g>
    </g>
   </g>
   <g id="text_4">
    <!-- c = 35, $\ell_p$ = 40 -->
    <defs>
     <path d="
M2.39062 7.42188
Q1.95312 7.42188 1.46875 7.95312
Q0.984375 8.5 0.984375 8.98438
Q0.984375 9.8125 9.28125 17.3906
Q9.28125 17.8281 9.25 18.1094
Q9.23438 18.4062 9.1875 18.7031
Q9.1875 23 9.85938 27.4688
Q10.5469 31.9375 11.7344 36.375
Q12.9375 40.8281 14.7344 45.6562
Q16.5469 50.4844 18.4062 54.1094
Q21.625 60.6875 25.4375 65.5938
Q29.25 70.5156 33.8906 70.5156
Q37.0625 70.5156 38.4219 68.3281
Q39.7969 66.1562 39.7969 62.8906
Q39.7969 44.5781 15.4844 19.8281
Q15.0938 15.5312 15.0938 13.7188
Q15.0938 1.21875 20.7969 1.21875
Q23.25 1.21875 25.6562 2.51562
Q28.0781 3.8125 29.8125 5.32812
Q31.5469 6.84375 34.625 9.8125
Q34.8125 10.0156 35.2031 10.0156
Q35.75 10.0156 36.2344 9.42188
Q36.7188 8.84375 36.7188 8.29688
Q36.7188 7.95312 36.2812 7.625
Q31.8438 3.26562 28.2656 0.875
Q24.7031 -1.51562 20.6094 -1.51562
Q15.3281 -1.51562 12.7656 3.01562
Q10.2031 7.5625 9.51562 13.8125
Q6.84375 11.1406 2.98438 7.625
Q2.875 7.42188 2.39062 7.42188
M16.3125 24.6094
Q21.625 30.2812 26.2656 36.5312
Q30.9062 42.7812 34 49.6875
Q37.1094 56.5938 37.1094 63.1875
Q37.1094 67.9219 33.7969 67.9219
Q30.2188 67.9219 26.5 59.3906
Q22.7969 50.875 20.1562 40.9688
Q17.5312 31.0625 16.3125 24.6094" id="Cmmi10-60"/>
     <path d="
M32.3281 0
L32.3281 17.1406
L1.26562 17.1406
L1.26562 25.2031
L33.9375 71.5781
L41.1094 71.5781
L41.1094 25.2031
L50.7812 25.2031
L50.7812 17.1406
L41.1094 17.1406
L41.1094 0
z

M32.3281 25.2031
L32.3281 57.4688
L9.90625 25.2031
z
" id="ArialMT-34"/>
     <path d="
M-2.48438 -19.3906
Q-3.42188 -19.3906 -3.42188 -18.1094
Q-3.07812 -15.9219 -2.09375 -15.9219
Q1.03125 -15.9219 2.26562 -15.3594
Q3.51562 -14.7969 4.20312 -12.5
L15.4844 32.5156
Q16.2188 34.375 16.2188 37.3125
Q16.2188 41.6094 13.2812 41.6094
Q10.1562 41.6094 8.64062 37.8594
Q7.125 34.125 5.71875 28.4219
Q5.71875 27.7812 4.89062 27.7812
L3.71875 27.7812
Q3.46875 27.7812 3.17188 28.1406
Q2.875 28.5156 2.875 28.8125
Q3.95312 33.1562 4.95312 36.1719
Q5.95312 39.2031 8.07812 41.6875
Q10.2031 44.1875 13.375 44.1875
Q16.7969 44.1875 19.375 42.25
Q21.9688 40.3281 22.7031 37.0156
Q25.4375 40.1875 28.75 42.1875
Q32.0781 44.1875 35.5938 44.1875
Q39.7969 44.1875 42.8906 41.9375
Q46 39.7031 47.5625 36.0625
Q49.125 32.4219 49.125 28.2188
Q49.125 21.7812 45.8281 14.8906
Q42.5312 8.01562 36.8906 3.4375
Q31.25 -1.125 24.8125 -1.125
Q21.875 -1.125 19.5 0.53125
Q17.1406 2.20312 15.8281 4.89062
L11.2812 -12.8906
Q11.0312 -14.3594 10.9844 -14.5938
Q10.9844 -15.9219 17.5781 -15.9219
Q18.6094 -15.9219 18.6094 -17.1875
Q18.2656 -18.5 18.0469 -18.9375
Q17.8281 -19.3906 16.8906 -19.3906
z

M24.9062 1.51562
Q28.375 1.51562 31.3438 4.375
Q34.3281 7.23438 36.1875 10.7969
Q37.5469 13.4844 38.7344 17.3594
Q39.9375 21.2344 40.8125 25.625
Q41.7031 30.0312 41.7031 32.625
Q41.7031 34.9062 41.0938 36.9062
Q40.4844 38.9219 39.0938 40.2656
Q37.7031 41.6094 35.4062 41.6094
Q31.7344 41.6094 28.4844 38.9844
Q25.25 36.375 22.6094 32.5156
L22.6094 32.1719
L17.0938 10.1094
Q17.7812 6.54688 19.7344 4.03125
Q21.6875 1.51562 24.9062 1.51562" id="Cmmi10-70"/>
     <path d="
M40.4375 19
L49.0781 17.875
Q47.6562 8.9375 41.8125 3.875
Q35.9844 -1.17188 27.4844 -1.17188
Q16.8438 -1.17188 10.375 5.78125
Q3.90625 12.75 3.90625 25.7344
Q3.90625 34.125 6.6875 40.4219
Q9.46875 46.7344 15.1562 49.875
Q20.8438 53.0312 27.5469 53.0312
Q35.9844 53.0312 41.3594 48.75
Q46.7344 44.4844 48.25 36.625
L39.7031 35.2969
Q38.4844 40.5312 35.375 43.1562
Q32.2812 45.7969 27.875 45.7969
Q21.2344 45.7969 17.0781 41.0312
Q12.9375 36.2812 12.9375 25.9844
Q12.9375 15.5312 16.9375 10.7969
Q20.9531 6.0625 27.3906 6.0625
Q32.5625 6.0625 36.0312 9.23438
Q39.5 12.4062 40.4375 19" id="ArialMT-63"/>
     <path d="
M52.8281 42.0938
L5.5625 42.0938
L5.5625 50.2969
L52.8281 50.2969
z

M52.8281 20.3594
L5.5625 20.3594
L5.5625 28.5625
L52.8281 28.5625
z
" id="ArialMT-3d"/>
     <path id="ArialMT-20"/>
     <path d="
M8.89062 0
L8.89062 10.0156
L18.8906 10.0156
L18.8906 0
Q18.8906 -5.51562 16.9375 -8.90625
Q14.9844 -12.3125 10.75 -14.1562
L8.29688 -10.4062
Q11.0781 -9.1875 12.3906 -6.8125
Q13.7188 -4.4375 13.875 0
z
" id="ArialMT-2c"/>
     <path d="
M4.20312 18.8906
L12.9844 20.0625
Q14.5 12.5938 18.1406 9.29688
Q21.7812 6 27 6
Q33.2031 6 37.4688 10.2969
Q41.75 14.5938 41.75 20.9531
Q41.75 27 37.7969 30.9219
Q33.8438 34.8594 27.7344 34.8594
Q25.25 34.8594 21.5312 33.8906
L22.5156 41.6094
Q23.3906 41.5 23.9219 41.5
Q29.5469 41.5 34.0312 44.4219
Q38.5312 47.3594 38.5312 53.4688
Q38.5312 58.2969 35.25 61.4688
Q31.9844 64.6562 26.8125 64.6562
Q21.6875 64.6562 18.2656 61.4219
Q14.8438 58.2031 13.875 51.7656
L5.07812 53.3281
Q6.6875 62.1562 12.3906 67.0156
Q18.1094 71.875 26.6094 71.875
Q32.4688 71.875 37.3906 69.3594
Q42.3281 66.8438 44.9375 62.5
Q47.5625 58.1562 47.5625 53.2656
Q47.5625 48.6406 45.0625 44.8281
Q42.5781 41.0156 37.7031 38.7656
Q44.0469 37.3125 47.5625 32.6875
Q51.0781 28.0781 51.0781 21.1406
Q51.0781 11.7656 44.2344 5.25
Q37.4062 -1.26562 26.9531 -1.26562
Q17.5312 -1.26562 11.2969 4.34375
Q5.07812 9.96875 4.20312 18.8906" id="ArialMT-33"/>
    </defs>
    <g transform="translate(28.8851055959 25.56535775)scale(0.06 -0.06)">
     <use transform="translate(0.0 0.125)" xlink:href="#ArialMT-63"/>
     <use transform="translate(50.0 0.125)" xlink:href="#ArialMT-20"/>
     <use transform="translate(77.783203125 0.125)" xlink:href="#ArialMT-3d"/>
     <use transform="translate(136.181640625 0.125)" xlink:href="#ArialMT-20"/>
     <use transform="translate(163.96484375 0.125)" xlink:href="#ArialMT-33"/>
     <use transform="translate(219.580078125 0.125)" xlink:href="#ArialMT-35"/>
     <use transform="translate(275.1953125 0.125)" xlink:href="#ArialMT-2c"/>
     <use transform="translate(302.978515625 0.125)" xlink:href="#ArialMT-20"/>
     <use transform="translate(330.76171875 0.125)" xlink:href="#Cmmi10-60"/>
     <use transform="translate(372.36328125 -25.384375000000006)scale(0.7)" xlink:href="#Cmmi10-70"/>
     <use transform="translate(422.65625 0.125)" xlink:href="#ArialMT-20"/>
     <use transform="translate(450.439453125 0.125)" xlink:href="#ArialMT-3d"/>
     <use transform="translate(508.837890625 0.125)" xlink:href="#ArialMT-20"/>
     <use transform="translate(536.62109375 0.125)" xlink:href="#ArialMT-34"/>
     <use transform="translate(592.236328125 0.125)" xlink:href="#ArialMT-30"/>
    </g>
   </g>
  </g>
  <g id="axes_2">
   <g id="patch_7">
    <path d="
M75.6317 51.9275
L114.195 51.9275
L114.195 20.544
L75.6317 20.544
z
" style="fill:#ffffff;"/>
   </g>
   <g id="patch_8">
    <path clip-path="url(#p239ee18380)" d="
M77.1742 51.9275
L77.1742 51.9275
L77.9455 51.9275
L77.9455 51.9275
L78.7168 51.9275
L78.7168 51.9275
L79.488 51.9275
L79.488 51.9275
L80.2593 51.9275
L80.2593 51.9275
L81.0306 51.9275
L81.0306 51.9275
L81.8019 51.9275
L81.8019 51.6407
L82.5732 51.6407
L82.5732 51.4973
L83.3444 51.4973
L83.3444 49.0598
L84.1157 49.0598
L84.1157 48.1995
L84.887 48.1995
L84.887 46.4788
L85.6583 46.4788
L85.6583 41.0302
L86.4295 41.0302
L86.4295 40.6
L87.2008 40.6
L87.2008 38.0191
L87.9721 38.0191
L87.9721 34.5778
L88.7434 34.5778
L88.7434 34.7212
L89.5146 34.7212
L89.5146 34.1477
L90.2859 34.1477
L90.2859 30.9932
L91.0572 30.9932
L91.0572 37.3022
L91.8285 37.3022
L91.8285 34.7212
L92.5997 34.7212
L92.5997 36.2985
L93.371 36.2985
L93.371 38.8794
L94.1423 38.8794
L94.1423 42.7508
L94.9136 42.7508
L94.9136 40.4567
L95.6849 40.4567
L95.6849 40.4567
L96.4561 40.4567
L96.4561 44.3281
L97.2274 44.3281
L97.2274 45.9053
L97.9987 45.9053
L97.9987 46.3355
L98.77 46.3355
L98.77 47.0524
L99.5412 47.0524
L99.5412 48.4862
L100.313 48.4862
L100.313 49.9201
L101.084 49.9201
L101.084 50.7804
L101.855 50.7804
L101.855 50.637
L102.626 50.637
L102.626 50.637
L103.398 50.637
L103.398 50.9238
L104.169 50.9238
L104.169 51.4973
L104.94 51.4973
L104.94 51.7841
L105.711 51.7841
L105.711 51.6407
L106.483 51.6407
L106.483 51.4973
L107.254 51.4973
L107.254 51.7841
L108.025 51.7841
L108.025 51.6407
L108.797 51.6407
L108.797 51.9275
L109.568 51.9275
L109.568 51.7841
L110.339 51.7841
L110.339 51.9275
L111.11 51.9275
L111.11 51.7841
L111.882 51.7841
L111.882 51.9275
L112.653 51.9275
L112.653 51.9275
L113.424 51.9275
L113.424 51.9275" style="fill:none;opacity:0.5;stroke:#000000;stroke-linejoin:miter;"/>
   </g>
   <g id="patch_9">
    <path clip-path="url(#p239ee18380)" d="
M77.1742 51.9275
L77.1742 51.9275
L77.9455 51.9275
L77.9455 51.9275
L78.7168 51.9275
L78.7168 51.9275
L79.488 51.9275
L79.488 51.9275
L80.2593 51.9275
L80.2593 51.9275
L81.0306 51.9275
L81.0306 51.9275
L81.8019 51.9275
L81.8019 51.8974
L82.5732 51.8974
L82.5732 51.6588
L83.3444 51.6588
L83.3444 50.9156
L84.1157 50.9156
L84.1157 49.1882
L84.887 49.1882
L84.887 45.9693
L85.6583 45.9693
L85.6583 42.9363
L86.4295 42.9363
L86.4295 41.131
L87.2008 41.131
L87.2008 40.3954
L87.9721 40.3954
L87.9721 39.1123
L88.7434 39.1123
L88.7434 38.575
L89.5146 38.575
L89.5146 37.518
L90.2859 37.518
L90.2859 37.1966
L91.0572 37.1966
L91.0572 37.6862
L91.8285 37.6862
L91.8285 37.7314
L92.5997 37.7314
L92.5997 37.9222
L93.371 37.9222
L93.371 38.5901
L94.1423 38.5901
L94.1423 39.509
L94.9136 39.509
L94.9136 40.418
L95.6849 40.418
L95.6849 41.3645
L96.4561 41.3645
L96.4561 42.3613
L97.2274 42.3613
L97.2274 43.5439
L97.9987 43.5439
L97.9987 44.3875
L98.77 44.3875
L98.77 45.1031
L99.5412 45.1031
L99.5412 46.115
L100.313 46.115
L100.313 46.9059
L101.084 46.9059
L101.084 47.5034
L101.855 47.5034
L101.855 48.1663
L102.626 48.1663
L102.626 48.8292
L103.398 48.8292
L103.398 49.4142
L104.169 49.4142
L104.169 49.8937
L104.94 49.8937
L104.94 50.3884
L105.711 50.3884
L105.711 50.8579
L106.483 50.8579
L106.483 51.1316
L107.254 51.1316
L107.254 51.227
L108.025 51.227
L108.025 51.5207
L108.797 51.5207
L108.797 51.6538
L109.568 51.6538
L109.568 51.7492
L110.339 51.7492
L110.339 51.822
L111.11 51.822
L111.11 51.8647
L111.882 51.8647
L111.882 51.8923
L112.653 51.8923
L112.653 51.9124
L113.424 51.9124
L113.424 51.9275" style="fill:none;stroke:#333333;stroke-linejoin:miter;"/>
   </g>
   <g id="patch_10">
    <path d="
M75.6317 51.9275
L114.195 51.9275" style="fill:none;stroke:#000000;stroke-linecap:square;stroke-linejoin:miter;stroke-width:0.5;"/>
   </g>
   <g id="patch_11">
    <path d="
M75.6317 51.9275
L75.6317 20.544" style="fill:none;stroke:#000000;stroke-linecap:square;stroke-linejoin:miter;stroke-width:0.5;"/>
   </g>
   <g id="matplotlib.axis_3">
    <g id="xtick_7">
     <g id="line2d_10">
      <g>
       <use style="stroke:#000000;stroke-width:0.5;" x="75.6316659883" xlink:href="#mc7db9fdffb" y="51.9274859377"/>
      </g>
     </g>
    </g>
    <g id="xtick_8">
     <g id="line2d_11">
      <g>
       <use style="stroke:#000000;stroke-width:0.5;" x="83.3444299782" xlink:href="#mc7db9fdffb" y="51.9274859377"/>
      </g>
     </g>
    </g>
    <g id="xtick_9">
     <g id="line2d_12">
      <g>
       <use style="stroke:#000000;stroke-width:0.5;" x="91.0571939681" xlink:href="#mc7db9fdffb" y="51.9274859377"/>
      </g>
     </g>
    </g>
    <g id="xtick_10">
     <g id="line2d_13">
      <g>
       <use style="stroke:#000000;stroke-width:0.5;" x="98.7699579579" xlink:href="#mc7db9fdffb" y="51.9274859377"/>
      </g>
     </g>
    </g>
    <g id="xtick_11">
     <g id="line2d_14">
      <g>
       <use style="stroke:#000000;stroke-width:0.5;" x="106.482721948" xlink:href="#mc7db9fdffb" y="51.9274859377"/>
      </g>
     </g>
    </g>
    <g id="xtick_12">
     <g id="line2d_15">
      <g>
       <use style="stroke:#000000;stroke-width:0.5;" x="114.195485938" xlink:href="#mc7db9fdffb" y="51.9274859377"/>
      </g>
     </g>
    </g>
   </g>
   <g id="matplotlib.axis_4">
    <g id="ytick_4">
     <g id="line2d_16">
      <g>
       <use style="stroke:#000000;stroke-width:0.5;" x="75.6316659883" xlink:href="#md7965d1ba0" y="51.9274859377"/>
      </g>
     </g>
    </g>
    <g id="ytick_5">
     <g id="line2d_17">
      <g>
       <use style="stroke:#000000;stroke-width:0.5;" x="75.6316659883" xlink:href="#md7965d1ba0" y="36.2357429688"/>
      </g>
     </g>
    </g>
    <g id="ytick_6">
     <g id="line2d_18">
      <g>
       <use style="stroke:#000000;stroke-width:0.5;" x="75.6316659883" xlink:href="#md7965d1ba0" y="20.544"/>
      </g>
     </g>
    </g>
   </g>
   <g id="text_5">
    <!-- c = 55, $\ell_p$ = 100 -->
    <g transform="translate(78.7167715843 25.56535775)scale(0.06 -0.06)">
     <use transform="translate(0.0 0.125)" xlink:href="#ArialMT-63"/>
     <use transform="translate(50.0 0.125)" xlink:href="#ArialMT-20"/>
     <use transform="translate(77.783203125 0.125)" xlink:href="#ArialMT-3d"/>
     <use transform="translate(136.181640625 0.125)" xlink:href="#ArialMT-20"/>
     <use transform="translate(163.96484375 0.125)" xlink:href="#ArialMT-35"/>
     <use transform="translate(219.580078125 0.125)" xlink:href="#ArialMT-35"/>
     <use transform="translate(275.1953125 0.125)" xlink:href="#ArialMT-2c"/>
     <use transform="translate(302.978515625 0.125)" xlink:href="#ArialMT-20"/>
     <use transform="translate(330.76171875 0.125)" xlink:href="#Cmmi10-60"/>
     <use transform="translate(372.36328125 -25.384375000000006)scale(0.7)" xlink:href="#Cmmi10-70"/>
     <use transform="translate(422.65625 0.125)" xlink:href="#ArialMT-20"/>
     <use transform="translate(450.439453125 0.125)" xlink:href="#ArialMT-3d"/>
     <use transform="translate(508.837890625 0.125)" xlink:href="#ArialMT-20"/>
     <use transform="translate(536.62109375 0.125)" xlink:href="#ArialMT-31"/>
     <use transform="translate(592.236328125 0.125)" xlink:href="#ArialMT-30"/>
     <use transform="translate(647.8515625 0.125)" xlink:href="#ArialMT-30"/>
    </g>
   </g>
  </g>
  <g id="axes_3">
   <g id="patch_12">
    <path d="
M25.8 95.311
L64.3638 95.311
L64.3638 63.9275
L25.8 63.9275
z
" style="fill:#ffffff;"/>
   </g>
   <g id="patch_13">
    <path clip-path="url(#pb1bf072f2c)" d="
M27.3426 95.311
L27.3426 95.311
L28.1138 95.311
L28.1138 95.311
L28.8851 95.311
L28.8851 95.311
L29.6564 95.311
L29.6564 95.311
L30.4277 95.311
L30.4277 95.311
L31.1989 95.311
L31.1989 95.311
L31.9702 95.311
L31.9702 95.0242
L32.7415 95.0242
L32.7415 94.8808
L33.5128 94.8808
L33.5128 92.4433
L34.284 92.4433
L34.284 91.583
L35.0553 91.583
L35.0553 89.8623
L35.8266 89.8623
L35.8266 84.4137
L36.5979 84.4137
L36.5979 83.9835
L37.3691 83.9835
L37.3691 81.4026
L38.1404 81.4026
L38.1404 77.9613
L38.9117 77.9613
L38.9117 78.1047
L39.683 78.1047
L39.683 77.5312
L40.4543 77.5312
L40.4543 74.3767
L41.2255 74.3767
L41.2255 80.6857
L41.9968 80.6857
L41.9968 78.1047
L42.7681 78.1047
L42.7681 79.682
L43.5394 79.682
L43.5394 82.2629
L44.3106 82.2629
L44.3106 86.1343
L45.0819 86.1343
L45.0819 83.8401
L45.8532 83.8401
L45.8532 83.8401
L46.6245 83.8401
L46.6245 87.7115
L47.3957 87.7115
L47.3957 89.2888
L48.167 89.2888
L48.167 89.7189
L48.9383 89.7189
L48.9383 90.4359
L49.7096 90.4359
L49.7096 91.8697
L50.4808 91.8697
L50.4808 93.3036
L51.2521 93.3036
L51.2521 94.1639
L52.0234 94.1639
L52.0234 94.0205
L52.7947 94.0205
L52.7947 94.0205
L53.566 94.0205
L53.566 94.3073
L54.3372 94.3073
L54.3372 94.8808
L55.1085 94.8808
L55.1085 95.1676
L55.8798 95.1676
L55.8798 95.0242
L56.6511 95.0242
L56.6511 94.8808
L57.4223 94.8808
L57.4223 95.1676
L58.1936 95.1676
L58.1936 95.0242
L58.9649 95.0242
L58.9649 95.311
L59.7362 95.311
L59.7362 95.1676
L60.5074 95.1676
L60.5074 95.311
L61.2787 95.311
L61.2787 95.1676
L62.05 95.1676
L62.05 95.311
L62.8213 95.311
L62.8213 95.311
L63.5925 95.311
L63.5925 95.311" style="fill:none;opacity:0.5;stroke:#000000;stroke-linejoin:miter;"/>
   </g>
   <g id="patch_14">
    <path clip-path="url(#pb1bf072f2c)" d="
M27.3426 95.311
L27.3426 95.311
L28.1138 95.311
L28.1138 95.311
L28.8851 95.311
L28.8851 95.311
L29.6564 95.311
L29.6564 95.311
L30.4277 95.311
L30.4277 95.311
L31.1989 95.311
L31.1989 95.311
L31.9702 95.311
L31.9702 95.311
L32.7415 95.311
L32.7415 95.3084
L33.5128 95.3084
L33.5128 95.2615
L34.284 95.2615
L34.284 95.1468
L35.0553 95.1468
L35.0553 94.8548
L35.8266 94.8548
L35.8266 94.357
L36.5979 94.357
L36.5979 93.5516
L37.3691 93.5516
L37.3691 92.5716
L38.1404 92.5716
L38.1404 91.417
L38.9117 91.417
L38.9117 89.9626
L39.683 89.9626
L39.683 88.5864
L40.4543 88.5864
L40.4543 87.2884
L41.2255 87.2884
L41.2255 86.1911
L41.9968 86.1911
L41.9968 85.5083
L42.7681 85.5083
L42.7681 84.9166
L43.5394 84.9166
L43.5394 84.4474
L44.3106 84.4474
L44.3106 83.9392
L45.0819 83.9392
L45.0819 83.6134
L45.8532 83.6134
L45.8532 83.8766
L46.6245 83.8766
L46.6245 83.7541
L47.3957 83.7541
L47.3957 83.934
L48.167 83.934
L48.167 84.1842
L48.9383 84.1842
L48.9383 84.6742
L49.7096 84.6742
L49.7096 85.2268
L50.4808 85.2268
L50.4808 85.6412
L51.2521 85.6412
L51.2521 86.2563
L52.0234 86.2563
L52.0234 86.6342
L52.7947 86.6342
L52.7947 87.2181
L53.566 87.2181
L53.566 88.1095
L54.3372 88.1095
L54.3372 88.4457
L55.1085 88.4457
L55.1085 89.0347
L55.8798 89.0347
L55.8798 89.7802
L56.6511 89.7802
L56.6511 90.0147
L57.4223 90.0147
L57.4223 90.8201
L58.1936 90.8201
L58.1936 91.2867
L58.9649 91.2867
L58.9649 91.6855
L59.7362 91.6855
L59.7362 92.1207
L60.5074 92.1207
L60.5074 92.4648
L61.2787 92.4648
L61.2787 92.7332
L62.05 92.7332
L62.05 93.132
L62.8213 93.132
L62.8213 93.4213
L63.5925 93.4213
L63.5925 95.311" style="fill:none;stroke:#333333;stroke-linejoin:miter;"/>
   </g>
   <g id="patch_15">
    <path d="
M25.8 95.311
L64.3638 95.311" style="fill:none;stroke:#000000;stroke-linecap:square;stroke-linejoin:miter;stroke-width:0.5;"/>
   </g>
   <g id="patch_16">
    <path d="
M25.8 95.311
L25.8 63.9275" style="fill:none;stroke:#000000;stroke-linecap:square;stroke-linejoin:miter;stroke-width:0.5;"/>
   </g>
   <g id="matplotlib.axis_5">
    <g id="xtick_13">
     <g id="line2d_19">
      <g>
       <use style="stroke:#000000;stroke-width:0.5;" x="25.8" xlink:href="#mc7db9fdffb" y="95.3109718753"/>
      </g>
     </g>
     <g id="text_6">
      <!-- 0 -->
      <g transform="translate(25.9067289298 100.927894488)rotate(-45.0)scale(0.06 -0.06)">
       <use xlink:href="#ArialMT-30"/>
      </g>
     </g>
    </g>
    <g id="xtick_14">
     <g id="line2d_20">
      <g>
       <use style="stroke:#000000;stroke-width:0.5;" x="33.5127639899" xlink:href="#mc7db9fdffb" y="95.3109718753"/>
      </g>
     </g>
     <g id="text_7">
      <!-- 50 -->
      <g transform="translate(32.4398399348 103.287200457)rotate(-45.0)scale(0.06 -0.06)">
       <use xlink:href="#ArialMT-35"/>
       <use x="55.615234375" xlink:href="#ArialMT-30"/>
      </g>
     </g>
    </g>
    <g id="xtick_15">
     <g id="line2d_21">
      <g>
       <use style="stroke:#000000;stroke-width:0.5;" x="41.2255279797" xlink:href="#mc7db9fdffb" y="95.3109718753"/>
      </g>
     </g>
     <g id="text_8">
      <!-- 100 -->
      <g transform="translate(39.1158086068 105.360791093)rotate(-45.0)scale(0.06 -0.06)">
       <use xlink:href="#ArialMT-31"/>
       <use x="55.615234375" xlink:href="#ArialMT-30"/>
       <use x="111.23046875" xlink:href="#ArialMT-30"/>
      </g>
     </g>
    </g>
    <g id="xtick_16">
     <g id="line2d_22">
      <g>
       <use style="stroke:#000000;stroke-width:0.5;" x="48.9382919696" xlink:href="#mc7db9fdffb" y="95.3109718753"/>
      </g>
     </g>
     <g id="text_9">
      <!-- 150 -->
      <g transform="translate(46.8285725967 105.360791093)rotate(-45.0)scale(0.06 -0.06)">
       <use xlink:href="#ArialMT-31"/>
       <use x="55.615234375" xlink:href="#ArialMT-35"/>
       <use x="111.23046875" xlink:href="#ArialMT-30"/>
      </g>
     </g>
    </g>
    <g id="xtick_17">
     <g id="line2d_23">
      <g>
       <use style="stroke:#000000;stroke-width:0.5;" x="56.6510559595" xlink:href="#mc7db9fdffb" y="95.3109718753"/>
      </g>
     </g>
     <g id="text_10">
      <!-- 200 -->
      <g transform="translate(54.372625328 105.69821361)rotate(-45.0)scale(0.06 -0.06)">
       <use xlink:href="#ArialMT-32"/>
       <use x="55.615234375" xlink:href="#ArialMT-30"/>
       <use x="111.23046875" xlink:href="#ArialMT-30"/>
      </g>
     </g>
    </g>
    <g id="xtick_18">
     <g id="line2d_24">
      <g>
       <use style="stroke:#000000;stroke-width:0.5;" x="64.3638199493" xlink:href="#mc7db9fdffb" y="95.3109718753"/>
      </g>
     </g>
     <g id="text_11">
      <!-- 250 -->
      <g transform="translate(62.0853893178 105.69821361)rotate(-45.0)scale(0.06 -0.06)">
       <use xlink:href="#ArialMT-32"/>
       <use x="55.615234375" xlink:href="#ArialMT-35"/>
       <use x="111.23046875" xlink:href="#ArialMT-30"/>
      </g>
     </g>
    </g>
   </g>
   <g id="matplotlib.axis_6">
    <g id="ytick_7">
     <g id="line2d_25">
      <g>
       <use style="stroke:#000000;stroke-width:0.5;" x="25.8" xlink:href="#md7965d1ba0" y="95.3109718753"/>
      </g>
     </g>
     <g id="text_12">
      <!-- 0.0000 -->
      <g transform="translate(6.4865625 96.8620656253)scale(0.06 -0.06)">
       <use xlink:href="#ArialMT-30"/>
       <use x="55.615234375" xlink:href="#ArialMT-2e"/>
       <use x="83.3984375" xlink:href="#ArialMT-30"/>
       <use x="139.013671875" xlink:href="#ArialMT-30"/>
       <use x="194.62890625" xlink:href="#ArialMT-30"/>
       <use x="250.244140625" xlink:href="#ArialMT-30"/>
      </g>
     </g>
    </g>
    <g id="ytick_8">
     <g id="line2d_26">
      <g>
       <use style="stroke:#000000;stroke-width:0.5;" x="25.8" xlink:href="#md7965d1ba0" y="79.6192289065"/>
      </g>
     </g>
     <g id="text_13">
      <!-- 0.0125 -->
      <g transform="translate(6.4396875 81.1703226565)scale(0.06 -0.06)">
       <use xlink:href="#ArialMT-30"/>
       <use x="55.615234375" xlink:href="#ArialMT-2e"/>
       <use x="83.3984375" xlink:href="#ArialMT-30"/>
       <use x="139.013671875" xlink:href="#ArialMT-31"/>
       <use x="194.62890625" xlink:href="#ArialMT-32"/>
       <use x="250.244140625" xlink:href="#ArialMT-35"/>
      </g>
     </g>
    </g>
    <g id="ytick_9">
     <g id="line2d_27">
      <g>
       <use style="stroke:#000000;stroke-width:0.5;" x="25.8" xlink:href="#md7965d1ba0" y="63.9274859377"/>
      </g>
     </g>
     <g id="text_14">
      <!-- 0.0250 -->
      <g transform="translate(6.4865625 65.4785796877)scale(0.06 -0.06)">
       <use xlink:href="#ArialMT-30"/>
       <use x="55.615234375" xlink:href="#ArialMT-2e"/>
       <use x="83.3984375" xlink:href="#ArialMT-30"/>
       <use x="139.013671875" xlink:href="#ArialMT-32"/>
       <use x="194.62890625" xlink:href="#ArialMT-35"/>
       <use x="250.244140625" xlink:href="#ArialMT-30"/>
      </g>
     </g>
    </g>
   </g>
   <g id="text_15">
    <!-- c = 30, $\ell_p$ = 80 -->
    <defs>
     <path d="
M17.6719 38.8125
Q12.2031 40.8281 9.5625 44.5312
Q6.9375 48.25 6.9375 53.4219
Q6.9375 61.2344 12.5469 66.5469
Q18.1719 71.875 27.4844 71.875
Q36.8594 71.875 42.5781 66.4219
Q48.2969 60.9844 48.2969 53.1719
Q48.2969 48.1875 45.6719 44.5
Q43.0625 40.8281 37.75 38.8125
Q44.3438 36.6719 47.7812 31.875
Q51.2188 27.0938 51.2188 20.4531
Q51.2188 11.2812 44.7188 5.03125
Q38.2344 -1.21875 27.6406 -1.21875
Q17.0469 -1.21875 10.5469 5.04688
Q4.04688 11.3281 4.04688 20.7031
Q4.04688 27.6875 7.59375 32.3906
Q11.1406 37.1094 17.6719 38.8125
M15.9219 53.7188
Q15.9219 48.6406 19.1875 45.4062
Q22.4688 42.1875 27.6875 42.1875
Q32.7656 42.1875 36.0156 45.375
Q39.2656 48.5781 39.2656 53.2188
Q39.2656 58.0625 35.9062 61.3594
Q32.5625 64.6562 27.5938 64.6562
Q22.5625 64.6562 19.2344 61.4219
Q15.9219 58.2031 15.9219 53.7188
M13.0938 20.6562
Q13.0938 16.8906 14.875 13.375
Q16.6562 9.85938 20.1719 7.92188
Q23.6875 6 27.7344 6
Q34.0312 6 38.125 10.0469
Q42.2344 14.1094 42.2344 20.3594
Q42.2344 26.7031 38.0156 30.8594
Q33.7969 35.0156 27.4375 35.0156
Q21.2344 35.0156 17.1562 30.9062
Q13.0938 26.8125 13.0938 20.6562" id="ArialMT-38"/>
    </defs>
    <g transform="translate(28.8851055959 68.9488436877)scale(0.06 -0.06)">
     <use transform="translate(0.0 0.125)" xlink:href="#ArialMT-63"/>
     <use transform="translate(50.0 0.125)" xlink:href="#ArialMT-20"/>
     <use transform="translate(77.783203125 0.125)" xlink:href="#ArialMT-3d"/>
     <use transform="translate(136.181640625 0.125)" xlink:href="#ArialMT-20"/>
     <use transform="translate(163.96484375 0.125)" xlink:href="#ArialMT-33"/>
     <use transform="translate(219.580078125 0.125)" xlink:href="#ArialMT-30"/>
     <use transform="translate(275.1953125 0.125)" xlink:href="#ArialMT-2c"/>
     <use transform="translate(302.978515625 0.125)" xlink:href="#ArialMT-20"/>
     <use transform="translate(330.76171875 0.125)" xlink:href="#Cmmi10-60"/>
     <use transform="translate(372.36328125 -25.384375000000006)scale(0.7)" xlink:href="#Cmmi10-70"/>
     <use transform="translate(422.65625 0.125)" xlink:href="#ArialMT-20"/>
     <use transform="translate(450.439453125 0.125)" xlink:href="#ArialMT-3d"/>
     <use transform="translate(508.837890625 0.125)" xlink:href="#ArialMT-20"/>
     <use transform="translate(536.62109375 0.125)" xlink:href="#ArialMT-38"/>
     <use transform="translate(592.236328125 0.125)" xlink:href="#ArialMT-30"/>
    </g>
   </g>
  </g>
  <g id="axes_4">
   <g id="patch_17">
    <path d="
M75.6317 95.311
L114.195 95.311
L114.195 63.9275
L75.6317 63.9275
z
" style="fill:#ffffff;"/>
   </g>
   <g id="patch_18">
    <path clip-path="url(#p81b3efd916)" d="
M77.1742 95.311
L77.1742 95.311
L77.9455 95.311
L77.9455 95.311
L78.7168 95.311
L78.7168 95.311
L79.488 95.311
L79.488 95.311
L80.2593 95.311
L80.2593 95.311
L81.0306 95.311
L81.0306 95.311
L81.8019 95.311
L81.8019 95.0242
L82.5732 95.0242
L82.5732 94.8808
L83.3444 94.8808
L83.3444 92.4433
L84.1157 92.4433
L84.1157 91.583
L84.887 91.583
L84.887 89.8623
L85.6583 89.8623
L85.6583 84.4137
L86.4295 84.4137
L86.4295 83.9835
L87.2008 83.9835
L87.2008 81.4026
L87.9721 81.4026
L87.9721 77.9613
L88.7434 77.9613
L88.7434 78.1047
L89.5146 78.1047
L89.5146 77.5312
L90.2859 77.5312
L90.2859 74.3767
L91.0572 74.3767
L91.0572 80.6857
L91.8285 80.6857
L91.8285 78.1047
L92.5997 78.1047
L92.5997 79.682
L93.371 79.682
L93.371 82.2629
L94.1423 82.2629
L94.1423 86.1343
L94.9136 86.1343
L94.9136 83.8401
L95.6849 83.8401
L95.6849 83.8401
L96.4561 83.8401
L96.4561 87.7115
L97.2274 87.7115
L97.2274 89.2888
L97.9987 89.2888
L97.9987 89.7189
L98.77 89.7189
L98.77 90.4359
L99.5412 90.4359
L99.5412 91.8697
L100.313 91.8697
L100.313 93.3036
L101.084 93.3036
L101.084 94.1639
L101.855 94.1639
L101.855 94.0205
L102.626 94.0205
L102.626 94.0205
L103.398 94.0205
L103.398 94.3073
L104.169 94.3073
L104.169 94.8808
L104.94 94.8808
L104.94 95.1676
L105.711 95.1676
L105.711 95.0242
L106.483 95.0242
L106.483 94.8808
L107.254 94.8808
L107.254 95.1676
L108.025 95.1676
L108.025 95.0242
L108.797 95.0242
L108.797 95.311
L109.568 95.311
L109.568 95.1676
L110.339 95.1676
L110.339 95.311
L111.11 95.311
L111.11 95.1676
L111.882 95.1676
L111.882 95.311
L112.653 95.311
L112.653 95.311
L113.424 95.311
L113.424 95.311" style="fill:none;opacity:0.5;stroke:#000000;stroke-linejoin:miter;"/>
   </g>
   <g id="patch_19">
    <path clip-path="url(#p81b3efd916)" d="
M77.1742 95.311
L77.1742 95.311
L77.9455 95.311
L77.9455 95.311
L78.7168 95.311
L78.7168 95.311
L79.488 95.311
L79.488 95.311
L80.2593 95.311
L80.2593 95.311
L81.0306 95.311
L81.0306 95.1779
L81.8019 95.1779
L81.8019 93.9703
L82.5732 93.9703
L82.5732 88.6376
L83.3444 88.6376
L83.3444 82.6797
L84.1157 82.6797
L84.1157 80.6863
L84.887 80.6863
L84.887 78.5472
L85.6583 78.5472
L85.6583 76.4859
L86.4295 76.4859
L86.4295 75.8984
L87.2008 75.8984
L87.2008 75.8407
L87.9721 75.8407
L87.9721 76.2725
L88.7434 76.2725
L88.7434 77.1939
L89.5146 77.1939
L89.5146 78.4392
L90.2859 78.4392
L90.2859 79.554
L91.0572 79.554
L91.0572 81.7332
L91.8285 81.7332
L91.8285 83.5384
L92.5997 83.5384
L92.5997 84.9921
L93.371 84.9921
L93.371 86.865
L94.1423 86.865
L94.1423 88.0677
L94.9136 88.0677
L94.9136 89.6268
L95.6849 89.6268
L95.6849 90.5934
L96.4561 90.5934
L96.4561 91.781
L97.2274 91.781
L97.2274 92.9308
L97.9987 92.9308
L97.9987 93.7142
L98.77 93.7142
L98.77 94.2841
L99.5412 94.2841
L99.5412 94.6331
L100.313 94.6331
L100.313 95.0373
L101.084 95.0373
L101.084 95.2105
L101.855 95.2105
L101.855 95.2608
L102.626 95.2608
L102.626 95.2984
L103.398 95.2984
L103.398 95.311
L104.169 95.311
L104.169 95.311
L104.94 95.311
L104.94 95.311
L105.711 95.311
L105.711 95.311
L106.483 95.311
L106.483 95.311
L107.254 95.311
L107.254 95.311
L108.025 95.311
L108.025 95.311
L108.797 95.311
L108.797 95.311
L109.568 95.311
L109.568 95.311
L110.339 95.311
L110.339 95.311
L111.11 95.311
L111.11 95.311
L111.882 95.311
L111.882 95.311
L112.653 95.311
L112.653 95.311
L113.424 95.311
L113.424 95.311" style="fill:none;stroke:#333333;stroke-linejoin:miter;"/>
   </g>
   <g id="patch_20">
    <path d="
M75.6317 95.311
L114.195 95.311" style="fill:none;stroke:#000000;stroke-linecap:square;stroke-linejoin:miter;stroke-width:0.5;"/>
   </g>
   <g id="patch_21">
    <path d="
M75.6317 95.311
L75.6317 63.9275" style="fill:none;stroke:#000000;stroke-linecap:square;stroke-linejoin:miter;stroke-width:0.5;"/>
   </g>
   <g id="matplotlib.axis_7">
    <g id="xtick_19">
     <g id="line2d_28">
      <g>
       <use style="stroke:#000000;stroke-width:0.5;" x="75.6316659883" xlink:href="#mc7db9fdffb" y="95.3109718753"/>
      </g>
     </g>
     <g id="text_16">
      <!-- 0 -->
      <g transform="translate(75.7383949181 100.927894488)rotate(-45.0)scale(0.06 -0.06)">
       <use xlink:href="#ArialMT-30"/>
      </g>
     </g>
    </g>
    <g id="xtick_20">
     <g id="line2d_29">
      <g>
       <use style="stroke:#000000;stroke-width:0.5;" x="83.3444299782" xlink:href="#mc7db9fdffb" y="95.3109718753"/>
      </g>
     </g>
     <g id="text_17">
      <!-- 50 -->
      <g transform="translate(82.2715059232 103.287200457)rotate(-45.0)scale(0.06 -0.06)">
       <use xlink:href="#ArialMT-35"/>
       <use x="55.615234375" xlink:href="#ArialMT-30"/>
      </g>
     </g>
    </g>
    <g id="xtick_21">
     <g id="line2d_30">
      <g>
       <use style="stroke:#000000;stroke-width:0.5;" x="91.0571939681" xlink:href="#mc7db9fdffb" y="95.3109718753"/>
      </g>
     </g>
     <g id="text_18">
      <!-- 100 -->
      <g transform="translate(88.9474745951 105.360791093)rotate(-45.0)scale(0.06 -0.06)">
       <use xlink:href="#ArialMT-31"/>
       <use x="55.615234375" xlink:href="#ArialMT-30"/>
       <use x="111.23046875" xlink:href="#ArialMT-30"/>
      </g>
     </g>
    </g>
    <g id="xtick_22">
     <g id="line2d_31">
      <g>
       <use style="stroke:#000000;stroke-width:0.5;" x="98.7699579579" xlink:href="#mc7db9fdffb" y="95.3109718753"/>
      </g>
     </g>
     <g id="text_19">
      <!-- 150 -->
      <g transform="translate(96.660238585 105.360791093)rotate(-45.0)scale(0.06 -0.06)">
       <use xlink:href="#ArialMT-31"/>
       <use x="55.615234375" xlink:href="#ArialMT-35"/>
       <use x="111.23046875" xlink:href="#ArialMT-30"/>
      </g>
     </g>
    </g>
    <g id="xtick_23">
     <g id="line2d_32">
      <g>
       <use style="stroke:#000000;stroke-width:0.5;" x="106.482721948" xlink:href="#mc7db9fdffb" y="95.3109718753"/>
      </g>
     </g>
     <g id="text_20">
      <!-- 200 -->
      <g transform="translate(104.204291316 105.69821361)rotate(-45.0)scale(0.06 -0.06)">
       <use xlink:href="#ArialMT-32"/>
       <use x="55.615234375" xlink:href="#ArialMT-30"/>
       <use x="111.23046875" xlink:href="#ArialMT-30"/>
      </g>
     </g>
    </g>
    <g id="xtick_24">
     <g id="line2d_33">
      <g>
       <use style="stroke:#000000;stroke-width:0.5;" x="114.195485938" xlink:href="#mc7db9fdffb" y="95.3109718753"/>
      </g>
     </g>
     <g id="text_21">
      <!-- 250 -->
      <g transform="translate(111.917055306 105.69821361)rotate(-45.0)scale(0.06 -0.06)">
       <use xlink:href="#ArialMT-32"/>
       <use x="55.615234375" xlink:href="#ArialMT-35"/>
       <use x="111.23046875" xlink:href="#ArialMT-30"/>
      </g>
     </g>
    </g>
   </g>
   <g id="matplotlib.axis_8">
    <g id="ytick_10">
     <g id="line2d_34">
      <g>
       <use style="stroke:#000000;stroke-width:0.5;" x="75.6316659883" xlink:href="#md7965d1ba0" y="95.3109718753"/>
      </g>
     </g>
    </g>
    <g id="ytick_11">
     <g id="line2d_35">
      <g>
       <use style="stroke:#000000;stroke-width:0.5;" x="75.6316659883" xlink:href="#md7965d1ba0" y="79.6192289065"/>
      </g>
     </g>
    </g>
    <g id="ytick_12">
     <g id="line2d_36">
      <g>
       <use style="stroke:#000000;stroke-width:0.5;" x="75.6316659883" xlink:href="#md7965d1ba0" y="63.9274859377"/>
      </g>
     </g>
    </g>
   </g>
   <g id="text_22">
    <!-- c = 80, $\ell_p$ = 90 -->
    <defs>
     <path d="
M5.46875 16.5469
L13.9219 17.3281
Q14.9844 11.375 18.0156 8.6875
Q21.0469 6 25.7812 6
Q29.8281 6 32.875 7.85938
Q35.9375 9.71875 37.8906 12.8125
Q39.8438 15.9219 41.1562 21.1875
Q42.4844 26.4688 42.4844 31.9375
Q42.4844 32.5156 42.4375 33.6875
Q39.7969 29.5 35.2344 26.875
Q30.6719 24.2656 25.3438 24.2656
Q16.4531 24.2656 10.2969 30.7031
Q4.15625 37.1562 4.15625 47.7031
Q4.15625 58.5938 10.5781 65.2344
Q17 71.875 26.6562 71.875
Q33.6406 71.875 39.4219 68.1094
Q45.2188 64.3594 48.2188 57.3906
Q51.2188 50.4375 51.2188 37.25
Q51.2188 23.5312 48.2344 15.4062
Q45.2656 7.28125 39.375 3.03125
Q33.5 -1.21875 25.5938 -1.21875
Q17.1875 -1.21875 11.8594 3.4375
Q6.54688 8.10938 5.46875 16.5469
M41.4531 48.1406
Q41.4531 55.7188 37.4219 60.1562
Q33.4062 64.5938 27.7344 64.5938
Q21.875 64.5938 17.5312 59.8125
Q13.1875 55.0312 13.1875 47.4062
Q13.1875 40.5781 17.3125 36.2969
Q21.4375 32.0312 27.4844 32.0312
Q33.5938 32.0312 37.5156 36.2969
Q41.4531 40.5781 41.4531 48.1406" id="ArialMT-39"/>
    </defs>
    <g transform="translate(78.7167715843 68.9488436877)scale(0.06 -0.06)">
     <use transform="translate(0.0 0.125)" xlink:href="#ArialMT-63"/>
     <use transform="translate(50.0 0.125)" xlink:href="#ArialMT-20"/>
     <use transform="translate(77.783203125 0.125)" xlink:href="#ArialMT-3d"/>
     <use transform="translate(136.181640625 0.125)" xlink:href="#ArialMT-20"/>
     <use transform="translate(163.96484375 0.125)" xlink:href="#ArialMT-38"/>
     <use transform="translate(219.580078125 0.125)" xlink:href="#ArialMT-30"/>
     <use transform="translate(275.1953125 0.125)" xlink:href="#ArialMT-2c"/>
     <use transform="translate(302.978515625 0.125)" xlink:href="#ArialMT-20"/>
     <use transform="translate(330.76171875 0.125)" xlink:href="#Cmmi10-60"/>
     <use transform="translate(372.36328125 -25.384375000000006)scale(0.7)" xlink:href="#Cmmi10-70"/>
     <use transform="translate(422.65625 0.125)" xlink:href="#ArialMT-20"/>
     <use transform="translate(450.439453125 0.125)" xlink:href="#ArialMT-3d"/>
     <use transform="translate(508.837890625 0.125)" xlink:href="#ArialMT-20"/>
     <use transform="translate(536.62109375 0.125)" xlink:href="#ArialMT-39"/>
     <use transform="translate(592.236328125 0.125)" xlink:href="#ArialMT-30"/>
    </g>
   </g>
   <g id="legend_1">
    <g id="patch_22">
     <path d="
M42.4744 7.43389
L54.4744 7.43389
L54.4744 3.23389
L42.4744 3.23389
L42.4744 7.43389" style="fill:none;opacity:0.5;stroke:#000000;stroke-linejoin:miter;"/>
    </g>
    <g id="text_23">
     <!-- Experiment -->
     <defs>
      <path d="
M6.59375 -19.875
L6.59375 51.8594
L14.5938 51.8594
L14.5938 45.125
Q17.4375 49.0781 21 51.0469
Q24.5625 53.0312 29.6406 53.0312
Q36.2812 53.0312 41.3594 49.6094
Q46.4375 46.1875 49.0156 39.9531
Q51.6094 33.7344 51.6094 26.3125
Q51.6094 18.3594 48.75 11.9844
Q45.9062 5.60938 40.4531 2.21875
Q35.0156 -1.17188 29 -1.17188
Q24.6094 -1.17188 21.1094 0.6875
Q17.625 2.54688 15.375 5.375
L15.375 -19.875
z

M14.5469 25.6406
Q14.5469 15.625 18.5938 10.8438
Q22.6562 6.0625 28.4219 6.0625
Q34.2812 6.0625 38.4531 11.0156
Q42.625 15.9688 42.625 26.375
Q42.625 36.2812 38.5469 41.2031
Q34.4688 46.1406 28.8125 46.1406
Q23.1875 46.1406 18.8594 40.8906
Q14.5469 35.6406 14.5469 25.6406" id="ArialMT-70"/>
      <path d="
M6.5 0
L6.5 51.8594
L14.4062 51.8594
L14.4062 44
Q17.4375 49.5156 20 51.2656
Q22.5625 53.0312 25.6406 53.0312
Q30.0781 53.0312 34.6719 50.2031
L31.6406 42.0469
Q28.4219 43.9531 25.2031 43.9531
Q22.3125 43.9531 20.0156 42.2188
Q17.7188 40.4844 16.75 37.4062
Q15.2812 32.7188 15.2812 27.1562
L15.2812 0
z
" id="ArialMT-72"/>
      <path d="
M6.64062 61.4688
L6.64062 71.5781
L15.4375 71.5781
L15.4375 61.4688
z

M6.64062 0
L6.64062 51.8594
L15.4375 51.8594
L15.4375 0
z
" id="ArialMT-69"/>
      <path d="
M6.59375 0
L6.59375 51.8594
L14.5 51.8594
L14.5 44.4844
Q20.2188 53.0312 31 53.0312
Q35.6875 53.0312 39.625 51.3438
Q43.5625 49.6562 45.5156 46.9219
Q47.4688 44.1875 48.25 40.4375
Q48.7344 37.9844 48.7344 31.8906
L48.7344 0
L39.9375 0
L39.9375 31.5469
Q39.9375 36.9219 38.9062 39.5781
Q37.8906 42.2344 35.2812 43.8125
Q32.6719 45.4062 29.1562 45.4062
Q23.5312 45.4062 19.4531 41.8438
Q15.375 38.2812 15.375 28.3281
L15.375 0
z
" id="ArialMT-6e"/>
      <path d="
M6.59375 0
L6.59375 51.8594
L14.4531 51.8594
L14.4531 44.5781
Q16.8906 48.3906 20.9375 50.7031
Q25 53.0312 30.1719 53.0312
Q35.9375 53.0312 39.625 50.6406
Q43.3125 48.25 44.8281 43.9531
Q50.9844 53.0312 60.8438 53.0312
Q68.5625 53.0312 72.7031 48.75
Q76.8594 44.4844 76.8594 35.5938
L76.8594 0
L68.1094 0
L68.1094 32.6719
Q68.1094 37.9375 67.25 40.25
Q66.4062 42.5781 64.1562 43.9844
Q61.9219 45.4062 58.8906 45.4062
Q53.4219 45.4062 49.7969 41.7656
Q46.1875 38.1406 46.1875 30.125
L46.1875 0
L37.4062 0
L37.4062 33.6875
Q37.4062 39.5469 35.25 42.4688
Q33.1094 45.4062 28.2188 45.4062
Q24.5156 45.4062 21.3594 43.4531
Q18.2188 41.5 16.7969 37.7344
Q15.375 33.9844 15.375 26.9062
L15.375 0
z
" id="ArialMT-6d"/>
      <path d="
M7.90625 0
L7.90625 71.5781
L59.6719 71.5781
L59.6719 63.1406
L17.3906 63.1406
L17.3906 41.2188
L56.9844 41.2188
L56.9844 32.8125
L17.3906 32.8125
L17.3906 8.45312
L61.3281 8.45312
L61.3281 0
z
" id="ArialMT-45"/>
      <path d="
M25.7812 7.85938
L27.0469 0.09375
Q23.3438 -0.6875 20.4062 -0.6875
Q15.625 -0.6875 12.9844 0.828125
Q10.3594 2.34375 9.28125 4.8125
Q8.20312 7.28125 8.20312 15.1875
L8.20312 45.0156
L1.76562 45.0156
L1.76562 51.8594
L8.20312 51.8594
L8.20312 64.7031
L16.9375 69.9688
L16.9375 51.8594
L25.7812 51.8594
L25.7812 45.0156
L16.9375 45.0156
L16.9375 14.7031
Q16.9375 10.9375 17.4062 9.85938
Q17.875 8.79688 18.9219 8.15625
Q19.9688 7.51562 21.9219 7.51562
Q23.3906 7.51562 25.7812 7.85938" id="ArialMT-74"/>
      <path d="
M42.0938 16.7031
L51.1719 15.5781
Q49.0312 7.625 43.2188 3.21875
Q37.4062 -1.17188 28.375 -1.17188
Q17 -1.17188 10.3281 5.82812
Q3.65625 12.8438 3.65625 25.4844
Q3.65625 38.5781 10.3906 45.7969
Q17.1406 53.0312 27.875 53.0312
Q38.2812 53.0312 44.875 45.9531
Q51.4688 38.875 51.4688 26.0312
Q51.4688 25.25 51.4219 23.6875
L12.75 23.6875
Q13.2344 15.1406 17.5781 10.5938
Q21.9219 6.0625 28.4219 6.0625
Q33.25 6.0625 36.6719 8.59375
Q40.0938 11.1406 42.0938 16.7031
M13.2344 30.9062
L42.1875 30.9062
Q41.6094 37.4531 38.875 40.7188
Q34.6719 45.7969 27.9844 45.7969
Q21.9219 45.7969 17.7969 41.75
Q13.6719 37.7031 13.2344 30.9062" id="ArialMT-65"/>
      <path d="
M0.734375 0
L19.6719 26.9531
L2.15625 51.8594
L13.1406 51.8594
L21.0938 39.7031
Q23.3438 36.2344 24.7031 33.8906
Q26.8594 37.1094 28.6562 39.5938
L37.4062 51.8594
L47.9062 51.8594
L29.9844 27.4375
L49.2656 0
L38.4844 0
L27.8281 16.1094
L25 20.4531
L11.375 0
z
" id="ArialMT-78"/>
     </defs>
     <g transform="translate(59.274375 7.4338875)scale(0.06 -0.06)">
      <use xlink:href="#ArialMT-45"/>
      <use x="66.69921875" xlink:href="#ArialMT-78"/>
      <use x="116.69921875" xlink:href="#ArialMT-70"/>
      <use x="172.314453125" xlink:href="#ArialMT-65"/>
      <use x="227.9296875" xlink:href="#ArialMT-72"/>
      <use x="261.23046875" xlink:href="#ArialMT-69"/>
      <use x="283.447265625" xlink:href="#ArialMT-6d"/>
      <use x="366.748046875" xlink:href="#ArialMT-65"/>
      <use x="422.36328125" xlink:href="#ArialMT-6e"/>
      <use x="477.978515625" xlink:href="#ArialMT-74"/>
     </g>
    </g>
    <g id="patch_23">
     <path d="
M42.4744 15.9211
L54.4744 15.9211
L54.4744 11.7211
L42.4744 11.7211
L42.4744 15.9211" style="fill:none;stroke:#333333;stroke-linejoin:miter;"/>
    </g>
    <g id="text_24">
     <!-- Simulation -->
     <defs>
      <path d="
M6.39062 0
L6.39062 71.5781
L15.1875 71.5781
L15.1875 0
z
" id="ArialMT-6c"/>
      <path d="
M3.32812 25.9219
Q3.32812 40.3281 11.3281 47.2656
Q18.0156 53.0312 27.6406 53.0312
Q38.3281 53.0312 45.1094 46.0156
Q51.9062 39.0156 51.9062 26.6562
Q51.9062 16.6562 48.9062 10.9062
Q45.9062 5.17188 40.1562 2
Q34.4219 -1.17188 27.6406 -1.17188
Q16.75 -1.17188 10.0312 5.8125
Q3.32812 12.7969 3.32812 25.9219
M12.3594 25.9219
Q12.3594 15.9688 16.7031 11.0156
Q21.0469 6.0625 27.6406 6.0625
Q34.1875 6.0625 38.5312 11.0312
Q42.875 16.0156 42.875 26.2188
Q42.875 35.8438 38.5 40.7969
Q34.125 45.75 27.6406 45.75
Q21.0469 45.75 16.7031 40.8125
Q12.3594 35.8906 12.3594 25.9219" id="ArialMT-6f"/>
      <path d="
M40.5781 0
L40.5781 7.625
Q34.5156 -1.17188 24.125 -1.17188
Q19.5312 -1.17188 15.5469 0.578125
Q11.5781 2.34375 9.64062 5
Q7.71875 7.67188 6.9375 11.5312
Q6.39062 14.1094 6.39062 19.7344
L6.39062 51.8594
L15.1875 51.8594
L15.1875 23.0938
Q15.1875 16.2188 15.7188 13.8125
Q16.5469 10.3594 19.2344 8.375
Q21.9219 6.39062 25.875 6.39062
Q29.8281 6.39062 33.2969 8.42188
Q36.7656 10.4531 38.2031 13.9375
Q39.6562 17.4375 39.6562 24.0781
L39.6562 51.8594
L48.4375 51.8594
L48.4375 0
z
" id="ArialMT-75"/>
      <path d="
M4.5 23
L13.4219 23.7812
Q14.0625 18.4062 16.375 14.9688
Q18.7031 11.5312 23.5781 9.40625
Q28.4688 7.28125 34.5781 7.28125
Q39.9844 7.28125 44.1406 8.89062
Q48.2969 10.5 50.3125 13.2969
Q52.3438 16.1094 52.3438 19.4375
Q52.3438 22.7969 50.3906 25.3125
Q48.4375 27.8281 43.9531 29.5469
Q41.0625 30.6719 31.2031 33.0312
Q21.3438 35.4062 17.3906 37.5
Q12.25 40.1875 9.73438 44.1562
Q7.23438 48.1406 7.23438 53.0781
Q7.23438 58.5 10.2969 63.2031
Q13.375 67.9219 19.2812 70.3594
Q25.2031 72.7969 32.4219 72.7969
Q40.375 72.7969 46.4531 70.2344
Q52.5469 67.6719 55.8125 62.6875
Q59.0781 57.7188 59.3281 51.4219
L50.25 50.7344
Q49.5156 57.5156 45.2812 60.9844
Q41.0625 64.4531 32.8125 64.4531
Q24.2188 64.4531 20.2812 61.2969
Q16.3594 58.1562 16.3594 53.7188
Q16.3594 49.8594 19.1406 47.3594
Q21.875 44.875 33.4219 42.2656
Q44.9688 39.6562 49.2656 37.7031
Q55.5156 34.8125 58.4844 30.3906
Q61.4688 25.9844 61.4688 20.2188
Q61.4688 14.5 58.2031 9.4375
Q54.9375 4.39062 48.7969 1.57812
Q42.6719 -1.21875 35.0156 -1.21875
Q25.2969 -1.21875 18.7188 1.60938
Q12.1562 4.4375 8.42188 10.125
Q4.6875 15.8281 4.5 23" id="ArialMT-53"/>
      <path d="
M40.4375 6.39062
Q35.5469 2.25 31.0312 0.53125
Q26.5156 -1.17188 21.3438 -1.17188
Q12.7969 -1.17188 8.20312 3
Q3.60938 7.17188 3.60938 13.6719
Q3.60938 17.4844 5.34375 20.625
Q7.07812 23.7812 9.89062 25.6875
Q12.7031 27.5938 16.2188 28.5625
Q18.7969 29.25 24.0312 29.8906
Q34.6719 31.1562 39.7031 32.9062
Q39.75 34.7188 39.75 35.2031
Q39.75 40.5781 37.25 42.7812
Q33.8906 45.75 27.25 45.75
Q21.0469 45.75 18.0938 43.5781
Q15.1406 41.4062 13.7188 35.8906
L5.125 37.0625
Q6.29688 42.5781 8.98438 45.9688
Q11.6719 49.3594 16.75 51.1875
Q21.8281 53.0312 28.5156 53.0312
Q35.1562 53.0312 39.2969 51.4688
Q43.4531 49.9062 45.4062 47.5312
Q47.3594 45.1719 48.1406 41.5469
Q48.5781 39.3125 48.5781 33.4531
L48.5781 21.7344
Q48.5781 9.46875 49.1406 6.21875
Q49.7031 2.98438 51.375 0
L42.1875 0
Q40.8281 2.73438 40.4375 6.39062
M39.7031 26.0312
Q34.9062 24.0781 25.3438 22.7031
Q19.9219 21.9219 17.6719 20.9375
Q15.4375 19.9688 14.2031 18.0938
Q12.9844 16.2188 12.9844 13.9219
Q12.9844 10.4062 15.6406 8.0625
Q18.3125 5.71875 23.4375 5.71875
Q28.5156 5.71875 32.4688 7.9375
Q36.4219 10.1562 38.2812 14.0156
Q39.7031 17 39.7031 22.7969
z
" id="ArialMT-61"/>
     </defs>
     <g transform="translate(59.274375 15.921075)scale(0.06 -0.06)">
      <use xlink:href="#ArialMT-53"/>
      <use x="66.69921875" xlink:href="#ArialMT-69"/>
      <use x="88.916015625" xlink:href="#ArialMT-6d"/>
      <use x="172.216796875" xlink:href="#ArialMT-75"/>
      <use x="227.83203125" xlink:href="#ArialMT-6c"/>
      <use x="250.048828125" xlink:href="#ArialMT-61"/>
      <use x="305.6640625" xlink:href="#ArialMT-74"/>
      <use x="333.447265625" xlink:href="#ArialMT-69"/>
      <use x="355.6640625" xlink:href="#ArialMT-6f"/>
      <use x="411.279296875" xlink:href="#ArialMT-6e"/>
     </g>
    </g>
   </g>
  </g>
  <g id="text_25">
   <!-- Radius of gyration, nm -->
   <defs>
    <path d="
M8.6875 0
L8.6875 45.0156
L0.921875 45.0156
L0.921875 51.8594
L8.6875 51.8594
L8.6875 57.375
Q8.6875 62.5938 9.625 65.1406
Q10.8906 68.5625 14.0781 70.6719
Q17.2812 72.7969 23.0469 72.7969
Q26.7656 72.7969 31.25 71.9219
L29.9375 64.2656
Q27.2031 64.75 24.75 64.75
Q20.75 64.75 19.0938 63.0312
Q17.4375 61.3281 17.4375 56.6406
L17.4375 51.8594
L27.5469 51.8594
L27.5469 45.0156
L17.4375 45.0156
L17.4375 0
z
" id="ArialMT-66"/>
    <path d="
M4.98438 -4.29688
L13.5312 -5.5625
Q14.0625 -9.51562 16.5 -11.3281
Q19.7812 -13.7656 25.4375 -13.7656
Q31.5469 -13.7656 34.8594 -11.3281
Q38.1875 -8.89062 39.3594 -4.5
Q40.0469 -1.8125 39.9844 6.78125
Q34.2344 0 25.6406 0
Q14.9375 0 9.07812 7.71875
Q3.21875 15.4375 3.21875 26.2188
Q3.21875 33.6406 5.90625 39.9062
Q8.59375 46.1875 13.6875 49.6094
Q18.7969 53.0312 25.6875 53.0312
Q34.8594 53.0312 40.8281 45.6094
L40.8281 51.8594
L48.9219 51.8594
L48.9219 7.03125
Q48.9219 -5.07812 46.4531 -10.125
Q44 -15.1875 38.6406 -18.1094
Q33.2969 -21.0469 25.4844 -21.0469
Q16.2188 -21.0469 10.5 -16.875
Q4.78125 -12.7031 4.98438 -4.29688
M12.25 26.8594
Q12.25 16.6562 16.2969 11.9688
Q20.3594 7.28125 26.4688 7.28125
Q32.5156 7.28125 36.6094 11.9375
Q40.7188 16.6094 40.7188 26.5625
Q40.7188 36.0781 36.5 40.9062
Q32.2812 45.75 26.3125 45.75
Q20.4531 45.75 16.3438 40.9844
Q12.25 36.2344 12.25 26.8594" id="ArialMT-67"/>
    <path d="
M40.2344 0
L40.2344 6.54688
Q35.2969 -1.17188 25.7344 -1.17188
Q19.5312 -1.17188 14.3281 2.25
Q9.125 5.67188 6.26562 11.7969
Q3.42188 17.9219 3.42188 25.875
Q3.42188 33.6406 6 39.9688
Q8.59375 46.2969 13.7656 49.6562
Q18.9531 53.0312 25.3438 53.0312
Q30.0312 53.0312 33.6875 51.0469
Q37.3594 49.0781 39.6562 45.9062
L39.6562 71.5781
L48.3906 71.5781
L48.3906 0
z

M12.4531 25.875
Q12.4531 15.9219 16.6406 10.9844
Q20.8438 6.0625 26.5625 6.0625
Q32.3281 6.0625 36.3438 10.7656
Q40.375 15.4844 40.375 25.1406
Q40.375 35.7969 36.2656 40.7656
Q32.1719 45.75 26.1719 45.75
Q20.3125 45.75 16.375 40.9688
Q12.4531 36.1875 12.4531 25.875" id="ArialMT-64"/>
    <path d="
M6.20312 -19.9688
L5.21875 -11.7188
Q8.10938 -12.5 10.25 -12.5
Q13.1875 -12.5 14.9375 -11.5156
Q16.7031 -10.5469 17.8281 -8.79688
Q18.6562 -7.46875 20.5156 -2.25
Q20.75 -1.51562 21.2969 -0.09375
L1.60938 51.8594
L11.0781 51.8594
L21.875 21.8281
Q23.9688 16.1094 25.6406 9.8125
Q27.1562 15.875 29.25 21.625
L40.3281 51.8594
L49.125 51.8594
L29.3906 -0.875
Q26.2188 -9.42188 24.4688 -12.6406
Q22.125 -17 19.0938 -19.0156
Q16.0625 -21.0469 11.8594 -21.0469
Q9.32812 -21.0469 6.20312 -19.9688" id="ArialMT-79"/>
    <path d="
M3.07812 15.4844
L11.7656 16.8438
Q12.5 11.625 15.8438 8.84375
Q19.1875 6.0625 25.2031 6.0625
Q31.25 6.0625 34.1719 8.51562
Q37.1094 10.9844 37.1094 14.3125
Q37.1094 17.2812 34.5156 19
Q32.7188 20.1719 25.5312 21.9688
Q15.875 24.4219 12.1406 26.2031
Q8.40625 27.9844 6.46875 31.125
Q4.54688 34.2812 4.54688 38.0938
Q4.54688 41.5469 6.125 44.5
Q7.71875 47.4688 10.4531 49.4219
Q12.5 50.9219 16.0312 51.9688
Q19.5781 53.0312 23.6406 53.0312
Q29.7344 53.0312 34.3438 51.2656
Q38.9688 49.5156 41.1562 46.5
Q43.3594 43.5 44.1875 38.4844
L35.5938 37.3125
Q35.0156 41.3125 32.2031 43.5469
Q29.3906 45.7969 24.2656 45.7969
Q18.2188 45.7969 15.625 43.7969
Q13.0312 41.7969 13.0312 39.1094
Q13.0312 37.4062 14.1094 36.0312
Q15.1875 34.625 17.4844 33.6875
Q18.7969 33.2031 25.25 31.4531
Q34.5781 28.9531 38.25 27.3594
Q41.9375 25.7812 44.0312 22.75
Q46.1406 19.7344 46.1406 15.2344
Q46.1406 10.8438 43.5781 6.95312
Q41.0156 3.07812 36.1719 0.953125
Q31.3438 -1.17188 25.25 -1.17188
Q15.1406 -1.17188 9.84375 3.03125
Q4.54688 7.23438 3.07812 15.4844" id="ArialMT-73"/>
    <path d="
M7.85938 0
L7.85938 71.5781
L39.5938 71.5781
Q49.1719 71.5781 54.1406 69.6406
Q59.125 67.7188 62.1094 62.8281
Q65.0938 57.9531 65.0938 52.0469
Q65.0938 44.4375 60.1562 39.2031
Q55.2188 33.9844 44.9219 32.5625
Q48.6875 30.7656 50.6406 29
Q54.7812 25.2031 58.5 19.4844
L70.9531 0
L59.0312 0
L49.5625 14.8906
Q45.4062 21.3438 42.7188 24.75
Q40.0469 28.1719 37.9219 29.5312
Q35.7969 30.9062 33.5938 31.4531
Q31.9844 31.7812 28.3281 31.7812
L17.3281 31.7812
L17.3281 0
z

M17.3281 39.9844
L37.7031 39.9844
Q44.1875 39.9844 47.8438 41.3281
Q51.5156 42.6719 53.4219 45.625
Q55.3281 48.5781 55.3281 52.0469
Q55.3281 57.125 51.6406 60.3906
Q47.9531 63.6719 39.9844 63.6719
L17.3281 63.6719
z
" id="ArialMT-52"/>
   </defs>
   <g transform="translate(36.33046875 111.54042)scale(0.06 -0.06)">
    <use xlink:href="#ArialMT-52"/>
    <use x="72.216796875" xlink:href="#ArialMT-61"/>
    <use x="127.83203125" xlink:href="#ArialMT-64"/>
    <use x="183.447265625" xlink:href="#ArialMT-69"/>
    <use x="205.6640625" xlink:href="#ArialMT-75"/>
    <use x="261.279296875" xlink:href="#ArialMT-73"/>
    <use x="311.279296875" xlink:href="#ArialMT-20"/>
    <use x="339.0625" xlink:href="#ArialMT-6f"/>
    <use x="394.677734375" xlink:href="#ArialMT-66"/>
    <use x="422.4609375" xlink:href="#ArialMT-20"/>
    <use x="450.244140625" xlink:href="#ArialMT-67"/>
    <use x="505.859375" xlink:href="#ArialMT-79"/>
    <use x="555.859375" xlink:href="#ArialMT-72"/>
    <use x="589.16015625" xlink:href="#ArialMT-61"/>
    <use x="644.775390625" xlink:href="#ArialMT-74"/>
    <use x="672.55859375" xlink:href="#ArialMT-69"/>
    <use x="694.775390625" xlink:href="#ArialMT-6f"/>
    <use x="750.390625" xlink:href="#ArialMT-6e"/>
    <use x="806.005859375" xlink:href="#ArialMT-2c"/>
    <use x="833.7890625" xlink:href="#ArialMT-20"/>
    <use x="861.572265625" xlink:href="#ArialMT-6e"/>
    <use x="917.1875" xlink:href="#ArialMT-6d"/>
   </g>
  </g>
  <g id="text_26">
   <!-- Probability density -->
   <defs>
    <path d="
M7.71875 0
L7.71875 71.5781
L34.7188 71.5781
Q41.8438 71.5781 45.6094 70.9062
Q50.875 70.0156 54.4375 67.5469
Q58.0156 65.0938 60.1875 60.6406
Q62.3594 56.2031 62.3594 50.875
Q62.3594 41.75 56.5469 35.4219
Q50.7344 29.1094 35.5469 29.1094
L17.1875 29.1094
L17.1875 0
z

M17.1875 37.5469
L35.6875 37.5469
Q44.875 37.5469 48.7344 40.9688
Q52.5938 44.3906 52.5938 50.5938
Q52.5938 55.0781 50.3125 58.2656
Q48.0469 61.4688 44.3438 62.5
Q41.9375 63.1406 35.5 63.1406
L17.1875 63.1406
z
" id="ArialMT-50"/>
    <path d="
M14.7031 0
L6.54688 0
L6.54688 71.5781
L15.3281 71.5781
L15.3281 46.0469
Q20.9062 53.0312 29.5469 53.0312
Q34.3281 53.0312 38.5938 51.0938
Q42.875 49.1719 45.625 45.6719
Q48.3906 42.1875 49.9531 37.25
Q51.5156 32.3281 51.5156 26.7031
Q51.5156 13.375 44.9219 6.09375
Q38.3281 -1.17188 29.1094 -1.17188
Q19.9219 -1.17188 14.7031 6.5
z

M14.5938 26.3125
Q14.5938 17 17.1406 12.8438
Q21.2969 6.0625 28.375 6.0625
Q34.125 6.0625 38.3281 11.0625
Q42.5312 16.0625 42.5312 25.9844
Q42.5312 36.1406 38.5 40.9688
Q34.4688 45.7969 28.7656 45.7969
Q23 45.7969 18.7969 40.7969
Q14.5938 35.7969 14.5938 26.3125" id="ArialMT-62"/>
   </defs>
   <g transform="translate(4.6659375 80.83828125)rotate(-90.0)scale(0.06 -0.06)">
    <use xlink:href="#ArialMT-50"/>
    <use x="66.69921875" xlink:href="#ArialMT-72"/>
    <use x="100.0" xlink:href="#ArialMT-6f"/>
    <use x="155.615234375" xlink:href="#ArialMT-62"/>
    <use x="211.23046875" xlink:href="#ArialMT-61"/>
    <use x="266.845703125" xlink:href="#ArialMT-62"/>
    <use x="322.4609375" xlink:href="#ArialMT-69"/>
    <use x="344.677734375" xlink:href="#ArialMT-6c"/>
    <use x="366.89453125" xlink:href="#ArialMT-69"/>
    <use x="389.111328125" xlink:href="#ArialMT-74"/>
    <use x="416.89453125" xlink:href="#ArialMT-79"/>
    <use x="466.89453125" xlink:href="#ArialMT-20"/>
    <use x="494.677734375" xlink:href="#ArialMT-64"/>
    <use x="550.29296875" xlink:href="#ArialMT-65"/>
    <use x="605.908203125" xlink:href="#ArialMT-6e"/>
    <use x="661.5234375" xlink:href="#ArialMT-73"/>
    <use x="711.5234375" xlink:href="#ArialMT-69"/>
    <use x="733.740234375" xlink:href="#ArialMT-74"/>
    <use x="761.5234375" xlink:href="#ArialMT-79"/>
   </g>
  </g>
 </g>
 <defs>
  <clipPath id="p89231e03a9">
   <rect height="31.3834859377" width="38.5638199493" x="25.8" y="20.544"/>
  </clipPath>
  <clipPath id="p239ee18380">
   <rect height="31.3834859377" width="38.5638199493" x="75.6316659883" y="20.544"/>
  </clipPath>
  <clipPath id="p81b3efd916">
   <rect height="31.3834859377" width="38.5638199493" x="75.6316659883" y="63.9274859377"/>
  </clipPath>
  <clipPath id="pb1bf072f2c">
   <rect height="31.3834859377" width="38.5638199493" x="25.8" y="63.9274859377"/>
  </clipPath>
 </defs>
</svg>
