<?xml version="1.0" encoding="utf-8" standalone="no"?>
<!DOCTYPE svg PUBLIC "-//W3C//DTD SVG 1.1//EN"
  "http://www.w3.org/Graphics/SVG/1.1/DTD/svg11.dtd">
<!-- Created with matplotlib (http://matplotlib.org/) -->
<svg height="113pt" version="1.1" viewBox="0 0 126 113" width="126pt" xmlns="http://www.w3.org/2000/svg" xmlns:xlink="http://www.w3.org/1999/xlink">
 <defs>
  <style type="text/css">
*{stroke-linecap:butt;stroke-linejoin:round;}
  </style>
 </defs>
 <g id="figure_1">
  <g id="patch_1">
   <path d="
M0 113.04
L126 113.04
L126 0
L0 0
z
" style="fill:#ffffff;"/>
  </g>
  <g id="axes_1">
   <g id="patch_2">
    <path d="
M24.97 52.792
L65.2738 52.792
L65.2738 20.544
L24.97 20.544
z
" style="fill:#ffffff;"/>
   </g>
   <g id="patch_3">
    <path clip-path="url(#pabbaaf733a)" d="
M26.5821 52.792
L26.5821 52.792
L27.3882 52.792
L27.3882 52.792
L28.1943 52.792
L28.1943 52.792
L29.0004 52.792
L29.0004 52.792
L29.8064 52.792
L29.8064 52.792
L30.6125 52.792
L30.6125 52.792
L31.4186 52.792
L31.4186 52.4973
L32.2247 52.4973
L32.2247 52.35
L33.0307 52.35
L33.0307 49.8453
L33.8368 49.8453
L33.8368 48.9613
L34.6429 48.9613
L34.6429 47.1933
L35.449 47.1933
L35.449 41.5945
L36.255 41.5945
L36.255 41.1525
L37.0611 41.1525
L37.0611 38.5005
L37.8672 38.5005
L37.8672 34.9644
L38.6733 34.9644
L38.6733 35.1118
L39.4794 35.1118
L39.4794 34.5224
L40.2854 34.5224
L40.2854 31.2811
L41.0915 31.2811
L41.0915 37.7638
L41.8976 37.7638
L41.8976 35.1118
L42.7037 35.1118
L42.7037 36.7325
L43.5097 36.7325
L43.5097 39.3845
L44.3158 39.3845
L44.3158 43.3625
L45.1219 43.3625
L45.1219 41.0052
L45.928 41.0052
L45.928 41.0052
L46.734 41.0052
L46.734 44.9832
L47.5401 44.9832
L47.5401 46.6039
L48.3462 46.6039
L48.3462 47.0459
L49.1523 47.0459
L49.1523 47.7826
L49.9583 47.7826
L49.9583 49.256
L50.7644 49.256
L50.7644 50.7293
L51.5705 50.7293
L51.5705 51.6133
L52.3766 51.6133
L52.3766 51.466
L53.1826 51.466
L53.1826 51.466
L53.9887 51.466
L53.9887 51.7607
L54.7948 51.7607
L54.7948 52.35
L55.6009 52.35
L55.6009 52.6447
L56.4069 52.6447
L56.4069 52.4973
L57.213 52.4973
L57.213 52.35
L58.0191 52.35
L58.0191 52.6447
L58.8252 52.6447
L58.8252 52.4973
L59.6312 52.4973
L59.6312 52.792
L60.4373 52.792
L60.4373 52.6447
L61.2434 52.6447
L61.2434 52.792
L62.0495 52.792
L62.0495 52.6447
L62.8555 52.6447
L62.8555 52.792
L63.6616 52.792
L63.6616 52.792
L64.4677 52.792
L64.4677 52.792" style="fill:none;opacity:0.5;stroke:#000000;stroke-linejoin:miter;"/>
   </g>
   <g id="patch_4">
    <path clip-path="url(#pabbaaf733a)" d="
M26.5821 52.792
L26.5821 52.792
L27.3882 52.792
L27.3882 52.792
L28.1943 52.792
L28.1943 52.792
L29.0004 52.792
L29.0004 52.792
L29.8064 52.792
L29.8064 52.792
L30.6125 52.792
L30.6125 52.7868
L31.4186 52.7868
L31.4186 52.5985
L32.2247 52.5985
L32.2247 51.8914
L33.0307 51.8914
L33.0307 50.1857
L33.8368 50.1857
L33.8368 47.7833
L34.6429 47.7833
L34.6429 45.079
L35.449 45.079
L35.449 42.047
L36.255 42.047
L36.255 39.5749
L37.0611 39.5749
L37.0611 37.3815
L37.8672 37.3815
L37.8672 36.001
L38.6733 36.001
L38.6733 35.3068
L39.4794 35.3068
L39.4794 35.0307
L40.2854 35.0307
L40.2854 35.4487
L41.0915 35.4487
L41.0915 36.1971
L41.8976 36.1971
L41.8976 37.3531
L42.7037 37.3531
L42.7037 38.4679
L43.5097 38.4679
L43.5097 39.7813
L44.3158 39.7813
L44.3158 41.1335
L45.1219 41.1335
L45.1219 42.723
L45.928 42.723
L45.928 43.6056
L46.734 43.6056
L46.734 45.2983
L47.5401 45.2983
L47.5401 46.3615
L48.3462 46.3615
L48.3462 47.1331
L49.1523 47.1331
L49.1523 48.1678
L49.9583 48.1678
L49.9583 48.9703
L50.7644 48.9703
L50.7644 49.5767
L51.5705 49.5767
L51.5705 50.2296
L52.3766 50.2296
L52.3766 50.7612
L53.1826 50.7612
L53.1826 51.2773
L53.9887 51.2773
L53.9887 51.5792
L54.7948 51.5792
L54.7948 51.7908
L55.6009 51.7908
L55.6009 52.0024
L56.4069 52.0024
L56.4069 52.1391
L57.213 52.1391
L57.213 52.3817
L58.0191 52.3817
L58.0191 52.4462
L58.8252 52.4462
L58.8252 52.5598
L59.6312 52.5598
L59.6312 52.6165
L60.4373 52.6165
L60.4373 52.663
L61.2434 52.663
L61.2434 52.7068
L62.0495 52.7068
L62.0495 52.7378
L62.8555 52.7378
L62.8555 52.7456
L63.6616 52.7456
L63.6616 52.7585
L64.4677 52.7585
L64.4677 52.792" style="fill:none;stroke:#333333;stroke-linejoin:miter;"/>
   </g>
   <g id="patch_5">
    <path d="
M24.97 52.792
L65.2738 52.792" style="fill:none;stroke:#000000;stroke-linecap:square;stroke-linejoin:miter;stroke-width:0.5;"/>
   </g>
   <g id="patch_6">
    <path d="
M24.97 52.792
L24.97 20.544" style="fill:none;stroke:#000000;stroke-linecap:square;stroke-linejoin:miter;stroke-width:0.5;"/>
   </g>
   <g id="matplotlib.axis_1">
    <g id="xtick_1">
     <g id="line2d_1">
      <defs>
       <path d="
M0 0
L0 -4" id="mc7db9fdffb" style="stroke:#000000;stroke-width:0.5;"/>
      </defs>
      <g>
       <use style="stroke:#000000;stroke-width:0.5;" x="24.97" xlink:href="#mc7db9fdffb" y="52.792"/>
      </g>
     </g>
    </g>
    <g id="xtick_2">
     <g id="line2d_2">
      <g>
       <use style="stroke:#000000;stroke-width:0.5;" x="33.03075" xlink:href="#mc7db9fdffb" y="52.792"/>
      </g>
     </g>
    </g>
    <g id="xtick_3">
     <g id="line2d_3">
      <g>
       <use style="stroke:#000000;stroke-width:0.5;" x="41.0915" xlink:href="#mc7db9fdffb" y="52.792"/>
      </g>
     </g>
    </g>
    <g id="xtick_4">
     <g id="line2d_4">
      <g>
       <use style="stroke:#000000;stroke-width:0.5;" x="49.15225" xlink:href="#mc7db9fdffb" y="52.792"/>
      </g>
     </g>
    </g>
    <g id="xtick_5">
     <g id="line2d_5">
      <g>
       <use style="stroke:#000000;stroke-width:0.5;" x="57.213" xlink:href="#mc7db9fdffb" y="52.792"/>
      </g>
     </g>
    </g>
    <g id="xtick_6">
     <g id="line2d_6">
      <g>
       <use style="stroke:#000000;stroke-width:0.5;" x="65.27375" xlink:href="#mc7db9fdffb" y="52.792"/>
      </g>
     </g>
    </g>
   </g>
   <g id="matplotlib.axis_2">
    <g id="ytick_1">
     <g id="line2d_7">
      <defs>
       <path d="
M0 0
L4 0" id="md7965d1ba0" style="stroke:#000000;stroke-width:0.5;"/>
      </defs>
      <g>
       <use style="stroke:#000000;stroke-width:0.5;" x="24.97" xlink:href="#md7965d1ba0" y="52.792"/>
      </g>
     </g>
     <g id="text_1">
      <!-- 0.000 -->
      <defs>
       <path d="
M9.07812 0
L9.07812 10.0156
L19.0938 10.0156
L19.0938 0
z
" id="ArialMT-2e"/>
       <path d="
M4.15625 35.2969
Q4.15625 48 6.76562 55.7344
Q9.375 63.4844 14.5156 67.6719
Q19.6719 71.875 27.4844 71.875
Q33.25 71.875 37.5938 69.5469
Q41.9375 67.2344 44.7656 62.8594
Q47.6094 58.5 49.2188 52.2188
Q50.8281 45.9531 50.8281 35.2969
Q50.8281 22.7031 48.2344 14.9688
Q45.6562 7.23438 40.5 3
Q35.3594 -1.21875 27.4844 -1.21875
Q17.1406 -1.21875 11.2344 6.20312
Q4.15625 15.1406 4.15625 35.2969
M13.1875 35.2969
Q13.1875 17.6719 17.3125 11.8281
Q21.4375 6 27.4844 6
Q33.5469 6 37.6719 11.8594
Q41.7969 17.7188 41.7969 35.2969
Q41.7969 52.9844 37.6719 58.7812
Q33.5469 64.5938 27.3906 64.5938
Q21.3438 64.5938 17.7188 59.4688
Q13.1875 52.9375 13.1875 35.2969" id="ArialMT-30"/>
      </defs>
      <g transform="translate(6.493125 54.34309375)scale(0.06 -0.06)">
       <use xlink:href="#ArialMT-30"/>
       <use x="55.615234375" xlink:href="#ArialMT-2e"/>
       <use x="83.3984375" xlink:href="#ArialMT-30"/>
       <use x="139.013671875" xlink:href="#ArialMT-30"/>
       <use x="194.62890625" xlink:href="#ArialMT-30"/>
      </g>
     </g>
    </g>
    <g id="ytick_2">
     <g id="line2d_8">
      <g>
       <use style="stroke:#000000;stroke-width:0.5;" x="24.97" xlink:href="#md7965d1ba0" y="46.3424"/>
      </g>
     </g>
     <g id="text_2">
      <!-- 0.005 -->
      <defs>
       <path d="
M4.15625 18.75
L13.375 19.5312
Q14.4062 12.7969 18.1406 9.39062
Q21.875 6 27.1562 6
Q33.5 6 37.8906 10.7812
Q42.2812 15.5781 42.2812 23.4844
Q42.2812 31 38.0625 35.3438
Q33.8438 39.7031 27 39.7031
Q22.75 39.7031 19.3281 37.7656
Q15.9219 35.8438 13.9688 32.7656
L5.71875 33.8438
L12.6406 70.6094
L48.25 70.6094
L48.25 62.2031
L19.6719 62.2031
L15.8281 42.9688
Q22.2656 47.4688 29.3438 47.4688
Q38.7188 47.4688 45.1562 40.9688
Q51.6094 34.4688 51.6094 24.2656
Q51.6094 14.5469 45.9531 7.46875
Q39.0625 -1.21875 27.1562 -1.21875
Q17.3906 -1.21875 11.2031 4.25
Q5.03125 9.71875 4.15625 18.75" id="ArialMT-35"/>
      </defs>
      <g transform="translate(6.44625 47.89349375)scale(0.06 -0.06)">
       <use xlink:href="#ArialMT-30"/>
       <use x="55.615234375" xlink:href="#ArialMT-2e"/>
       <use x="83.3984375" xlink:href="#ArialMT-30"/>
       <use x="139.013671875" xlink:href="#ArialMT-30"/>
       <use x="194.62890625" xlink:href="#ArialMT-35"/>
      </g>
     </g>
    </g>
    <g id="ytick_3">
     <g id="line2d_9">
      <g>
       <use style="stroke:#000000;stroke-width:0.5;" x="24.97" xlink:href="#md7965d1ba0" y="39.8928"/>
      </g>
     </g>
     <g id="text_3">
      <!-- 0.010 -->
      <defs>
       <path d="
M37.25 0
L28.4688 0
L28.4688 56
Q25.2969 52.9844 20.1406 49.9531
Q14.9844 46.9219 10.8906 45.4062
L10.8906 53.9062
Q18.2656 57.375 23.7812 62.2969
Q29.2969 67.2344 31.5938 71.875
L37.25 71.875
z
" id="ArialMT-31"/>
      </defs>
      <g transform="translate(6.493125 41.44389375)scale(0.06 -0.06)">
       <use xlink:href="#ArialMT-30"/>
       <use x="55.615234375" xlink:href="#ArialMT-2e"/>
       <use x="83.3984375" xlink:href="#ArialMT-30"/>
       <use x="139.013671875" xlink:href="#ArialMT-31"/>
       <use x="194.62890625" xlink:href="#ArialMT-30"/>
      </g>
     </g>
    </g>
    <g id="ytick_4">
     <g id="line2d_10">
      <g>
       <use style="stroke:#000000;stroke-width:0.5;" x="24.97" xlink:href="#md7965d1ba0" y="33.4432"/>
      </g>
     </g>
     <g id="text_4">
      <!-- 0.015 -->
      <g transform="translate(6.44625 34.99429375)scale(0.06 -0.06)">
       <use xlink:href="#ArialMT-30"/>
       <use x="55.615234375" xlink:href="#ArialMT-2e"/>
       <use x="83.3984375" xlink:href="#ArialMT-30"/>
       <use x="139.013671875" xlink:href="#ArialMT-31"/>
       <use x="194.62890625" xlink:href="#ArialMT-35"/>
      </g>
     </g>
    </g>
    <g id="ytick_5">
     <g id="line2d_11">
      <g>
       <use style="stroke:#000000;stroke-width:0.5;" x="24.97" xlink:href="#md7965d1ba0" y="26.9936"/>
      </g>
     </g>
     <g id="text_5">
      <!-- 0.020 -->
      <defs>
       <path d="
M50.3438 8.45312
L50.3438 0
L3.03125 0
Q2.9375 3.17188 4.04688 6.10938
Q5.85938 10.9375 9.82812 15.625
Q13.8125 20.3125 21.3438 26.4688
Q33.0156 36.0312 37.1094 41.625
Q41.2188 47.2188 41.2188 52.2031
Q41.2188 57.4219 37.4688 61
Q33.7344 64.5938 27.7344 64.5938
Q21.3906 64.5938 17.5781 60.7812
Q13.7656 56.9844 13.7188 50.25
L4.6875 51.1719
Q5.60938 61.2812 11.6562 66.5781
Q17.7188 71.875 27.9375 71.875
Q38.2344 71.875 44.2344 66.1562
Q50.25 60.4531 50.25 52
Q50.25 47.7031 48.4844 43.5469
Q46.7344 39.4062 42.6562 34.8125
Q38.5781 30.2188 29.1094 22.2188
Q21.1875 15.5781 18.9375 13.2031
Q16.7031 10.8438 15.2344 8.45312
z
" id="ArialMT-32"/>
      </defs>
      <g transform="translate(6.493125 28.54469375)scale(0.06 -0.06)">
       <use xlink:href="#ArialMT-30"/>
       <use x="55.615234375" xlink:href="#ArialMT-2e"/>
       <use x="83.3984375" xlink:href="#ArialMT-30"/>
       <use x="139.013671875" xlink:href="#ArialMT-32"/>
       <use x="194.62890625" xlink:href="#ArialMT-30"/>
      </g>
     </g>
    </g>
    <g id="ytick_6">
     <g id="line2d_12">
      <g>
       <use style="stroke:#000000;stroke-width:0.5;" x="24.97" xlink:href="#md7965d1ba0" y="20.544"/>
      </g>
     </g>
     <g id="text_6">
      <!-- 0.025 -->
      <g transform="translate(6.44625 22.09509375)scale(0.06 -0.06)">
       <use xlink:href="#ArialMT-30"/>
       <use x="55.615234375" xlink:href="#ArialMT-2e"/>
       <use x="83.3984375" xlink:href="#ArialMT-30"/>
       <use x="139.013671875" xlink:href="#ArialMT-32"/>
       <use x="194.62890625" xlink:href="#ArialMT-35"/>
      </g>
     </g>
    </g>
   </g>
   <g id="text_7">
    <!-- c = 35, $\ell_p$ = 40 -->
    <defs>
     <path d="
M32.3281 0
L32.3281 17.1406
L1.26562 17.1406
L1.26562 25.2031
L33.9375 71.5781
L41.1094 71.5781
L41.1094 25.2031
L50.7812 25.2031
L50.7812 17.1406
L41.1094 17.1406
L41.1094 0
z

M32.3281 25.2031
L32.3281 57.4688
L9.90625 25.2031
z
" id="ArialMT-34"/>
     <path d="
M2.39062 7.42188
Q1.95312 7.42188 1.46875 7.95312
Q0.984375 8.5 0.984375 8.98438
Q0.984375 9.8125 9.28125 17.3906
Q9.28125 17.8281 9.25 18.1094
Q9.23438 18.4062 9.1875 18.7031
Q9.1875 23 9.85938 27.4688
Q10.5469 31.9375 11.7344 36.375
Q12.9375 40.8281 14.7344 45.6562
Q16.5469 50.4844 18.4062 54.1094
Q21.625 60.6875 25.4375 65.5938
Q29.25 70.5156 33.8906 70.5156
Q37.0625 70.5156 38.4219 68.3281
Q39.7969 66.1562 39.7969 62.8906
Q39.7969 44.5781 15.4844 19.8281
Q15.0938 15.5312 15.0938 13.7188
Q15.0938 1.21875 20.7969 1.21875
Q23.25 1.21875 25.6562 2.51562
Q28.0781 3.8125 29.8125 5.32812
Q31.5469 6.84375 34.625 9.8125
Q34.8125 10.0156 35.2031 10.0156
Q35.75 10.0156 36.2344 9.42188
Q36.7188 8.84375 36.7188 8.29688
Q36.7188 7.95312 36.2812 7.625
Q31.8438 3.26562 28.2656 0.875
Q24.7031 -1.51562 20.6094 -1.51562
Q15.3281 -1.51562 12.7656 3.01562
Q10.2031 7.5625 9.51562 13.8125
Q6.84375 11.1406 2.98438 7.625
Q2.875 7.42188 2.39062 7.42188
M16.3125 24.6094
Q21.625 30.2812 26.2656 36.5312
Q30.9062 42.7812 34 49.6875
Q37.1094 56.5938 37.1094 63.1875
Q37.1094 67.9219 33.7969 67.9219
Q30.2188 67.9219 26.5 59.3906
Q22.7969 50.875 20.1562 40.9688
Q17.5312 31.0625 16.3125 24.6094" id="Cmmi10-60"/>
     <path d="
M52.8281 42.0938
L5.5625 42.0938
L5.5625 50.2969
L52.8281 50.2969
z

M52.8281 20.3594
L5.5625 20.3594
L5.5625 28.5625
L52.8281 28.5625
z
" id="ArialMT-3d"/>
     <path d="
M8.89062 0
L8.89062 10.0156
L18.8906 10.0156
L18.8906 0
Q18.8906 -5.51562 16.9375 -8.90625
Q14.9844 -12.3125 10.75 -14.1562
L8.29688 -10.4062
Q11.0781 -9.1875 12.3906 -6.8125
Q13.7188 -4.4375 13.875 0
z
" id="ArialMT-2c"/>
     <path d="
M-2.48438 -19.3906
Q-3.42188 -19.3906 -3.42188 -18.1094
Q-3.07812 -15.9219 -2.09375 -15.9219
Q1.03125 -15.9219 2.26562 -15.3594
Q3.51562 -14.7969 4.20312 -12.5
L15.4844 32.5156
Q16.2188 34.375 16.2188 37.3125
Q16.2188 41.6094 13.2812 41.6094
Q10.1562 41.6094 8.64062 37.8594
Q7.125 34.125 5.71875 28.4219
Q5.71875 27.7812 4.89062 27.7812
L3.71875 27.7812
Q3.46875 27.7812 3.17188 28.1406
Q2.875 28.5156 2.875 28.8125
Q3.95312 33.1562 4.95312 36.1719
Q5.95312 39.2031 8.07812 41.6875
Q10.2031 44.1875 13.375 44.1875
Q16.7969 44.1875 19.375 42.25
Q21.9688 40.3281 22.7031 37.0156
Q25.4375 40.1875 28.75 42.1875
Q32.0781 44.1875 35.5938 44.1875
Q39.7969 44.1875 42.8906 41.9375
Q46 39.7031 47.5625 36.0625
Q49.125 32.4219 49.125 28.2188
Q49.125 21.7812 45.8281 14.8906
Q42.5312 8.01562 36.8906 3.4375
Q31.25 -1.125 24.8125 -1.125
Q21.875 -1.125 19.5 0.53125
Q17.1406 2.20312 15.8281 4.89062
L11.2812 -12.8906
Q11.0312 -14.3594 10.9844 -14.5938
Q10.9844 -15.9219 17.5781 -15.9219
Q18.6094 -15.9219 18.6094 -17.1875
Q18.2656 -18.5 18.0469 -18.9375
Q17.8281 -19.3906 16.8906 -19.3906
z

M24.9062 1.51562
Q28.375 1.51562 31.3438 4.375
Q34.3281 7.23438 36.1875 10.7969
Q37.5469 13.4844 38.7344 17.3594
Q39.9375 21.2344 40.8125 25.625
Q41.7031 30.0312 41.7031 32.625
Q41.7031 34.9062 41.0938 36.9062
Q40.4844 38.9219 39.0938 40.2656
Q37.7031 41.6094 35.4062 41.6094
Q31.7344 41.6094 28.4844 38.9844
Q25.25 36.375 22.6094 32.5156
L22.6094 32.1719
L17.0938 10.1094
Q17.7812 6.54688 19.7344 4.03125
Q21.6875 1.51562 24.9062 1.51562" id="Cmmi10-70"/>
     <path id="ArialMT-20"/>
     <path d="
M4.20312 18.8906
L12.9844 20.0625
Q14.5 12.5938 18.1406 9.29688
Q21.7812 6 27 6
Q33.2031 6 37.4688 10.2969
Q41.75 14.5938 41.75 20.9531
Q41.75 27 37.7969 30.9219
Q33.8438 34.8594 27.7344 34.8594
Q25.25 34.8594 21.5312 33.8906
L22.5156 41.6094
Q23.3906 41.5 23.9219 41.5
Q29.5469 41.5 34.0312 44.4219
Q38.5312 47.3594 38.5312 53.4688
Q38.5312 58.2969 35.25 61.4688
Q31.9844 64.6562 26.8125 64.6562
Q21.6875 64.6562 18.2656 61.4219
Q14.8438 58.2031 13.875 51.7656
L5.07812 53.3281
Q6.6875 62.1562 12.3906 67.0156
Q18.1094 71.875 26.6094 71.875
Q32.4688 71.875 37.3906 69.3594
Q42.3281 66.8438 44.9375 62.5
Q47.5625 58.1562 47.5625 53.2656
Q47.5625 48.6406 45.0625 44.8281
Q42.5781 41.0156 37.7031 38.7656
Q44.0469 37.3125 47.5625 32.6875
Q51.0781 28.0781 51.0781 21.1406
Q51.0781 11.7656 44.2344 5.25
Q37.4062 -1.26562 26.9531 -1.26562
Q17.5312 -1.26562 11.2969 4.34375
Q5.07812 9.96875 4.20312 18.8906" id="ArialMT-33"/>
     <path d="
M40.4375 19
L49.0781 17.875
Q47.6562 8.9375 41.8125 3.875
Q35.9844 -1.17188 27.4844 -1.17188
Q16.8438 -1.17188 10.375 5.78125
Q3.90625 12.75 3.90625 25.7344
Q3.90625 34.125 6.6875 40.4219
Q9.46875 46.7344 15.1562 49.875
Q20.8438 53.0312 27.5469 53.0312
Q35.9844 53.0312 41.3594 48.75
Q46.7344 44.4844 48.25 36.625
L39.7031 35.2969
Q38.4844 40.5312 35.375 43.1562
Q32.2812 45.7969 27.875 45.7969
Q21.2344 45.7969 17.0781 41.0312
Q12.9375 36.2812 12.9375 25.9844
Q12.9375 15.5312 16.9375 10.7969
Q20.9531 6.0625 27.3906 6.0625
Q32.5625 6.0625 36.0312 9.23438
Q39.5 12.4062 40.4375 19" id="ArialMT-63"/>
    </defs>
    <g transform="translate(28.1943 24.41376)scale(0.06 -0.06)">
     <use transform="translate(0.0 0.125)" xlink:href="#ArialMT-63"/>
     <use transform="translate(50.0 0.125)" xlink:href="#ArialMT-20"/>
     <use transform="translate(77.783203125 0.125)" xlink:href="#ArialMT-3d"/>
     <use transform="translate(136.181640625 0.125)" xlink:href="#ArialMT-20"/>
     <use transform="translate(163.96484375 0.125)" xlink:href="#ArialMT-33"/>
     <use transform="translate(219.580078125 0.125)" xlink:href="#ArialMT-35"/>
     <use transform="translate(275.1953125 0.125)" xlink:href="#ArialMT-2c"/>
     <use transform="translate(302.978515625 0.125)" xlink:href="#ArialMT-20"/>
     <use transform="translate(330.76171875 0.125)" xlink:href="#Cmmi10-60"/>
     <use transform="translate(372.36328125 -25.384375000000006)scale(0.7)" xlink:href="#Cmmi10-70"/>
     <use transform="translate(422.65625 0.125)" xlink:href="#ArialMT-20"/>
     <use transform="translate(450.439453125 0.125)" xlink:href="#ArialMT-3d"/>
     <use transform="translate(508.837890625 0.125)" xlink:href="#ArialMT-20"/>
     <use transform="translate(536.62109375 0.125)" xlink:href="#ArialMT-34"/>
     <use transform="translate(592.236328125 0.125)" xlink:href="#ArialMT-30"/>
    </g>
   </g>
  </g>
  <g id="axes_2">
   <g id="patch_7">
    <path d="
M74.4463 52.792
L114.75 52.792
L114.75 20.544
L74.4463 20.544
z
" style="fill:#ffffff;"/>
   </g>
   <g id="patch_8">
    <path clip-path="url(#pdb4d0d4188)" d="
M76.0584 52.792
L76.0584 52.792
L76.8645 52.792
L76.8645 52.792
L77.6706 52.792
L77.6706 52.792
L78.4766 52.792
L78.4766 52.792
L79.2827 52.792
L79.2827 52.792
L80.0888 52.792
L80.0888 52.792
L80.8949 52.792
L80.8949 52.4973
L81.7009 52.4973
L81.7009 52.35
L82.507 52.35
L82.507 49.8453
L83.3131 49.8453
L83.3131 48.9613
L84.1192 48.9613
L84.1192 47.1933
L84.9252 47.1933
L84.9252 41.5945
L85.7313 41.5945
L85.7313 41.1525
L86.5374 41.1525
L86.5374 38.5005
L87.3435 38.5005
L87.3435 34.9644
L88.1495 34.9644
L88.1495 35.1118
L88.9556 35.1118
L88.9556 34.5224
L89.7617 34.5224
L89.7617 31.2811
L90.5678 31.2811
L90.5678 37.7638
L91.3738 37.7638
L91.3738 35.1118
L92.1799 35.1118
L92.1799 36.7325
L92.986 36.7325
L92.986 39.3845
L93.7921 39.3845
L93.7921 43.3625
L94.5981 43.3625
L94.5981 41.0052
L95.4042 41.0052
L95.4042 41.0052
L96.2103 41.0052
L96.2103 44.9832
L97.0164 44.9832
L97.0164 46.6039
L97.8224 46.6039
L97.8224 47.0459
L98.6285 47.0459
L98.6285 47.7826
L99.4346 47.7826
L99.4346 49.256
L100.241 49.256
L100.241 50.7293
L101.047 50.7293
L101.047 51.6133
L101.853 51.6133
L101.853 51.466
L102.659 51.466
L102.659 51.466
L103.465 51.466
L103.465 51.7607
L104.271 51.7607
L104.271 52.35
L105.077 52.35
L105.077 52.6447
L105.883 52.6447
L105.883 52.4973
L106.689 52.4973
L106.689 52.35
L107.495 52.35
L107.495 52.6447
L108.301 52.6447
L108.301 52.4973
L109.107 52.4973
L109.107 52.792
L109.914 52.792
L109.914 52.6447
L110.72 52.6447
L110.72 52.792
L111.526 52.792
L111.526 52.6447
L112.332 52.6447
L112.332 52.792
L113.138 52.792
L113.138 52.792
L113.944 52.792
L113.944 52.792" style="fill:none;opacity:0.5;stroke:#000000;stroke-linejoin:miter;"/>
   </g>
   <g id="patch_9">
    <path clip-path="url(#pdb4d0d4188)" d="
M76.0584 52.792
L76.0584 52.792
L76.8645 52.792
L76.8645 52.792
L77.6706 52.792
L77.6706 52.792
L78.4766 52.792
L78.4766 52.792
L79.2827 52.792
L79.2827 52.792
L80.0888 52.792
L80.0888 52.792
L80.8949 52.792
L80.8949 52.761
L81.7009 52.761
L81.7009 52.5159
L82.507 52.5159
L82.507 51.7523
L83.3131 51.7523
L83.3131 49.9773
L84.1192 49.9773
L84.1192 46.6697
L84.9252 46.6697
L84.9252 43.5531
L85.7313 43.5531
L85.7313 41.6981
L86.5374 41.6981
L86.5374 40.9422
L87.3435 40.9422
L87.3435 39.6238
L88.1495 39.6238
L88.1495 39.0717
L88.9556 39.0717
L88.9556 37.9856
L89.7617 37.9856
L89.7617 37.6553
L90.5678 37.6553
L90.5678 38.1584
L91.3738 38.1584
L91.3738 38.2049
L92.1799 38.2049
L92.1799 38.4009
L92.986 38.4009
L92.986 39.0872
L93.7921 39.0872
L93.7921 40.0315
L94.5981 40.0315
L94.5981 40.9654
L95.4042 40.9654
L95.4042 41.9381
L96.2103 41.9381
L96.2103 42.9623
L97.0164 42.9623
L97.0164 44.1775
L97.8224 44.1775
L97.8224 45.0444
L98.6285 45.0444
L98.6285 45.7796
L99.4346 45.7796
L99.4346 46.8194
L100.241 46.8194
L100.241 47.6321
L101.047 47.6321
L101.047 48.2461
L101.853 48.2461
L101.853 48.9272
L102.659 48.9272
L102.659 49.6083
L103.465 49.6083
L103.465 50.2095
L104.271 50.2095
L104.271 50.7022
L105.077 50.7022
L105.077 51.2105
L105.883 51.2105
L105.883 51.6929
L106.689 51.6929
L106.689 51.9741
L107.495 51.9741
L107.495 52.0722
L108.301 52.0722
L108.301 52.374
L109.107 52.374
L109.107 52.5108
L109.914 52.5108
L109.914 52.6088
L110.72 52.6088
L110.72 52.6836
L111.526 52.6836
L111.526 52.7275
L112.332 52.7275
L112.332 52.7559
L113.138 52.7559
L113.138 52.7765
L113.944 52.7765
L113.944 52.792" style="fill:none;stroke:#333333;stroke-linejoin:miter;"/>
   </g>
   <g id="patch_10">
    <path d="
M74.4463 52.792
L114.75 52.792" style="fill:none;stroke:#000000;stroke-linecap:square;stroke-linejoin:miter;stroke-width:0.5;"/>
   </g>
   <g id="patch_11">
    <path d="
M74.4463 52.792
L74.4463 20.544" style="fill:none;stroke:#000000;stroke-linecap:square;stroke-linejoin:miter;stroke-width:0.5;"/>
   </g>
   <g id="matplotlib.axis_3">
    <g id="xtick_7">
     <g id="line2d_13">
      <g>
       <use style="stroke:#000000;stroke-width:0.5;" x="74.44625" xlink:href="#mc7db9fdffb" y="52.792"/>
      </g>
     </g>
    </g>
    <g id="xtick_8">
     <g id="line2d_14">
      <g>
       <use style="stroke:#000000;stroke-width:0.5;" x="82.507" xlink:href="#mc7db9fdffb" y="52.792"/>
      </g>
     </g>
    </g>
    <g id="xtick_9">
     <g id="line2d_15">
      <g>
       <use style="stroke:#000000;stroke-width:0.5;" x="90.56775" xlink:href="#mc7db9fdffb" y="52.792"/>
      </g>
     </g>
    </g>
    <g id="xtick_10">
     <g id="line2d_16">
      <g>
       <use style="stroke:#000000;stroke-width:0.5;" x="98.6285" xlink:href="#mc7db9fdffb" y="52.792"/>
      </g>
     </g>
    </g>
    <g id="xtick_11">
     <g id="line2d_17">
      <g>
       <use style="stroke:#000000;stroke-width:0.5;" x="106.68925" xlink:href="#mc7db9fdffb" y="52.792"/>
      </g>
     </g>
    </g>
    <g id="xtick_12">
     <g id="line2d_18">
      <g>
       <use style="stroke:#000000;stroke-width:0.5;" x="114.75" xlink:href="#mc7db9fdffb" y="52.792"/>
      </g>
     </g>
    </g>
   </g>
   <g id="matplotlib.axis_4">
    <g id="ytick_7">
     <g id="line2d_19">
      <g>
       <use style="stroke:#000000;stroke-width:0.5;" x="74.44625" xlink:href="#md7965d1ba0" y="52.792"/>
      </g>
     </g>
    </g>
    <g id="ytick_8">
     <g id="line2d_20">
      <g>
       <use style="stroke:#000000;stroke-width:0.5;" x="74.44625" xlink:href="#md7965d1ba0" y="46.3424"/>
      </g>
     </g>
    </g>
    <g id="ytick_9">
     <g id="line2d_21">
      <g>
       <use style="stroke:#000000;stroke-width:0.5;" x="74.44625" xlink:href="#md7965d1ba0" y="39.8928"/>
      </g>
     </g>
    </g>
    <g id="ytick_10">
     <g id="line2d_22">
      <g>
       <use style="stroke:#000000;stroke-width:0.5;" x="74.44625" xlink:href="#md7965d1ba0" y="33.4432"/>
      </g>
     </g>
    </g>
    <g id="ytick_11">
     <g id="line2d_23">
      <g>
       <use style="stroke:#000000;stroke-width:0.5;" x="74.44625" xlink:href="#md7965d1ba0" y="26.9936"/>
      </g>
     </g>
    </g>
    <g id="ytick_12">
     <g id="line2d_24">
      <g>
       <use style="stroke:#000000;stroke-width:0.5;" x="74.44625" xlink:href="#md7965d1ba0" y="20.544"/>
      </g>
     </g>
    </g>
   </g>
   <g id="text_8">
    <!-- c = 55, $\ell_p$ = 100 -->
    <g transform="translate(77.67055 24.41376)scale(0.06 -0.06)">
     <use transform="translate(0.0 0.125)" xlink:href="#ArialMT-63"/>
     <use transform="translate(50.0 0.125)" xlink:href="#ArialMT-20"/>
     <use transform="translate(77.783203125 0.125)" xlink:href="#ArialMT-3d"/>
     <use transform="translate(136.181640625 0.125)" xlink:href="#ArialMT-20"/>
     <use transform="translate(163.96484375 0.125)" xlink:href="#ArialMT-35"/>
     <use transform="translate(219.580078125 0.125)" xlink:href="#ArialMT-35"/>
     <use transform="translate(275.1953125 0.125)" xlink:href="#ArialMT-2c"/>
     <use transform="translate(302.978515625 0.125)" xlink:href="#ArialMT-20"/>
     <use transform="translate(330.76171875 0.125)" xlink:href="#Cmmi10-60"/>
     <use transform="translate(372.36328125 -25.384375000000006)scale(0.7)" xlink:href="#Cmmi10-70"/>
     <use transform="translate(422.65625 0.125)" xlink:href="#ArialMT-20"/>
     <use transform="translate(450.439453125 0.125)" xlink:href="#ArialMT-3d"/>
     <use transform="translate(508.837890625 0.125)" xlink:href="#ArialMT-20"/>
     <use transform="translate(536.62109375 0.125)" xlink:href="#ArialMT-31"/>
     <use transform="translate(592.236328125 0.125)" xlink:href="#ArialMT-30"/>
     <use transform="translate(647.8515625 0.125)" xlink:href="#ArialMT-30"/>
    </g>
   </g>
  </g>
  <g id="axes_3">
   <g id="patch_12">
    <path d="
M24.97 97.04
L65.2738 97.04
L65.2738 64.792
L24.97 64.792
z
" style="fill:#ffffff;"/>
   </g>
   <g id="patch_13">
    <path clip-path="url(#p7943227483)" d="
M26.5821 97.04
L26.5821 97.04
L27.3882 97.04
L27.3882 97.04
L28.1943 97.04
L28.1943 97.04
L29.0004 97.04
L29.0004 97.04
L29.8064 97.04
L29.8064 97.04
L30.6125 97.04
L30.6125 97.04
L31.4186 97.04
L31.4186 96.7453
L32.2247 96.7453
L32.2247 96.598
L33.0307 96.598
L33.0307 94.0933
L33.8368 94.0933
L33.8368 93.2093
L34.6429 93.2093
L34.6429 91.4413
L35.449 91.4413
L35.449 85.8425
L36.255 85.8425
L36.255 85.4005
L37.0611 85.4005
L37.0611 82.7485
L37.8672 82.7485
L37.8672 79.2124
L38.6733 79.2124
L38.6733 79.3598
L39.4794 79.3598
L39.4794 78.7704
L40.2854 78.7704
L40.2854 75.5291
L41.0915 75.5291
L41.0915 82.0118
L41.8976 82.0118
L41.8976 79.3598
L42.7037 79.3598
L42.7037 80.9805
L43.5097 80.9805
L43.5097 83.6325
L44.3158 83.6325
L44.3158 87.6105
L45.1219 87.6105
L45.1219 85.2532
L45.928 85.2532
L45.928 85.2532
L46.734 85.2532
L46.734 89.2312
L47.5401 89.2312
L47.5401 90.8519
L48.3462 90.8519
L48.3462 91.2939
L49.1523 91.2939
L49.1523 92.0306
L49.9583 92.0306
L49.9583 93.504
L50.7644 93.504
L50.7644 94.9773
L51.5705 94.9773
L51.5705 95.8613
L52.3766 95.8613
L52.3766 95.714
L53.1826 95.714
L53.1826 95.714
L53.9887 95.714
L53.9887 96.0087
L54.7948 96.0087
L54.7948 96.598
L55.6009 96.598
L55.6009 96.8927
L56.4069 96.8927
L56.4069 96.7453
L57.213 96.7453
L57.213 96.598
L58.0191 96.598
L58.0191 96.8927
L58.8252 96.8927
L58.8252 96.7453
L59.6312 96.7453
L59.6312 97.04
L60.4373 97.04
L60.4373 96.8927
L61.2434 96.8927
L61.2434 97.04
L62.0495 97.04
L62.0495 96.8927
L62.8555 96.8927
L62.8555 97.04
L63.6616 97.04
L63.6616 97.04
L64.4677 97.04
L64.4677 97.04" style="fill:none;opacity:0.5;stroke:#000000;stroke-linejoin:miter;"/>
   </g>
   <g id="patch_14">
    <path clip-path="url(#p7943227483)" d="
M26.5821 97.04
L26.5821 97.04
L27.3882 97.04
L27.3882 97.04
L28.1943 97.04
L28.1943 97.04
L29.0004 97.04
L29.0004 97.04
L29.8064 97.04
L29.8064 97.04
L30.6125 97.04
L30.6125 97.04
L31.4186 97.04
L31.4186 97.04
L32.2247 97.04
L32.2247 97.0373
L33.0307 97.0373
L33.0307 96.9891
L33.8368 96.9891
L33.8368 96.8713
L34.6429 96.8713
L34.6429 96.5713
L35.449 96.5713
L35.449 96.0598
L36.255 96.0598
L36.255 95.2322
L37.0611 95.2322
L37.0611 94.2252
L37.8672 94.2252
L37.8672 93.0388
L38.6733 93.0388
L38.6733 91.5443
L39.4794 91.5443
L39.4794 90.1302
L40.2854 90.1302
L40.2854 88.7965
L41.0915 88.7965
L41.0915 87.6689
L41.8976 87.6689
L41.8976 86.9672
L42.7037 86.9672
L42.7037 86.3593
L43.5097 86.3593
L43.5097 85.8772
L44.3158 85.8772
L44.3158 85.355
L45.1219 85.355
L45.1219 85.0202
L45.928 85.0202
L45.928 85.2907
L46.734 85.2907
L46.734 85.1648
L47.5401 85.1648
L47.5401 85.3496
L48.3462 85.3496
L48.3462 85.6067
L49.1523 85.6067
L49.1523 86.1102
L49.9583 86.1102
L49.9583 86.678
L50.7644 86.678
L50.7644 87.1038
L51.5705 87.1038
L51.5705 87.7359
L52.3766 87.7359
L52.3766 88.1242
L53.1826 88.1242
L53.1826 88.7242
L53.9887 88.7242
L53.9887 89.6401
L54.7948 89.6401
L54.7948 89.9856
L55.6009 89.9856
L55.6009 90.5909
L56.4069 90.5909
L56.4069 91.3568
L57.213 91.3568
L57.213 91.5979
L58.0191 91.5979
L58.0191 92.4254
L58.8252 92.4254
L58.8252 92.9048
L59.6312 92.9048
L59.6312 93.3146
L60.4373 93.3146
L60.4373 93.7619
L61.2434 93.7619
L61.2434 94.1154
L62.0495 94.1154
L62.0495 94.3912
L62.8555 94.3912
L62.8555 94.801
L63.6616 94.801
L63.6616 95.0983
L64.4677 95.0983
L64.4677 97.04" style="fill:none;stroke:#333333;stroke-linejoin:miter;"/>
   </g>
   <g id="patch_15">
    <path d="
M24.97 97.04
L65.2738 97.04" style="fill:none;stroke:#000000;stroke-linecap:square;stroke-linejoin:miter;stroke-width:0.5;"/>
   </g>
   <g id="patch_16">
    <path d="
M24.97 97.04
L24.97 64.792" style="fill:none;stroke:#000000;stroke-linecap:square;stroke-linejoin:miter;stroke-width:0.5;"/>
   </g>
   <g id="matplotlib.axis_5">
    <g id="xtick_13">
     <g id="line2d_25">
      <g>
       <use style="stroke:#000000;stroke-width:0.5;" x="24.97" xlink:href="#mc7db9fdffb" y="97.04"/>
      </g>
     </g>
     <g id="text_9">
      <!-- 0 -->
      <g transform="translate(23.56984375 105.3346875)scale(0.06 -0.06)">
       <use xlink:href="#ArialMT-30"/>
      </g>
     </g>
    </g>
    <g id="xtick_14">
     <g id="line2d_26">
      <g>
       <use style="stroke:#000000;stroke-width:0.5;" x="33.03075" xlink:href="#mc7db9fdffb" y="97.04"/>
      </g>
     </g>
     <g id="text_10">
      <!-- 50 -->
      <g transform="translate(29.9623125 105.3346875)scale(0.06 -0.06)">
       <use xlink:href="#ArialMT-35"/>
       <use x="55.615234375" xlink:href="#ArialMT-30"/>
      </g>
     </g>
    </g>
    <g id="xtick_15">
     <g id="line2d_27">
      <g>
       <use style="stroke:#000000;stroke-width:0.5;" x="41.0915" xlink:href="#mc7db9fdffb" y="97.04"/>
      </g>
     </g>
     <g id="text_11">
      <!-- 100 -->
      <g transform="translate(36.5568125 105.3346875)scale(0.06 -0.06)">
       <use xlink:href="#ArialMT-31"/>
       <use x="55.615234375" xlink:href="#ArialMT-30"/>
       <use x="111.23046875" xlink:href="#ArialMT-30"/>
      </g>
     </g>
    </g>
    <g id="xtick_16">
     <g id="line2d_28">
      <g>
       <use style="stroke:#000000;stroke-width:0.5;" x="49.15225" xlink:href="#mc7db9fdffb" y="97.04"/>
      </g>
     </g>
     <g id="text_12">
      <!-- 150 -->
      <g transform="translate(44.6175625 105.3346875)scale(0.06 -0.06)">
       <use xlink:href="#ArialMT-31"/>
       <use x="55.615234375" xlink:href="#ArialMT-35"/>
       <use x="111.23046875" xlink:href="#ArialMT-30"/>
      </g>
     </g>
    </g>
    <g id="xtick_17">
     <g id="line2d_29">
      <g>
       <use style="stroke:#000000;stroke-width:0.5;" x="57.213" xlink:href="#mc7db9fdffb" y="97.04"/>
      </g>
     </g>
     <g id="text_13">
      <!-- 200 -->
      <g transform="translate(52.43971875 105.3346875)scale(0.06 -0.06)">
       <use xlink:href="#ArialMT-32"/>
       <use x="55.615234375" xlink:href="#ArialMT-30"/>
       <use x="111.23046875" xlink:href="#ArialMT-30"/>
      </g>
     </g>
    </g>
    <g id="xtick_18">
     <g id="line2d_30">
      <g>
       <use style="stroke:#000000;stroke-width:0.5;" x="65.27375" xlink:href="#mc7db9fdffb" y="97.04"/>
      </g>
     </g>
     <g id="text_14">
      <!-- 250 -->
      <g transform="translate(60.50046875 105.3346875)scale(0.06 -0.06)">
       <use xlink:href="#ArialMT-32"/>
       <use x="55.615234375" xlink:href="#ArialMT-35"/>
       <use x="111.23046875" xlink:href="#ArialMT-30"/>
      </g>
     </g>
    </g>
   </g>
   <g id="matplotlib.axis_6">
    <g id="ytick_13">
     <g id="line2d_31">
      <g>
       <use style="stroke:#000000;stroke-width:0.5;" x="24.97" xlink:href="#md7965d1ba0" y="97.04"/>
      </g>
     </g>
     <g id="text_15">
      <!-- 0.000 -->
      <g transform="translate(6.493125 98.59109375)scale(0.06 -0.06)">
       <use xlink:href="#ArialMT-30"/>
       <use x="55.615234375" xlink:href="#ArialMT-2e"/>
       <use x="83.3984375" xlink:href="#ArialMT-30"/>
       <use x="139.013671875" xlink:href="#ArialMT-30"/>
       <use x="194.62890625" xlink:href="#ArialMT-30"/>
      </g>
     </g>
    </g>
    <g id="ytick_14">
     <g id="line2d_32">
      <g>
       <use style="stroke:#000000;stroke-width:0.5;" x="24.97" xlink:href="#md7965d1ba0" y="90.5904"/>
      </g>
     </g>
     <g id="text_16">
      <!-- 0.005 -->
      <g transform="translate(6.44625 92.14149375)scale(0.06 -0.06)">
       <use xlink:href="#ArialMT-30"/>
       <use x="55.615234375" xlink:href="#ArialMT-2e"/>
       <use x="83.3984375" xlink:href="#ArialMT-30"/>
       <use x="139.013671875" xlink:href="#ArialMT-30"/>
       <use x="194.62890625" xlink:href="#ArialMT-35"/>
      </g>
     </g>
    </g>
    <g id="ytick_15">
     <g id="line2d_33">
      <g>
       <use style="stroke:#000000;stroke-width:0.5;" x="24.97" xlink:href="#md7965d1ba0" y="84.1408"/>
      </g>
     </g>
     <g id="text_17">
      <!-- 0.010 -->
      <g transform="translate(6.493125 85.69189375)scale(0.06 -0.06)">
       <use xlink:href="#ArialMT-30"/>
       <use x="55.615234375" xlink:href="#ArialMT-2e"/>
       <use x="83.3984375" xlink:href="#ArialMT-30"/>
       <use x="139.013671875" xlink:href="#ArialMT-31"/>
       <use x="194.62890625" xlink:href="#ArialMT-30"/>
      </g>
     </g>
    </g>
    <g id="ytick_16">
     <g id="line2d_34">
      <g>
       <use style="stroke:#000000;stroke-width:0.5;" x="24.97" xlink:href="#md7965d1ba0" y="77.6912"/>
      </g>
     </g>
     <g id="text_18">
      <!-- 0.015 -->
      <g transform="translate(6.44625 79.24229375)scale(0.06 -0.06)">
       <use xlink:href="#ArialMT-30"/>
       <use x="55.615234375" xlink:href="#ArialMT-2e"/>
       <use x="83.3984375" xlink:href="#ArialMT-30"/>
       <use x="139.013671875" xlink:href="#ArialMT-31"/>
       <use x="194.62890625" xlink:href="#ArialMT-35"/>
      </g>
     </g>
    </g>
    <g id="ytick_17">
     <g id="line2d_35">
      <g>
       <use style="stroke:#000000;stroke-width:0.5;" x="24.97" xlink:href="#md7965d1ba0" y="71.2416"/>
      </g>
     </g>
     <g id="text_19">
      <!-- 0.020 -->
      <g transform="translate(6.493125 72.79269375)scale(0.06 -0.06)">
       <use xlink:href="#ArialMT-30"/>
       <use x="55.615234375" xlink:href="#ArialMT-2e"/>
       <use x="83.3984375" xlink:href="#ArialMT-30"/>
       <use x="139.013671875" xlink:href="#ArialMT-32"/>
       <use x="194.62890625" xlink:href="#ArialMT-30"/>
      </g>
     </g>
    </g>
    <g id="ytick_18">
     <g id="line2d_36">
      <g>
       <use style="stroke:#000000;stroke-width:0.5;" x="24.97" xlink:href="#md7965d1ba0" y="64.792"/>
      </g>
     </g>
     <g id="text_20">
      <!-- 0.025 -->
      <g transform="translate(6.44625 66.34309375)scale(0.06 -0.06)">
       <use xlink:href="#ArialMT-30"/>
       <use x="55.615234375" xlink:href="#ArialMT-2e"/>
       <use x="83.3984375" xlink:href="#ArialMT-30"/>
       <use x="139.013671875" xlink:href="#ArialMT-32"/>
       <use x="194.62890625" xlink:href="#ArialMT-35"/>
      </g>
     </g>
    </g>
   </g>
   <g id="text_21">
    <!-- c = 30, $\ell_p$ = 80 -->
    <defs>
     <path d="
M17.6719 38.8125
Q12.2031 40.8281 9.5625 44.5312
Q6.9375 48.25 6.9375 53.4219
Q6.9375 61.2344 12.5469 66.5469
Q18.1719 71.875 27.4844 71.875
Q36.8594 71.875 42.5781 66.4219
Q48.2969 60.9844 48.2969 53.1719
Q48.2969 48.1875 45.6719 44.5
Q43.0625 40.8281 37.75 38.8125
Q44.3438 36.6719 47.7812 31.875
Q51.2188 27.0938 51.2188 20.4531
Q51.2188 11.2812 44.7188 5.03125
Q38.2344 -1.21875 27.6406 -1.21875
Q17.0469 -1.21875 10.5469 5.04688
Q4.04688 11.3281 4.04688 20.7031
Q4.04688 27.6875 7.59375 32.3906
Q11.1406 37.1094 17.6719 38.8125
M15.9219 53.7188
Q15.9219 48.6406 19.1875 45.4062
Q22.4688 42.1875 27.6875 42.1875
Q32.7656 42.1875 36.0156 45.375
Q39.2656 48.5781 39.2656 53.2188
Q39.2656 58.0625 35.9062 61.3594
Q32.5625 64.6562 27.5938 64.6562
Q22.5625 64.6562 19.2344 61.4219
Q15.9219 58.2031 15.9219 53.7188
M13.0938 20.6562
Q13.0938 16.8906 14.875 13.375
Q16.6562 9.85938 20.1719 7.92188
Q23.6875 6 27.7344 6
Q34.0312 6 38.125 10.0469
Q42.2344 14.1094 42.2344 20.3594
Q42.2344 26.7031 38.0156 30.8594
Q33.7969 35.0156 27.4375 35.0156
Q21.2344 35.0156 17.1562 30.9062
Q13.0938 26.8125 13.0938 20.6562" id="ArialMT-38"/>
    </defs>
    <g transform="translate(28.1943 68.66176)scale(0.06 -0.06)">
     <use transform="translate(0.0 0.125)" xlink:href="#ArialMT-63"/>
     <use transform="translate(50.0 0.125)" xlink:href="#ArialMT-20"/>
     <use transform="translate(77.783203125 0.125)" xlink:href="#ArialMT-3d"/>
     <use transform="translate(136.181640625 0.125)" xlink:href="#ArialMT-20"/>
     <use transform="translate(163.96484375 0.125)" xlink:href="#ArialMT-33"/>
     <use transform="translate(219.580078125 0.125)" xlink:href="#ArialMT-30"/>
     <use transform="translate(275.1953125 0.125)" xlink:href="#ArialMT-2c"/>
     <use transform="translate(302.978515625 0.125)" xlink:href="#ArialMT-20"/>
     <use transform="translate(330.76171875 0.125)" xlink:href="#Cmmi10-60"/>
     <use transform="translate(372.36328125 -25.384375000000006)scale(0.7)" xlink:href="#Cmmi10-70"/>
     <use transform="translate(422.65625 0.125)" xlink:href="#ArialMT-20"/>
     <use transform="translate(450.439453125 0.125)" xlink:href="#ArialMT-3d"/>
     <use transform="translate(508.837890625 0.125)" xlink:href="#ArialMT-20"/>
     <use transform="translate(536.62109375 0.125)" xlink:href="#ArialMT-38"/>
     <use transform="translate(592.236328125 0.125)" xlink:href="#ArialMT-30"/>
    </g>
   </g>
  </g>
  <g id="axes_4">
   <g id="patch_17">
    <path d="
M74.4463 97.04
L114.75 97.04
L114.75 64.792
L74.4463 64.792
z
" style="fill:#ffffff;"/>
   </g>
   <g id="patch_18">
    <path clip-path="url(#p039a159d82)" d="
M76.0584 97.04
L76.0584 97.04
L76.8645 97.04
L76.8645 97.04
L77.6706 97.04
L77.6706 97.04
L78.4766 97.04
L78.4766 97.04
L79.2827 97.04
L79.2827 97.04
L80.0888 97.04
L80.0888 97.04
L80.8949 97.04
L80.8949 96.7453
L81.7009 96.7453
L81.7009 96.598
L82.507 96.598
L82.507 94.0933
L83.3131 94.0933
L83.3131 93.2093
L84.1192 93.2093
L84.1192 91.4413
L84.9252 91.4413
L84.9252 85.8425
L85.7313 85.8425
L85.7313 85.4005
L86.5374 85.4005
L86.5374 82.7485
L87.3435 82.7485
L87.3435 79.2124
L88.1495 79.2124
L88.1495 79.3598
L88.9556 79.3598
L88.9556 78.7704
L89.7617 78.7704
L89.7617 75.5291
L90.5678 75.5291
L90.5678 82.0118
L91.3738 82.0118
L91.3738 79.3598
L92.1799 79.3598
L92.1799 80.9805
L92.986 80.9805
L92.986 83.6325
L93.7921 83.6325
L93.7921 87.6105
L94.5981 87.6105
L94.5981 85.2532
L95.4042 85.2532
L95.4042 85.2532
L96.2103 85.2532
L96.2103 89.2312
L97.0164 89.2312
L97.0164 90.8519
L97.8224 90.8519
L97.8224 91.2939
L98.6285 91.2939
L98.6285 92.0306
L99.4346 92.0306
L99.4346 93.504
L100.241 93.504
L100.241 94.9773
L101.047 94.9773
L101.047 95.8613
L101.853 95.8613
L101.853 95.714
L102.659 95.714
L102.659 95.714
L103.465 95.714
L103.465 96.0087
L104.271 96.0087
L104.271 96.598
L105.077 96.598
L105.077 96.8927
L105.883 96.8927
L105.883 96.7453
L106.689 96.7453
L106.689 96.598
L107.495 96.598
L107.495 96.8927
L108.301 96.8927
L108.301 96.7453
L109.107 96.7453
L109.107 97.04
L109.914 97.04
L109.914 96.8927
L110.72 96.8927
L110.72 97.04
L111.526 97.04
L111.526 96.8927
L112.332 96.8927
L112.332 97.04
L113.138 97.04
L113.138 97.04
L113.944 97.04
L113.944 97.04" style="fill:none;opacity:0.5;stroke:#000000;stroke-linejoin:miter;"/>
   </g>
   <g id="patch_19">
    <path clip-path="url(#p039a159d82)" d="
M76.0584 97.04
L76.0584 97.04
L76.8645 97.04
L76.8645 97.04
L77.6706 97.04
L77.6706 97.04
L78.4766 97.04
L78.4766 97.04
L79.2827 97.04
L79.2827 97.04
L80.0888 97.04
L80.0888 96.9033
L80.8949 96.9033
L80.8949 95.6624
L81.7009 95.6624
L81.7009 90.1828
L82.507 90.1828
L82.507 84.0608
L83.3131 84.0608
L83.3131 82.0124
L84.1192 82.0124
L84.1192 79.8144
L84.9252 79.8144
L84.9252 77.6964
L85.7313 77.6964
L85.7313 77.0927
L86.5374 77.0927
L86.5374 77.0333
L87.3435 77.0333
L87.3435 77.4771
L88.1495 77.4771
L88.1495 78.4239
L88.9556 78.4239
L88.9556 79.7035
L89.7617 79.7035
L89.7617 80.8489
L90.5678 80.8489
L90.5678 83.0882
L91.3738 83.0882
L91.3738 84.9431
L92.1799 84.9431
L92.1799 86.4369
L92.986 86.4369
L92.986 88.3614
L93.7921 88.3614
L93.7921 89.5972
L94.5981 89.5972
L94.5981 91.1992
L95.4042 91.1992
L95.4042 92.1925
L96.2103 92.1925
L96.2103 93.4127
L97.0164 93.4127
L97.0164 94.5943
L97.8224 94.5943
L97.8224 95.3992
L98.6285 95.3992
L98.6285 95.9848
L99.4346 95.9848
L99.4346 96.3434
L100.241 96.3434
L100.241 96.7588
L101.047 96.7588
L101.047 96.9368
L101.853 96.9368
L101.853 96.9884
L102.659 96.9884
L102.659 97.0271
L103.465 97.0271
L103.465 97.04
L104.271 97.04
L104.271 97.04
L105.077 97.04
L105.077 97.04
L105.883 97.04
L105.883 97.04
L106.689 97.04
L106.689 97.04
L107.495 97.04
L107.495 97.04
L108.301 97.04
L108.301 97.04
L109.107 97.04
L109.107 97.04
L109.914 97.04
L109.914 97.04
L110.72 97.04
L110.72 97.04
L111.526 97.04
L111.526 97.04
L112.332 97.04
L112.332 97.04
L113.138 97.04
L113.138 97.04
L113.944 97.04
L113.944 97.04" style="fill:none;stroke:#333333;stroke-linejoin:miter;"/>
   </g>
   <g id="patch_20">
    <path d="
M74.4463 97.04
L114.75 97.04" style="fill:none;stroke:#000000;stroke-linecap:square;stroke-linejoin:miter;stroke-width:0.5;"/>
   </g>
   <g id="patch_21">
    <path d="
M74.4463 97.04
L74.4463 64.792" style="fill:none;stroke:#000000;stroke-linecap:square;stroke-linejoin:miter;stroke-width:0.5;"/>
   </g>
   <g id="matplotlib.axis_7">
    <g id="xtick_19">
     <g id="line2d_37">
      <g>
       <use style="stroke:#000000;stroke-width:0.5;" x="74.44625" xlink:href="#mc7db9fdffb" y="97.04"/>
      </g>
     </g>
     <g id="text_22">
      <!-- 0 -->
      <g transform="translate(73.04609375 105.3346875)scale(0.06 -0.06)">
       <use xlink:href="#ArialMT-30"/>
      </g>
     </g>
    </g>
    <g id="xtick_20">
     <g id="line2d_38">
      <g>
       <use style="stroke:#000000;stroke-width:0.5;" x="82.507" xlink:href="#mc7db9fdffb" y="97.04"/>
      </g>
     </g>
     <g id="text_23">
      <!-- 50 -->
      <g transform="translate(79.4385625 105.3346875)scale(0.06 -0.06)">
       <use xlink:href="#ArialMT-35"/>
       <use x="55.615234375" xlink:href="#ArialMT-30"/>
      </g>
     </g>
    </g>
    <g id="xtick_21">
     <g id="line2d_39">
      <g>
       <use style="stroke:#000000;stroke-width:0.5;" x="90.56775" xlink:href="#mc7db9fdffb" y="97.04"/>
      </g>
     </g>
     <g id="text_24">
      <!-- 100 -->
      <g transform="translate(86.0330625 105.3346875)scale(0.06 -0.06)">
       <use xlink:href="#ArialMT-31"/>
       <use x="55.615234375" xlink:href="#ArialMT-30"/>
       <use x="111.23046875" xlink:href="#ArialMT-30"/>
      </g>
     </g>
    </g>
    <g id="xtick_22">
     <g id="line2d_40">
      <g>
       <use style="stroke:#000000;stroke-width:0.5;" x="98.6285" xlink:href="#mc7db9fdffb" y="97.04"/>
      </g>
     </g>
     <g id="text_25">
      <!-- 150 -->
      <g transform="translate(94.0938125 105.3346875)scale(0.06 -0.06)">
       <use xlink:href="#ArialMT-31"/>
       <use x="55.615234375" xlink:href="#ArialMT-35"/>
       <use x="111.23046875" xlink:href="#ArialMT-30"/>
      </g>
     </g>
    </g>
    <g id="xtick_23">
     <g id="line2d_41">
      <g>
       <use style="stroke:#000000;stroke-width:0.5;" x="106.68925" xlink:href="#mc7db9fdffb" y="97.04"/>
      </g>
     </g>
     <g id="text_26">
      <!-- 200 -->
      <g transform="translate(101.91596875 105.3346875)scale(0.06 -0.06)">
       <use xlink:href="#ArialMT-32"/>
       <use x="55.615234375" xlink:href="#ArialMT-30"/>
       <use x="111.23046875" xlink:href="#ArialMT-30"/>
      </g>
     </g>
    </g>
    <g id="xtick_24">
     <g id="line2d_42">
      <g>
       <use style="stroke:#000000;stroke-width:0.5;" x="114.75" xlink:href="#mc7db9fdffb" y="97.04"/>
      </g>
     </g>
     <g id="text_27">
      <!-- 250 -->
      <g transform="translate(109.97671875 105.3346875)scale(0.06 -0.06)">
       <use xlink:href="#ArialMT-32"/>
       <use x="55.615234375" xlink:href="#ArialMT-35"/>
       <use x="111.23046875" xlink:href="#ArialMT-30"/>
      </g>
     </g>
    </g>
   </g>
   <g id="matplotlib.axis_8">
    <g id="ytick_19">
     <g id="line2d_43">
      <g>
       <use style="stroke:#000000;stroke-width:0.5;" x="74.44625" xlink:href="#md7965d1ba0" y="97.04"/>
      </g>
     </g>
    </g>
    <g id="ytick_20">
     <g id="line2d_44">
      <g>
       <use style="stroke:#000000;stroke-width:0.5;" x="74.44625" xlink:href="#md7965d1ba0" y="90.5904"/>
      </g>
     </g>
    </g>
    <g id="ytick_21">
     <g id="line2d_45">
      <g>
       <use style="stroke:#000000;stroke-width:0.5;" x="74.44625" xlink:href="#md7965d1ba0" y="84.1408"/>
      </g>
     </g>
    </g>
    <g id="ytick_22">
     <g id="line2d_46">
      <g>
       <use style="stroke:#000000;stroke-width:0.5;" x="74.44625" xlink:href="#md7965d1ba0" y="77.6912"/>
      </g>
     </g>
    </g>
    <g id="ytick_23">
     <g id="line2d_47">
      <g>
       <use style="stroke:#000000;stroke-width:0.5;" x="74.44625" xlink:href="#md7965d1ba0" y="71.2416"/>
      </g>
     </g>
    </g>
    <g id="ytick_24">
     <g id="line2d_48">
      <g>
       <use style="stroke:#000000;stroke-width:0.5;" x="74.44625" xlink:href="#md7965d1ba0" y="64.792"/>
      </g>
     </g>
    </g>
   </g>
   <g id="text_28">
    <!-- c = 80, $\ell_p$ = 90 -->
    <defs>
     <path d="
M5.46875 16.5469
L13.9219 17.3281
Q14.9844 11.375 18.0156 8.6875
Q21.0469 6 25.7812 6
Q29.8281 6 32.875 7.85938
Q35.9375 9.71875 37.8906 12.8125
Q39.8438 15.9219 41.1562 21.1875
Q42.4844 26.4688 42.4844 31.9375
Q42.4844 32.5156 42.4375 33.6875
Q39.7969 29.5 35.2344 26.875
Q30.6719 24.2656 25.3438 24.2656
Q16.4531 24.2656 10.2969 30.7031
Q4.15625 37.1562 4.15625 47.7031
Q4.15625 58.5938 10.5781 65.2344
Q17 71.875 26.6562 71.875
Q33.6406 71.875 39.4219 68.1094
Q45.2188 64.3594 48.2188 57.3906
Q51.2188 50.4375 51.2188 37.25
Q51.2188 23.5312 48.2344 15.4062
Q45.2656 7.28125 39.375 3.03125
Q33.5 -1.21875 25.5938 -1.21875
Q17.1875 -1.21875 11.8594 3.4375
Q6.54688 8.10938 5.46875 16.5469
M41.4531 48.1406
Q41.4531 55.7188 37.4219 60.1562
Q33.4062 64.5938 27.7344 64.5938
Q21.875 64.5938 17.5312 59.8125
Q13.1875 55.0312 13.1875 47.4062
Q13.1875 40.5781 17.3125 36.2969
Q21.4375 32.0312 27.4844 32.0312
Q33.5938 32.0312 37.5156 36.2969
Q41.4531 40.5781 41.4531 48.1406" id="ArialMT-39"/>
    </defs>
    <g transform="translate(77.67055 68.66176)scale(0.06 -0.06)">
     <use transform="translate(0.0 0.125)" xlink:href="#ArialMT-63"/>
     <use transform="translate(50.0 0.125)" xlink:href="#ArialMT-20"/>
     <use transform="translate(77.783203125 0.125)" xlink:href="#ArialMT-3d"/>
     <use transform="translate(136.181640625 0.125)" xlink:href="#ArialMT-20"/>
     <use transform="translate(163.96484375 0.125)" xlink:href="#ArialMT-38"/>
     <use transform="translate(219.580078125 0.125)" xlink:href="#ArialMT-30"/>
     <use transform="translate(275.1953125 0.125)" xlink:href="#ArialMT-2c"/>
     <use transform="translate(302.978515625 0.125)" xlink:href="#ArialMT-20"/>
     <use transform="translate(330.76171875 0.125)" xlink:href="#Cmmi10-60"/>
     <use transform="translate(372.36328125 -25.384375000000006)scale(0.7)" xlink:href="#Cmmi10-70"/>
     <use transform="translate(422.65625 0.125)" xlink:href="#ArialMT-20"/>
     <use transform="translate(450.439453125 0.125)" xlink:href="#ArialMT-3d"/>
     <use transform="translate(508.837890625 0.125)" xlink:href="#ArialMT-20"/>
     <use transform="translate(536.62109375 0.125)" xlink:href="#ArialMT-39"/>
     <use transform="translate(592.236328125 0.125)" xlink:href="#ArialMT-30"/>
    </g>
   </g>
   <g id="legend_1">
    <g id="patch_22">
     <path d="
M29.8744 11.9555
L41.8744 11.9555
L41.8744 7.75549
L29.8744 7.75549
L29.8744 11.9555" style="fill:none;opacity:0.5;stroke:#000000;stroke-linejoin:miter;"/>
    </g>
    <g id="text_29">
     <!-- Experiment -->
     <defs>
      <path d="
M25.7812 7.85938
L27.0469 0.09375
Q23.3438 -0.6875 20.4062 -0.6875
Q15.625 -0.6875 12.9844 0.828125
Q10.3594 2.34375 9.28125 4.8125
Q8.20312 7.28125 8.20312 15.1875
L8.20312 45.0156
L1.76562 45.0156
L1.76562 51.8594
L8.20312 51.8594
L8.20312 64.7031
L16.9375 69.9688
L16.9375 51.8594
L25.7812 51.8594
L25.7812 45.0156
L16.9375 45.0156
L16.9375 14.7031
Q16.9375 10.9375 17.4062 9.85938
Q17.875 8.79688 18.9219 8.15625
Q19.9688 7.51562 21.9219 7.51562
Q23.3906 7.51562 25.7812 7.85938" id="ArialMT-74"/>
      <path d="
M6.59375 0
L6.59375 51.8594
L14.4531 51.8594
L14.4531 44.5781
Q16.8906 48.3906 20.9375 50.7031
Q25 53.0312 30.1719 53.0312
Q35.9375 53.0312 39.625 50.6406
Q43.3125 48.25 44.8281 43.9531
Q50.9844 53.0312 60.8438 53.0312
Q68.5625 53.0312 72.7031 48.75
Q76.8594 44.4844 76.8594 35.5938
L76.8594 0
L68.1094 0
L68.1094 32.6719
Q68.1094 37.9375 67.25 40.25
Q66.4062 42.5781 64.1562 43.9844
Q61.9219 45.4062 58.8906 45.4062
Q53.4219 45.4062 49.7969 41.7656
Q46.1875 38.1406 46.1875 30.125
L46.1875 0
L37.4062 0
L37.4062 33.6875
Q37.4062 39.5469 35.25 42.4688
Q33.1094 45.4062 28.2188 45.4062
Q24.5156 45.4062 21.3594 43.4531
Q18.2188 41.5 16.7969 37.7344
Q15.375 33.9844 15.375 26.9062
L15.375 0
z
" id="ArialMT-6d"/>
      <path d="
M6.59375 -19.875
L6.59375 51.8594
L14.5938 51.8594
L14.5938 45.125
Q17.4375 49.0781 21 51.0469
Q24.5625 53.0312 29.6406 53.0312
Q36.2812 53.0312 41.3594 49.6094
Q46.4375 46.1875 49.0156 39.9531
Q51.6094 33.7344 51.6094 26.3125
Q51.6094 18.3594 48.75 11.9844
Q45.9062 5.60938 40.4531 2.21875
Q35.0156 -1.17188 29 -1.17188
Q24.6094 -1.17188 21.1094 0.6875
Q17.625 2.54688 15.375 5.375
L15.375 -19.875
z

M14.5469 25.6406
Q14.5469 15.625 18.5938 10.8438
Q22.6562 6.0625 28.4219 6.0625
Q34.2812 6.0625 38.4531 11.0156
Q42.625 15.9688 42.625 26.375
Q42.625 36.2812 38.5469 41.2031
Q34.4688 46.1406 28.8125 46.1406
Q23.1875 46.1406 18.8594 40.8906
Q14.5469 35.6406 14.5469 25.6406" id="ArialMT-70"/>
      <path d="
M0.734375 0
L19.6719 26.9531
L2.15625 51.8594
L13.1406 51.8594
L21.0938 39.7031
Q23.3438 36.2344 24.7031 33.8906
Q26.8594 37.1094 28.6562 39.5938
L37.4062 51.8594
L47.9062 51.8594
L29.9844 27.4375
L49.2656 0
L38.4844 0
L27.8281 16.1094
L25 20.4531
L11.375 0
z
" id="ArialMT-78"/>
      <path d="
M6.59375 0
L6.59375 51.8594
L14.5 51.8594
L14.5 44.4844
Q20.2188 53.0312 31 53.0312
Q35.6875 53.0312 39.625 51.3438
Q43.5625 49.6562 45.5156 46.9219
Q47.4688 44.1875 48.25 40.4375
Q48.7344 37.9844 48.7344 31.8906
L48.7344 0
L39.9375 0
L39.9375 31.5469
Q39.9375 36.9219 38.9062 39.5781
Q37.8906 42.2344 35.2812 43.8125
Q32.6719 45.4062 29.1562 45.4062
Q23.5312 45.4062 19.4531 41.8438
Q15.375 38.2812 15.375 28.3281
L15.375 0
z
" id="ArialMT-6e"/>
      <path d="
M7.90625 0
L7.90625 71.5781
L59.6719 71.5781
L59.6719 63.1406
L17.3906 63.1406
L17.3906 41.2188
L56.9844 41.2188
L56.9844 32.8125
L17.3906 32.8125
L17.3906 8.45312
L61.3281 8.45312
L61.3281 0
z
" id="ArialMT-45"/>
      <path d="
M6.64062 61.4688
L6.64062 71.5781
L15.4375 71.5781
L15.4375 61.4688
z

M6.64062 0
L6.64062 51.8594
L15.4375 51.8594
L15.4375 0
z
" id="ArialMT-69"/>
      <path d="
M42.0938 16.7031
L51.1719 15.5781
Q49.0312 7.625 43.2188 3.21875
Q37.4062 -1.17188 28.375 -1.17188
Q17 -1.17188 10.3281 5.82812
Q3.65625 12.8438 3.65625 25.4844
Q3.65625 38.5781 10.3906 45.7969
Q17.1406 53.0312 27.875 53.0312
Q38.2812 53.0312 44.875 45.9531
Q51.4688 38.875 51.4688 26.0312
Q51.4688 25.25 51.4219 23.6875
L12.75 23.6875
Q13.2344 15.1406 17.5781 10.5938
Q21.9219 6.0625 28.4219 6.0625
Q33.25 6.0625 36.6719 8.59375
Q40.0938 11.1406 42.0938 16.7031
M13.2344 30.9062
L42.1875 30.9062
Q41.6094 37.4531 38.875 40.7188
Q34.6719 45.7969 27.9844 45.7969
Q21.9219 45.7969 17.7969 41.75
Q13.6719 37.7031 13.2344 30.9062" id="ArialMT-65"/>
      <path d="
M6.5 0
L6.5 51.8594
L14.4062 51.8594
L14.4062 44
Q17.4375 49.5156 20 51.2656
Q22.5625 53.0312 25.6406 53.0312
Q30.0781 53.0312 34.6719 50.2031
L31.6406 42.0469
Q28.4219 43.9531 25.2031 43.9531
Q22.3125 43.9531 20.0156 42.2188
Q17.7188 40.4844 16.75 37.4062
Q15.2812 32.7188 15.2812 27.1562
L15.2812 0
z
" id="ArialMT-72"/>
     </defs>
     <g transform="translate(46.674375 11.9554875)scale(0.06 -0.06)">
      <use xlink:href="#ArialMT-45"/>
      <use x="66.69921875" xlink:href="#ArialMT-78"/>
      <use x="116.69921875" xlink:href="#ArialMT-70"/>
      <use x="172.314453125" xlink:href="#ArialMT-65"/>
      <use x="227.9296875" xlink:href="#ArialMT-72"/>
      <use x="261.23046875" xlink:href="#ArialMT-69"/>
      <use x="283.447265625" xlink:href="#ArialMT-6d"/>
      <use x="366.748046875" xlink:href="#ArialMT-65"/>
      <use x="422.36328125" xlink:href="#ArialMT-6e"/>
      <use x="477.978515625" xlink:href="#ArialMT-74"/>
     </g>
    </g>
    <g id="patch_23">
     <path d="
M29.8744 20.4427
L41.8744 20.4427
L41.8744 16.2427
L29.8744 16.2427
L29.8744 20.4427" style="fill:none;stroke:#333333;stroke-linejoin:miter;"/>
    </g>
    <g id="text_30">
     <!-- Simulation -->
     <defs>
      <path d="
M4.5 23
L13.4219 23.7812
Q14.0625 18.4062 16.375 14.9688
Q18.7031 11.5312 23.5781 9.40625
Q28.4688 7.28125 34.5781 7.28125
Q39.9844 7.28125 44.1406 8.89062
Q48.2969 10.5 50.3125 13.2969
Q52.3438 16.1094 52.3438 19.4375
Q52.3438 22.7969 50.3906 25.3125
Q48.4375 27.8281 43.9531 29.5469
Q41.0625 30.6719 31.2031 33.0312
Q21.3438 35.4062 17.3906 37.5
Q12.25 40.1875 9.73438 44.1562
Q7.23438 48.1406 7.23438 53.0781
Q7.23438 58.5 10.2969 63.2031
Q13.375 67.9219 19.2812 70.3594
Q25.2031 72.7969 32.4219 72.7969
Q40.375 72.7969 46.4531 70.2344
Q52.5469 67.6719 55.8125 62.6875
Q59.0781 57.7188 59.3281 51.4219
L50.25 50.7344
Q49.5156 57.5156 45.2812 60.9844
Q41.0625 64.4531 32.8125 64.4531
Q24.2188 64.4531 20.2812 61.2969
Q16.3594 58.1562 16.3594 53.7188
Q16.3594 49.8594 19.1406 47.3594
Q21.875 44.875 33.4219 42.2656
Q44.9688 39.6562 49.2656 37.7031
Q55.5156 34.8125 58.4844 30.3906
Q61.4688 25.9844 61.4688 20.2188
Q61.4688 14.5 58.2031 9.4375
Q54.9375 4.39062 48.7969 1.57812
Q42.6719 -1.21875 35.0156 -1.21875
Q25.2969 -1.21875 18.7188 1.60938
Q12.1562 4.4375 8.42188 10.125
Q4.6875 15.8281 4.5 23" id="ArialMT-53"/>
      <path d="
M40.5781 0
L40.5781 7.625
Q34.5156 -1.17188 24.125 -1.17188
Q19.5312 -1.17188 15.5469 0.578125
Q11.5781 2.34375 9.64062 5
Q7.71875 7.67188 6.9375 11.5312
Q6.39062 14.1094 6.39062 19.7344
L6.39062 51.8594
L15.1875 51.8594
L15.1875 23.0938
Q15.1875 16.2188 15.7188 13.8125
Q16.5469 10.3594 19.2344 8.375
Q21.9219 6.39062 25.875 6.39062
Q29.8281 6.39062 33.2969 8.42188
Q36.7656 10.4531 38.2031 13.9375
Q39.6562 17.4375 39.6562 24.0781
L39.6562 51.8594
L48.4375 51.8594
L48.4375 0
z
" id="ArialMT-75"/>
      <path d="
M3.32812 25.9219
Q3.32812 40.3281 11.3281 47.2656
Q18.0156 53.0312 27.6406 53.0312
Q38.3281 53.0312 45.1094 46.0156
Q51.9062 39.0156 51.9062 26.6562
Q51.9062 16.6562 48.9062 10.9062
Q45.9062 5.17188 40.1562 2
Q34.4219 -1.17188 27.6406 -1.17188
Q16.75 -1.17188 10.0312 5.8125
Q3.32812 12.7969 3.32812 25.9219
M12.3594 25.9219
Q12.3594 15.9688 16.7031 11.0156
Q21.0469 6.0625 27.6406 6.0625
Q34.1875 6.0625 38.5312 11.0312
Q42.875 16.0156 42.875 26.2188
Q42.875 35.8438 38.5 40.7969
Q34.125 45.75 27.6406 45.75
Q21.0469 45.75 16.7031 40.8125
Q12.3594 35.8906 12.3594 25.9219" id="ArialMT-6f"/>
      <path d="
M6.39062 0
L6.39062 71.5781
L15.1875 71.5781
L15.1875 0
z
" id="ArialMT-6c"/>
      <path d="
M40.4375 6.39062
Q35.5469 2.25 31.0312 0.53125
Q26.5156 -1.17188 21.3438 -1.17188
Q12.7969 -1.17188 8.20312 3
Q3.60938 7.17188 3.60938 13.6719
Q3.60938 17.4844 5.34375 20.625
Q7.07812 23.7812 9.89062 25.6875
Q12.7031 27.5938 16.2188 28.5625
Q18.7969 29.25 24.0312 29.8906
Q34.6719 31.1562 39.7031 32.9062
Q39.75 34.7188 39.75 35.2031
Q39.75 40.5781 37.25 42.7812
Q33.8906 45.75 27.25 45.75
Q21.0469 45.75 18.0938 43.5781
Q15.1406 41.4062 13.7188 35.8906
L5.125 37.0625
Q6.29688 42.5781 8.98438 45.9688
Q11.6719 49.3594 16.75 51.1875
Q21.8281 53.0312 28.5156 53.0312
Q35.1562 53.0312 39.2969 51.4688
Q43.4531 49.9062 45.4062 47.5312
Q47.3594 45.1719 48.1406 41.5469
Q48.5781 39.3125 48.5781 33.4531
L48.5781 21.7344
Q48.5781 9.46875 49.1406 6.21875
Q49.7031 2.98438 51.375 0
L42.1875 0
Q40.8281 2.73438 40.4375 6.39062
M39.7031 26.0312
Q34.9062 24.0781 25.3438 22.7031
Q19.9219 21.9219 17.6719 20.9375
Q15.4375 19.9688 14.2031 18.0938
Q12.9844 16.2188 12.9844 13.9219
Q12.9844 10.4062 15.6406 8.0625
Q18.3125 5.71875 23.4375 5.71875
Q28.5156 5.71875 32.4688 7.9375
Q36.4219 10.1562 38.2812 14.0156
Q39.7031 17 39.7031 22.7969
z
" id="ArialMT-61"/>
     </defs>
     <g transform="translate(46.674375 20.442675)scale(0.06 -0.06)">
      <use xlink:href="#ArialMT-53"/>
      <use x="66.69921875" xlink:href="#ArialMT-69"/>
      <use x="88.916015625" xlink:href="#ArialMT-6d"/>
      <use x="172.216796875" xlink:href="#ArialMT-75"/>
      <use x="227.83203125" xlink:href="#ArialMT-6c"/>
      <use x="250.048828125" xlink:href="#ArialMT-61"/>
      <use x="305.6640625" xlink:href="#ArialMT-74"/>
      <use x="333.447265625" xlink:href="#ArialMT-69"/>
      <use x="355.6640625" xlink:href="#ArialMT-6f"/>
      <use x="411.279296875" xlink:href="#ArialMT-6e"/>
     </g>
    </g>
   </g>
  </g>
  <g id="text_31">
   <!-- Radius of gyration, nm -->
   <defs>
    <path d="
M3.07812 15.4844
L11.7656 16.8438
Q12.5 11.625 15.8438 8.84375
Q19.1875 6.0625 25.2031 6.0625
Q31.25 6.0625 34.1719 8.51562
Q37.1094 10.9844 37.1094 14.3125
Q37.1094 17.2812 34.5156 19
Q32.7188 20.1719 25.5312 21.9688
Q15.875 24.4219 12.1406 26.2031
Q8.40625 27.9844 6.46875 31.125
Q4.54688 34.2812 4.54688 38.0938
Q4.54688 41.5469 6.125 44.5
Q7.71875 47.4688 10.4531 49.4219
Q12.5 50.9219 16.0312 51.9688
Q19.5781 53.0312 23.6406 53.0312
Q29.7344 53.0312 34.3438 51.2656
Q38.9688 49.5156 41.1562 46.5
Q43.3594 43.5 44.1875 38.4844
L35.5938 37.3125
Q35.0156 41.3125 32.2031 43.5469
Q29.3906 45.7969 24.2656 45.7969
Q18.2188 45.7969 15.625 43.7969
Q13.0312 41.7969 13.0312 39.1094
Q13.0312 37.4062 14.1094 36.0312
Q15.1875 34.625 17.4844 33.6875
Q18.7969 33.2031 25.25 31.4531
Q34.5781 28.9531 38.25 27.3594
Q41.9375 25.7812 44.0312 22.75
Q46.1406 19.7344 46.1406 15.2344
Q46.1406 10.8438 43.5781 6.95312
Q41.0156 3.07812 36.1719 0.953125
Q31.3438 -1.17188 25.25 -1.17188
Q15.1406 -1.17188 9.84375 3.03125
Q4.54688 7.23438 3.07812 15.4844" id="ArialMT-73"/>
    <path d="
M4.98438 -4.29688
L13.5312 -5.5625
Q14.0625 -9.51562 16.5 -11.3281
Q19.7812 -13.7656 25.4375 -13.7656
Q31.5469 -13.7656 34.8594 -11.3281
Q38.1875 -8.89062 39.3594 -4.5
Q40.0469 -1.8125 39.9844 6.78125
Q34.2344 0 25.6406 0
Q14.9375 0 9.07812 7.71875
Q3.21875 15.4375 3.21875 26.2188
Q3.21875 33.6406 5.90625 39.9062
Q8.59375 46.1875 13.6875 49.6094
Q18.7969 53.0312 25.6875 53.0312
Q34.8594 53.0312 40.8281 45.6094
L40.8281 51.8594
L48.9219 51.8594
L48.9219 7.03125
Q48.9219 -5.07812 46.4531 -10.125
Q44 -15.1875 38.6406 -18.1094
Q33.2969 -21.0469 25.4844 -21.0469
Q16.2188 -21.0469 10.5 -16.875
Q4.78125 -12.7031 4.98438 -4.29688
M12.25 26.8594
Q12.25 16.6562 16.2969 11.9688
Q20.3594 7.28125 26.4688 7.28125
Q32.5156 7.28125 36.6094 11.9375
Q40.7188 16.6094 40.7188 26.5625
Q40.7188 36.0781 36.5 40.9062
Q32.2812 45.75 26.3125 45.75
Q20.4531 45.75 16.3438 40.9844
Q12.25 36.2344 12.25 26.8594" id="ArialMT-67"/>
    <path d="
M8.6875 0
L8.6875 45.0156
L0.921875 45.0156
L0.921875 51.8594
L8.6875 51.8594
L8.6875 57.375
Q8.6875 62.5938 9.625 65.1406
Q10.8906 68.5625 14.0781 70.6719
Q17.2812 72.7969 23.0469 72.7969
Q26.7656 72.7969 31.25 71.9219
L29.9375 64.2656
Q27.2031 64.75 24.75 64.75
Q20.75 64.75 19.0938 63.0312
Q17.4375 61.3281 17.4375 56.6406
L17.4375 51.8594
L27.5469 51.8594
L27.5469 45.0156
L17.4375 45.0156
L17.4375 0
z
" id="ArialMT-66"/>
    <path d="
M40.2344 0
L40.2344 6.54688
Q35.2969 -1.17188 25.7344 -1.17188
Q19.5312 -1.17188 14.3281 2.25
Q9.125 5.67188 6.26562 11.7969
Q3.42188 17.9219 3.42188 25.875
Q3.42188 33.6406 6 39.9688
Q8.59375 46.2969 13.7656 49.6562
Q18.9531 53.0312 25.3438 53.0312
Q30.0312 53.0312 33.6875 51.0469
Q37.3594 49.0781 39.6562 45.9062
L39.6562 71.5781
L48.3906 71.5781
L48.3906 0
z

M12.4531 25.875
Q12.4531 15.9219 16.6406 10.9844
Q20.8438 6.0625 26.5625 6.0625
Q32.3281 6.0625 36.3438 10.7656
Q40.375 15.4844 40.375 25.1406
Q40.375 35.7969 36.2656 40.7656
Q32.1719 45.75 26.1719 45.75
Q20.3125 45.75 16.375 40.9688
Q12.4531 36.1875 12.4531 25.875" id="ArialMT-64"/>
    <path d="
M7.85938 0
L7.85938 71.5781
L39.5938 71.5781
Q49.1719 71.5781 54.1406 69.6406
Q59.125 67.7188 62.1094 62.8281
Q65.0938 57.9531 65.0938 52.0469
Q65.0938 44.4375 60.1562 39.2031
Q55.2188 33.9844 44.9219 32.5625
Q48.6875 30.7656 50.6406 29
Q54.7812 25.2031 58.5 19.4844
L70.9531 0
L59.0312 0
L49.5625 14.8906
Q45.4062 21.3438 42.7188 24.75
Q40.0469 28.1719 37.9219 29.5312
Q35.7969 30.9062 33.5938 31.4531
Q31.9844 31.7812 28.3281 31.7812
L17.3281 31.7812
L17.3281 0
z

M17.3281 39.9844
L37.7031 39.9844
Q44.1875 39.9844 47.8438 41.3281
Q51.5156 42.6719 53.4219 45.625
Q55.3281 48.5781 55.3281 52.0469
Q55.3281 57.125 51.6406 60.3906
Q47.9531 63.6719 39.9844 63.6719
L17.3281 63.6719
z
" id="ArialMT-52"/>
    <path d="
M6.20312 -19.9688
L5.21875 -11.7188
Q8.10938 -12.5 10.25 -12.5
Q13.1875 -12.5 14.9375 -11.5156
Q16.7031 -10.5469 17.8281 -8.79688
Q18.6562 -7.46875 20.5156 -2.25
Q20.75 -1.51562 21.2969 -0.09375
L1.60938 51.8594
L11.0781 51.8594
L21.875 21.8281
Q23.9688 16.1094 25.6406 9.8125
Q27.1562 15.875 29.25 21.625
L40.3281 51.8594
L49.125 51.8594
L29.3906 -0.875
Q26.2188 -9.42188 24.4688 -12.6406
Q22.125 -17 19.0938 -19.0156
Q16.0625 -21.0469 11.8594 -21.0469
Q9.32812 -21.0469 6.20312 -19.9688" id="ArialMT-79"/>
   </defs>
   <g transform="translate(36.33046875 112.44474)scale(0.06 -0.06)">
    <use xlink:href="#ArialMT-52"/>
    <use x="72.216796875" xlink:href="#ArialMT-61"/>
    <use x="127.83203125" xlink:href="#ArialMT-64"/>
    <use x="183.447265625" xlink:href="#ArialMT-69"/>
    <use x="205.6640625" xlink:href="#ArialMT-75"/>
    <use x="261.279296875" xlink:href="#ArialMT-73"/>
    <use x="311.279296875" xlink:href="#ArialMT-20"/>
    <use x="339.0625" xlink:href="#ArialMT-6f"/>
    <use x="394.677734375" xlink:href="#ArialMT-66"/>
    <use x="422.4609375" xlink:href="#ArialMT-20"/>
    <use x="450.244140625" xlink:href="#ArialMT-67"/>
    <use x="505.859375" xlink:href="#ArialMT-79"/>
    <use x="555.859375" xlink:href="#ArialMT-72"/>
    <use x="589.16015625" xlink:href="#ArialMT-61"/>
    <use x="644.775390625" xlink:href="#ArialMT-74"/>
    <use x="672.55859375" xlink:href="#ArialMT-69"/>
    <use x="694.775390625" xlink:href="#ArialMT-6f"/>
    <use x="750.390625" xlink:href="#ArialMT-6e"/>
    <use x="806.005859375" xlink:href="#ArialMT-2c"/>
    <use x="833.7890625" xlink:href="#ArialMT-20"/>
    <use x="861.572265625" xlink:href="#ArialMT-6e"/>
    <use x="917.1875" xlink:href="#ArialMT-6d"/>
   </g>
  </g>
  <g id="text_32">
   <!-- Probability density -->
   <defs>
    <path d="
M14.7031 0
L6.54688 0
L6.54688 71.5781
L15.3281 71.5781
L15.3281 46.0469
Q20.9062 53.0312 29.5469 53.0312
Q34.3281 53.0312 38.5938 51.0938
Q42.875 49.1719 45.625 45.6719
Q48.3906 42.1875 49.9531 37.25
Q51.5156 32.3281 51.5156 26.7031
Q51.5156 13.375 44.9219 6.09375
Q38.3281 -1.17188 29.1094 -1.17188
Q19.9219 -1.17188 14.7031 6.5
z

M14.5938 26.3125
Q14.5938 17 17.1406 12.8438
Q21.2969 6.0625 28.375 6.0625
Q34.125 6.0625 38.3281 11.0625
Q42.5312 16.0625 42.5312 25.9844
Q42.5312 36.1406 38.5 40.9688
Q34.4688 45.7969 28.7656 45.7969
Q23 45.7969 18.7969 40.7969
Q14.5938 35.7969 14.5938 26.3125" id="ArialMT-62"/>
    <path d="
M7.71875 0
L7.71875 71.5781
L34.7188 71.5781
Q41.8438 71.5781 45.6094 70.9062
Q50.875 70.0156 54.4375 67.5469
Q58.0156 65.0938 60.1875 60.6406
Q62.3594 56.2031 62.3594 50.875
Q62.3594 41.75 56.5469 35.4219
Q50.7344 29.1094 35.5469 29.1094
L17.1875 29.1094
L17.1875 0
z

M17.1875 37.5469
L35.6875 37.5469
Q44.875 37.5469 48.7344 40.9688
Q52.5938 44.3906 52.5938 50.5938
Q52.5938 55.0781 50.3125 58.2656
Q48.0469 61.4688 44.3438 62.5
Q41.9375 63.1406 35.5 63.1406
L17.1875 63.1406
z
" id="ArialMT-50"/>
   </defs>
   <g transform="translate(3.4059375 80.83828125)rotate(-90.0)scale(0.06 -0.06)">
    <use xlink:href="#ArialMT-50"/>
    <use x="66.69921875" xlink:href="#ArialMT-72"/>
    <use x="100.0" xlink:href="#ArialMT-6f"/>
    <use x="155.615234375" xlink:href="#ArialMT-62"/>
    <use x="211.23046875" xlink:href="#ArialMT-61"/>
    <use x="266.845703125" xlink:href="#ArialMT-62"/>
    <use x="322.4609375" xlink:href="#ArialMT-69"/>
    <use x="344.677734375" xlink:href="#ArialMT-6c"/>
    <use x="366.89453125" xlink:href="#ArialMT-69"/>
    <use x="389.111328125" xlink:href="#ArialMT-74"/>
    <use x="416.89453125" xlink:href="#ArialMT-79"/>
    <use x="466.89453125" xlink:href="#ArialMT-20"/>
    <use x="494.677734375" xlink:href="#ArialMT-64"/>
    <use x="550.29296875" xlink:href="#ArialMT-65"/>
    <use x="605.908203125" xlink:href="#ArialMT-6e"/>
    <use x="661.5234375" xlink:href="#ArialMT-73"/>
    <use x="711.5234375" xlink:href="#ArialMT-69"/>
    <use x="733.740234375" xlink:href="#ArialMT-74"/>
    <use x="761.5234375" xlink:href="#ArialMT-79"/>
   </g>
  </g>
 </g>
 <defs>
  <clipPath id="pdb4d0d4188">
   <rect height="32.248" width="40.30375" x="74.44625" y="20.544"/>
  </clipPath>
  <clipPath id="p7943227483">
   <rect height="32.248" width="40.30375" x="24.97" y="64.792"/>
  </clipPath>
  <clipPath id="p039a159d82">
   <rect height="32.248" width="40.30375" x="74.44625" y="64.792"/>
  </clipPath>
  <clipPath id="pabbaaf733a">
   <rect height="32.248" width="40.30375" x="24.97" y="20.544"/>
  </clipPath>
 </defs>
</svg>
