<?xml version="1.0" encoding="utf-8" standalone="no"?>
<!DOCTYPE svg PUBLIC "-//W3C//DTD SVG 1.1//EN"
  "http://www.w3.org/Graphics/SVG/1.1/DTD/svg11.dtd">
<!-- Created with matplotlib (http://matplotlib.org/) -->
<svg height="180pt" version="1.1" viewBox="0 0 249 180" width="249pt" xmlns="http://www.w3.org/2000/svg" xmlns:xlink="http://www.w3.org/1999/xlink">
 <defs>
  <style type="text/css">
*{stroke-linecap:butt;stroke-linejoin:round;}
  </style>
 </defs>
 <g id="figure_1">
  <g id="patch_1">
   <path d="
M0 180
L249.12 180
L249.12 0
L0 0
z
" style="fill:#ffffff;"/>
  </g>
  <g id="axes_1">
   <g id="patch_2">
    <path d="
M28.54 88.36
L126.91 88.36
L126.91 28.8
L28.54 28.8
z
" style="fill:#ffffff;"/>
   </g>
   <g id="patch_3">
    <path clip-path="url(#p14e54db3e2)" d="
M32.4748 88.36
L32.4748 88.36
L34.4422 88.36
L34.4422 88.36
L36.4096 88.36
L36.4096 88.36
L38.377 88.36
L38.377 88.36
L40.3444 88.36
L40.3444 88.36
L42.3118 88.36
L42.3118 88.36
L44.2792 88.36
L44.2792 87.8158
L46.2466 87.8158
L46.2466 87.5436
L48.214 87.5436
L48.214 82.9176
L50.1814 82.9176
L50.1814 81.2849
L52.1488 81.2849
L52.1488 78.0195
L54.1162 78.0195
L54.1162 67.679
L56.0836 67.679
L56.0836 66.8626
L58.051 66.8626
L58.051 61.9645
L60.0184 61.9645
L60.0184 55.4336
L61.9858 55.4336
L61.9858 55.7057
L63.9532 55.7057
L63.9532 54.6173
L65.9206 54.6173
L65.9206 48.6307
L67.888 48.6307
L67.888 60.6039
L69.8554 60.6039
L69.8554 55.7057
L71.8228 55.7057
L71.8228 58.6991
L73.7902 58.6991
L73.7902 63.5972
L75.7576 63.5972
L75.7576 70.9444
L77.725 70.9444
L77.725 66.5905
L79.6924 66.5905
L79.6924 66.5905
L81.6598 66.5905
L81.6598 73.9377
L83.6272 73.9377
L83.6272 76.931
L85.5946 76.931
L85.5946 77.7474
L87.562 77.7474
L87.562 79.108
L89.5294 79.108
L89.5294 81.8291
L91.4968 81.8291
L91.4968 84.5503
L93.4642 84.5503
L93.4642 86.183
L95.4316 86.183
L95.4316 85.9109
L97.399 85.9109
L97.399 85.9109
L99.3664 85.9109
L99.3664 86.4552
L101.334 86.4552
L101.334 87.5436
L103.301 87.5436
L103.301 88.0879
L105.269 88.0879
L105.269 87.8158
L107.236 87.8158
L107.236 87.5436
L109.203 87.5436
L109.203 88.0879
L111.171 88.0879
L111.171 87.8158
L113.138 87.8158
L113.138 88.36
L115.106 88.36
L115.106 88.0879
L117.073 88.0879
L117.073 88.36
L119.04 88.36
L119.04 88.0879
L121.008 88.0879
L121.008 88.36
L122.975 88.36
L122.975 88.36
L124.943 88.36
L124.943 88.36
L122.975 88.36
L122.975 88.36
L121.008 88.36
L121.008 88.36
L119.04 88.36
L119.04 88.36
L117.073 88.36
L117.073 88.36
L115.106 88.36
L115.106 88.36
L113.138 88.36
L113.138 88.36
L111.171 88.36
L111.171 88.36
L109.203 88.36
L109.203 88.36
L107.236 88.36
L107.236 88.36
L105.269 88.36
L105.269 88.36
L103.301 88.36
L103.301 88.36
L101.334 88.36
L101.334 88.36
L99.3664 88.36
L99.3664 88.36
L97.399 88.36
L97.399 88.36
L95.4316 88.36
L95.4316 88.36
L93.4642 88.36
L93.4642 88.36
L91.4968 88.36
L91.4968 88.36
L89.5294 88.36
L89.5294 88.36
L87.562 88.36
L87.562 88.36
L85.5946 88.36
L85.5946 88.36
L83.6272 88.36
L83.6272 88.36
L81.6598 88.36
L81.6598 88.36
L79.6924 88.36
L79.6924 88.36
L77.725 88.36
L77.725 88.36
L75.7576 88.36
L75.7576 88.36
L73.7902 88.36
L73.7902 88.36
L71.8228 88.36
L71.8228 88.36
L69.8554 88.36
L69.8554 88.36
L67.888 88.36
L67.888 88.36
L65.9206 88.36
L65.9206 88.36
L63.9532 88.36
L63.9532 88.36
L61.9858 88.36
L61.9858 88.36
L60.0184 88.36
L60.0184 88.36
L58.051 88.36
L58.051 88.36
L56.0836 88.36
L56.0836 88.36
L54.1162 88.36
L54.1162 88.36
L52.1488 88.36
L52.1488 88.36
L50.1814 88.36
L50.1814 88.36
L48.214 88.36
L48.214 88.36
L46.2466 88.36
L46.2466 88.36
L44.2792 88.36
L44.2792 88.36
L42.3118 88.36
L42.3118 88.36
L40.3444 88.36
L40.3444 88.36
L38.377 88.36
L38.377 88.36
L36.4096 88.36
L36.4096 88.36
L34.4422 88.36
L34.4422 88.36
z
" style="fill:#333333;stroke:#000000;stroke-linejoin:miter;"/>
   </g>
   <g id="patch_4">
    <path clip-path="url(#p14e54db3e2)" d="
M32.4748 88.36
L32.4748 88.36
L34.4422 88.36
L34.4422 88.36
L36.4096 88.36
L36.4096 88.36
L38.377 88.36
L38.377 88.36
L40.3444 88.36
L40.3444 88.36
L42.3118 88.36
L42.3118 88.3505
L44.2792 88.3505
L44.2792 88.0026
L46.2466 88.0026
L46.2466 86.6967
L48.214 86.6967
L48.214 83.5464
L50.1814 83.5464
L50.1814 79.1093
L52.1488 79.1093
L52.1488 74.1146
L54.1162 74.1146
L54.1162 68.5146
L56.0836 68.5146
L56.0836 63.9488
L58.051 63.9488
L58.051 59.8978
L60.0184 59.8978
L60.0184 57.348
L61.9858 57.348
L61.9858 56.066
L63.9532 56.066
L63.9532 55.556
L65.9206 55.556
L65.9206 56.3281
L67.888 56.3281
L67.888 57.7102
L69.8554 57.7102
L69.8554 59.8454
L71.8228 59.8454
L71.8228 61.9042
L73.7902 61.9042
L73.7902 64.3301
L75.7576 64.3301
L75.7576 66.8275
L77.725 66.8275
L77.725 69.7633
L79.6924 69.7633
L79.6924 71.3932
L81.6598 71.3932
L81.6598 74.5197
L83.6272 74.5197
L83.6272 76.4833
L85.5946 76.4833
L85.5946 77.9083
L87.562 77.9083
L87.562 79.8194
L89.5294 79.8194
L89.5294 81.3016
L91.4968 81.3016
L91.4968 82.4216
L93.4642 82.4216
L93.4642 83.6274
L95.4316 83.6274
L95.4316 84.6092
L97.399 84.6092
L97.399 85.5624
L99.3664 85.5624
L99.3664 86.12
L101.334 86.12
L101.334 86.5108
L103.301 86.5108
L103.301 86.9016
L105.269 86.9016
L105.269 87.1542
L107.236 87.1542
L107.236 87.6022
L109.203 87.6022
L109.203 87.7214
L111.171 87.7214
L111.171 87.9311
L113.138 87.9311
L113.138 88.0359
L115.106 88.0359
L115.106 88.1217
L117.073 88.1217
L117.073 88.2027
L119.04 88.2027
L119.04 88.2599
L121.008 88.2599
L121.008 88.2742
L122.975 88.2742
L122.975 88.298
L124.943 88.298
L124.943 88.36
L122.975 88.36
L122.975 88.36
L121.008 88.36
L121.008 88.36
L119.04 88.36
L119.04 88.36
L117.073 88.36
L117.073 88.36
L115.106 88.36
L115.106 88.36
L113.138 88.36
L113.138 88.36
L111.171 88.36
L111.171 88.36
L109.203 88.36
L109.203 88.36
L107.236 88.36
L107.236 88.36
L105.269 88.36
L105.269 88.36
L103.301 88.36
L103.301 88.36
L101.334 88.36
L101.334 88.36
L99.3664 88.36
L99.3664 88.36
L97.399 88.36
L97.399 88.36
L95.4316 88.36
L95.4316 88.36
L93.4642 88.36
L93.4642 88.36
L91.4968 88.36
L91.4968 88.36
L89.5294 88.36
L89.5294 88.36
L87.562 88.36
L87.562 88.36
L85.5946 88.36
L85.5946 88.36
L83.6272 88.36
L83.6272 88.36
L81.6598 88.36
L81.6598 88.36
L79.6924 88.36
L79.6924 88.36
L77.725 88.36
L77.725 88.36
L75.7576 88.36
L75.7576 88.36
L73.7902 88.36
L73.7902 88.36
L71.8228 88.36
L71.8228 88.36
L69.8554 88.36
L69.8554 88.36
L67.888 88.36
L67.888 88.36
L65.9206 88.36
L65.9206 88.36
L63.9532 88.36
L63.9532 88.36
L61.9858 88.36
L61.9858 88.36
L60.0184 88.36
L60.0184 88.36
L58.051 88.36
L58.051 88.36
L56.0836 88.36
L56.0836 88.36
L54.1162 88.36
L54.1162 88.36
L52.1488 88.36
L52.1488 88.36
L50.1814 88.36
L50.1814 88.36
L48.214 88.36
L48.214 88.36
L46.2466 88.36
L46.2466 88.36
L44.2792 88.36
L44.2792 88.36
L42.3118 88.36
L42.3118 88.36
L40.3444 88.36
L40.3444 88.36
L38.377 88.36
L38.377 88.36
L36.4096 88.36
L36.4096 88.36
L34.4422 88.36
L34.4422 88.36
z
" style="fill:#aaaaaa;opacity:0.5;stroke:#000000;stroke-linejoin:miter;"/>
   </g>
   <g id="patch_5">
    <path d="
M28.54 88.36
L126.91 88.36" style="fill:none;stroke:#000000;stroke-linecap:square;stroke-linejoin:miter;stroke-width:0.5;"/>
   </g>
   <g id="patch_6">
    <path d="
M28.54 88.36
L28.54 28.8" style="fill:none;stroke:#000000;stroke-linecap:square;stroke-linejoin:miter;stroke-width:0.5;"/>
   </g>
   <g id="matplotlib.axis_1">
    <g id="xtick_1">
     <g id="line2d_1">
      <defs>
       <path d="
M0 0
L0 -4" id="mc7db9fdffb" style="stroke:#000000;stroke-width:0.5;"/>
      </defs>
      <g>
       <use style="stroke:#000000;stroke-width:0.5;" x="28.54" xlink:href="#mc7db9fdffb" y="88.36"/>
      </g>
     </g>
    </g>
    <g id="xtick_2">
     <g id="line2d_2">
      <g>
       <use style="stroke:#000000;stroke-width:0.5;" x="48.214" xlink:href="#mc7db9fdffb" y="88.36"/>
      </g>
     </g>
    </g>
    <g id="xtick_3">
     <g id="line2d_3">
      <g>
       <use style="stroke:#000000;stroke-width:0.5;" x="67.888" xlink:href="#mc7db9fdffb" y="88.36"/>
      </g>
     </g>
    </g>
    <g id="xtick_4">
     <g id="line2d_4">
      <g>
       <use style="stroke:#000000;stroke-width:0.5;" x="87.562" xlink:href="#mc7db9fdffb" y="88.36"/>
      </g>
     </g>
    </g>
    <g id="xtick_5">
     <g id="line2d_5">
      <g>
       <use style="stroke:#000000;stroke-width:0.5;" x="107.236" xlink:href="#mc7db9fdffb" y="88.36"/>
      </g>
     </g>
    </g>
    <g id="xtick_6">
     <g id="line2d_6">
      <g>
       <use style="stroke:#000000;stroke-width:0.5;" x="126.91" xlink:href="#mc7db9fdffb" y="88.36"/>
      </g>
     </g>
    </g>
   </g>
   <g id="matplotlib.axis_2">
    <g id="ytick_1">
     <g id="line2d_7">
      <defs>
       <path d="
M0 0
L4 0" id="md7965d1ba0" style="stroke:#000000;stroke-width:0.5;"/>
      </defs>
      <g>
       <use style="stroke:#000000;stroke-width:0.5;" x="28.54" xlink:href="#md7965d1ba0" y="88.36"/>
      </g>
     </g>
     <g id="text_1">
      <!-- 0.000 -->
      <defs>
       <path d="
M9.07812 0
L9.07812 10.0156
L19.0938 10.0156
L19.0938 0
z
" id="ArialMT-2e"/>
       <path d="
M4.15625 35.2969
Q4.15625 48 6.76562 55.7344
Q9.375 63.4844 14.5156 67.6719
Q19.6719 71.875 27.4844 71.875
Q33.25 71.875 37.5938 69.5469
Q41.9375 67.2344 44.7656 62.8594
Q47.6094 58.5 49.2188 52.2188
Q50.8281 45.9531 50.8281 35.2969
Q50.8281 22.7031 48.2344 14.9688
Q45.6562 7.23438 40.5 3
Q35.3594 -1.21875 27.4844 -1.21875
Q17.1406 -1.21875 11.2344 6.20312
Q4.15625 15.1406 4.15625 35.2969
M13.1875 35.2969
Q13.1875 17.6719 17.3125 11.8281
Q21.4375 6 27.4844 6
Q33.5469 6 37.6719 11.8594
Q41.7969 17.7188 41.7969 35.2969
Q41.7969 52.9844 37.6719 58.7812
Q33.5469 64.5938 27.3906 64.5938
Q21.3438 64.5938 17.7188 59.4688
Q13.1875 52.9375 13.1875 35.2969" id="ArialMT-30"/>
      </defs>
      <g transform="translate(7.6503125 90.169609375)scale(0.07 -0.07)">
       <use xlink:href="#ArialMT-30"/>
       <use x="55.615234375" xlink:href="#ArialMT-2e"/>
       <use x="83.3984375" xlink:href="#ArialMT-30"/>
       <use x="139.013671875" xlink:href="#ArialMT-30"/>
       <use x="194.62890625" xlink:href="#ArialMT-30"/>
      </g>
     </g>
    </g>
    <g id="ytick_2">
     <g id="line2d_8">
      <g>
       <use style="stroke:#000000;stroke-width:0.5;" x="28.54" xlink:href="#md7965d1ba0" y="76.448"/>
      </g>
     </g>
     <g id="text_2">
      <!-- 0.005 -->
      <defs>
       <path d="
M4.15625 18.75
L13.375 19.5312
Q14.4062 12.7969 18.1406 9.39062
Q21.875 6 27.1562 6
Q33.5 6 37.8906 10.7812
Q42.2812 15.5781 42.2812 23.4844
Q42.2812 31 38.0625 35.3438
Q33.8438 39.7031 27 39.7031
Q22.75 39.7031 19.3281 37.7656
Q15.9219 35.8438 13.9688 32.7656
L5.71875 33.8438
L12.6406 70.6094
L48.25 70.6094
L48.25 62.2031
L19.6719 62.2031
L15.8281 42.9688
Q22.2656 47.4688 29.3438 47.4688
Q38.7188 47.4688 45.1562 40.9688
Q51.6094 34.4688 51.6094 24.2656
Q51.6094 14.5469 45.9531 7.46875
Q39.0625 -1.21875 27.1562 -1.21875
Q17.3906 -1.21875 11.2031 4.25
Q5.03125 9.71875 4.15625 18.75" id="ArialMT-35"/>
      </defs>
      <g transform="translate(7.595625 78.257609375)scale(0.07 -0.07)">
       <use xlink:href="#ArialMT-30"/>
       <use x="55.615234375" xlink:href="#ArialMT-2e"/>
       <use x="83.3984375" xlink:href="#ArialMT-30"/>
       <use x="139.013671875" xlink:href="#ArialMT-30"/>
       <use x="194.62890625" xlink:href="#ArialMT-35"/>
      </g>
     </g>
    </g>
    <g id="ytick_3">
     <g id="line2d_9">
      <g>
       <use style="stroke:#000000;stroke-width:0.5;" x="28.54" xlink:href="#md7965d1ba0" y="64.536"/>
      </g>
     </g>
     <g id="text_3">
      <!-- 0.010 -->
      <defs>
       <path d="
M37.25 0
L28.4688 0
L28.4688 56
Q25.2969 52.9844 20.1406 49.9531
Q14.9844 46.9219 10.8906 45.4062
L10.8906 53.9062
Q18.2656 57.375 23.7812 62.2969
Q29.2969 67.2344 31.5938 71.875
L37.25 71.875
z
" id="ArialMT-31"/>
      </defs>
      <g transform="translate(7.6503125 66.345609375)scale(0.07 -0.07)">
       <use xlink:href="#ArialMT-30"/>
       <use x="55.615234375" xlink:href="#ArialMT-2e"/>
       <use x="83.3984375" xlink:href="#ArialMT-30"/>
       <use x="139.013671875" xlink:href="#ArialMT-31"/>
       <use x="194.62890625" xlink:href="#ArialMT-30"/>
      </g>
     </g>
    </g>
    <g id="ytick_4">
     <g id="line2d_10">
      <g>
       <use style="stroke:#000000;stroke-width:0.5;" x="28.54" xlink:href="#md7965d1ba0" y="52.624"/>
      </g>
     </g>
     <g id="text_4">
      <!-- 0.015 -->
      <g transform="translate(7.595625 54.433609375)scale(0.07 -0.07)">
       <use xlink:href="#ArialMT-30"/>
       <use x="55.615234375" xlink:href="#ArialMT-2e"/>
       <use x="83.3984375" xlink:href="#ArialMT-30"/>
       <use x="139.013671875" xlink:href="#ArialMT-31"/>
       <use x="194.62890625" xlink:href="#ArialMT-35"/>
      </g>
     </g>
    </g>
    <g id="ytick_5">
     <g id="line2d_11">
      <g>
       <use style="stroke:#000000;stroke-width:0.5;" x="28.54" xlink:href="#md7965d1ba0" y="40.712"/>
      </g>
     </g>
     <g id="text_5">
      <!-- 0.020 -->
      <defs>
       <path d="
M50.3438 8.45312
L50.3438 0
L3.03125 0
Q2.9375 3.17188 4.04688 6.10938
Q5.85938 10.9375 9.82812 15.625
Q13.8125 20.3125 21.3438 26.4688
Q33.0156 36.0312 37.1094 41.625
Q41.2188 47.2188 41.2188 52.2031
Q41.2188 57.4219 37.4688 61
Q33.7344 64.5938 27.7344 64.5938
Q21.3906 64.5938 17.5781 60.7812
Q13.7656 56.9844 13.7188 50.25
L4.6875 51.1719
Q5.60938 61.2812 11.6562 66.5781
Q17.7188 71.875 27.9375 71.875
Q38.2344 71.875 44.2344 66.1562
Q50.25 60.4531 50.25 52
Q50.25 47.7031 48.4844 43.5469
Q46.7344 39.4062 42.6562 34.8125
Q38.5781 30.2188 29.1094 22.2188
Q21.1875 15.5781 18.9375 13.2031
Q16.7031 10.8438 15.2344 8.45312
z
" id="ArialMT-32"/>
      </defs>
      <g transform="translate(7.6503125 42.521609375)scale(0.07 -0.07)">
       <use xlink:href="#ArialMT-30"/>
       <use x="55.615234375" xlink:href="#ArialMT-2e"/>
       <use x="83.3984375" xlink:href="#ArialMT-30"/>
       <use x="139.013671875" xlink:href="#ArialMT-32"/>
       <use x="194.62890625" xlink:href="#ArialMT-30"/>
      </g>
     </g>
    </g>
    <g id="ytick_6">
     <g id="line2d_12">
      <g>
       <use style="stroke:#000000;stroke-width:0.5;" x="28.54" xlink:href="#md7965d1ba0" y="28.8"/>
      </g>
     </g>
     <g id="text_6">
      <!-- 0.025 -->
      <g transform="translate(7.595625 30.609609375)scale(0.07 -0.07)">
       <use xlink:href="#ArialMT-30"/>
       <use x="55.615234375" xlink:href="#ArialMT-2e"/>
       <use x="83.3984375" xlink:href="#ArialMT-30"/>
       <use x="139.013671875" xlink:href="#ArialMT-32"/>
       <use x="194.62890625" xlink:href="#ArialMT-35"/>
      </g>
     </g>
    </g>
   </g>
   <g id="text_7">
    <!-- c = 35, $\ell_p$ = 40 -->
    <defs>
     <path d="
M32.3281 0
L32.3281 17.1406
L1.26562 17.1406
L1.26562 25.2031
L33.9375 71.5781
L41.1094 71.5781
L41.1094 25.2031
L50.7812 25.2031
L50.7812 17.1406
L41.1094 17.1406
L41.1094 0
z

M32.3281 25.2031
L32.3281 57.4688
L9.90625 25.2031
z
" id="ArialMT-34"/>
     <path d="
M-2.48438 -19.3906
Q-3.42188 -19.3906 -3.42188 -18.1094
Q-3.07812 -15.9219 -2.09375 -15.9219
Q1.03125 -15.9219 2.26562 -15.3594
Q3.51562 -14.7969 4.20312 -12.5
L15.4844 32.5156
Q16.2188 34.375 16.2188 37.3125
Q16.2188 41.6094 13.2812 41.6094
Q10.1562 41.6094 8.64062 37.8594
Q7.125 34.125 5.71875 28.4219
Q5.71875 27.7812 4.89062 27.7812
L3.71875 27.7812
Q3.46875 27.7812 3.17188 28.1406
Q2.875 28.5156 2.875 28.8125
Q3.95312 33.1562 4.95312 36.1719
Q5.95312 39.2031 8.07812 41.6875
Q10.2031 44.1875 13.375 44.1875
Q16.7969 44.1875 19.375 42.25
Q21.9688 40.3281 22.7031 37.0156
Q25.4375 40.1875 28.75 42.1875
Q32.0781 44.1875 35.5938 44.1875
Q39.7969 44.1875 42.8906 41.9375
Q46 39.7031 47.5625 36.0625
Q49.125 32.4219 49.125 28.2188
Q49.125 21.7812 45.8281 14.8906
Q42.5312 8.01562 36.8906 3.4375
Q31.25 -1.125 24.8125 -1.125
Q21.875 -1.125 19.5 0.53125
Q17.1406 2.20312 15.8281 4.89062
L11.2812 -12.8906
Q11.0312 -14.3594 10.9844 -14.5938
Q10.9844 -15.9219 17.5781 -15.9219
Q18.6094 -15.9219 18.6094 -17.1875
Q18.2656 -18.5 18.0469 -18.9375
Q17.8281 -19.3906 16.8906 -19.3906
z

M24.9062 1.51562
Q28.375 1.51562 31.3438 4.375
Q34.3281 7.23438 36.1875 10.7969
Q37.5469 13.4844 38.7344 17.3594
Q39.9375 21.2344 40.8125 25.625
Q41.7031 30.0312 41.7031 32.625
Q41.7031 34.9062 41.0938 36.9062
Q40.4844 38.9219 39.0938 40.2656
Q37.7031 41.6094 35.4062 41.6094
Q31.7344 41.6094 28.4844 38.9844
Q25.25 36.375 22.6094 32.5156
L22.6094 32.1719
L17.0938 10.1094
Q17.7812 6.54688 19.7344 4.03125
Q21.6875 1.51562 24.9062 1.51562" id="Cmmi10-70"/>
     <path d="
M40.4375 19
L49.0781 17.875
Q47.6562 8.9375 41.8125 3.875
Q35.9844 -1.17188 27.4844 -1.17188
Q16.8438 -1.17188 10.375 5.78125
Q3.90625 12.75 3.90625 25.7344
Q3.90625 34.125 6.6875 40.4219
Q9.46875 46.7344 15.1562 49.875
Q20.8438 53.0312 27.5469 53.0312
Q35.9844 53.0312 41.3594 48.75
Q46.7344 44.4844 48.25 36.625
L39.7031 35.2969
Q38.4844 40.5312 35.375 43.1562
Q32.2812 45.7969 27.875 45.7969
Q21.2344 45.7969 17.0781 41.0312
Q12.9375 36.2812 12.9375 25.9844
Q12.9375 15.5312 16.9375 10.7969
Q20.9531 6.0625 27.3906 6.0625
Q32.5625 6.0625 36.0312 9.23438
Q39.5 12.4062 40.4375 19" id="ArialMT-63"/>
     <path id="ArialMT-20"/>
     <path d="
M52.8281 42.0938
L5.5625 42.0938
L5.5625 50.2969
L52.8281 50.2969
z

M52.8281 20.3594
L5.5625 20.3594
L5.5625 28.5625
L52.8281 28.5625
z
" id="ArialMT-3d"/>
     <path d="
M8.89062 0
L8.89062 10.0156
L18.8906 10.0156
L18.8906 0
Q18.8906 -5.51562 16.9375 -8.90625
Q14.9844 -12.3125 10.75 -14.1562
L8.29688 -10.4062
Q11.0781 -9.1875 12.3906 -6.8125
Q13.7188 -4.4375 13.875 0
z
" id="ArialMT-2c"/>
     <path d="
M2.39062 7.42188
Q1.95312 7.42188 1.46875 7.95312
Q0.984375 8.5 0.984375 8.98438
Q0.984375 9.8125 9.28125 17.3906
Q9.28125 17.8281 9.25 18.1094
Q9.23438 18.4062 9.1875 18.7031
Q9.1875 23 9.85938 27.4688
Q10.5469 31.9375 11.7344 36.375
Q12.9375 40.8281 14.7344 45.6562
Q16.5469 50.4844 18.4062 54.1094
Q21.625 60.6875 25.4375 65.5938
Q29.25 70.5156 33.8906 70.5156
Q37.0625 70.5156 38.4219 68.3281
Q39.7969 66.1562 39.7969 62.8906
Q39.7969 44.5781 15.4844 19.8281
Q15.0938 15.5312 15.0938 13.7188
Q15.0938 1.21875 20.7969 1.21875
Q23.25 1.21875 25.6562 2.51562
Q28.0781 3.8125 29.8125 5.32812
Q31.5469 6.84375 34.625 9.8125
Q34.8125 10.0156 35.2031 10.0156
Q35.75 10.0156 36.2344 9.42188
Q36.7188 8.84375 36.7188 8.29688
Q36.7188 7.95312 36.2812 7.625
Q31.8438 3.26562 28.2656 0.875
Q24.7031 -1.51562 20.6094 -1.51562
Q15.3281 -1.51562 12.7656 3.01562
Q10.2031 7.5625 9.51562 13.8125
Q6.84375 11.1406 2.98438 7.625
Q2.875 7.42188 2.39062 7.42188
M16.3125 24.6094
Q21.625 30.2812 26.2656 36.5312
Q30.9062 42.7812 34 49.6875
Q37.1094 56.5938 37.1094 63.1875
Q37.1094 67.9219 33.7969 67.9219
Q30.2188 67.9219 26.5 59.3906
Q22.7969 50.875 20.1562 40.9688
Q17.5312 31.0625 16.3125 24.6094" id="Cmmi10-60"/>
     <path d="
M4.20312 18.8906
L12.9844 20.0625
Q14.5 12.5938 18.1406 9.29688
Q21.7812 6 27 6
Q33.2031 6 37.4688 10.2969
Q41.75 14.5938 41.75 20.9531
Q41.75 27 37.7969 30.9219
Q33.8438 34.8594 27.7344 34.8594
Q25.25 34.8594 21.5312 33.8906
L22.5156 41.6094
Q23.3906 41.5 23.9219 41.5
Q29.5469 41.5 34.0312 44.4219
Q38.5312 47.3594 38.5312 53.4688
Q38.5312 58.2969 35.25 61.4688
Q31.9844 64.6562 26.8125 64.6562
Q21.6875 64.6562 18.2656 61.4219
Q14.8438 58.2031 13.875 51.7656
L5.07812 53.3281
Q6.6875 62.1562 12.3906 67.0156
Q18.1094 71.875 26.6094 71.875
Q32.4688 71.875 37.3906 69.3594
Q42.3281 66.8438 44.9375 62.5
Q47.5625 58.1562 47.5625 53.2656
Q47.5625 48.6406 45.0625 44.8281
Q42.5781 41.0156 37.7031 38.7656
Q44.0469 37.3125 47.5625 32.6875
Q51.0781 28.0781 51.0781 21.1406
Q51.0781 11.7656 44.2344 5.25
Q37.4062 -1.26562 26.9531 -1.26562
Q17.5312 -1.26562 11.2969 4.34375
Q5.07812 9.96875 4.20312 18.8906" id="ArialMT-33"/>
    </defs>
    <g transform="translate(36.4096 35.9472)scale(0.07 -0.07)">
     <use transform="translate(0.0 0.125)" xlink:href="#ArialMT-63"/>
     <use transform="translate(50.0 0.125)" xlink:href="#ArialMT-20"/>
     <use transform="translate(77.783203125 0.125)" xlink:href="#ArialMT-3d"/>
     <use transform="translate(136.181640625 0.125)" xlink:href="#ArialMT-20"/>
     <use transform="translate(163.96484375 0.125)" xlink:href="#ArialMT-33"/>
     <use transform="translate(219.580078125 0.125)" xlink:href="#ArialMT-35"/>
     <use transform="translate(275.1953125 0.125)" xlink:href="#ArialMT-2c"/>
     <use transform="translate(302.978515625 0.125)" xlink:href="#ArialMT-20"/>
     <use transform="translate(330.76171875 0.125)" xlink:href="#Cmmi10-60"/>
     <use transform="translate(372.36328125 -25.384375000000006)scale(0.7)" xlink:href="#Cmmi10-70"/>
     <use transform="translate(422.65625 0.125)" xlink:href="#ArialMT-20"/>
     <use transform="translate(450.439453125 0.125)" xlink:href="#ArialMT-3d"/>
     <use transform="translate(508.837890625 0.125)" xlink:href="#ArialMT-20"/>
     <use transform="translate(536.62109375 0.125)" xlink:href="#ArialMT-34"/>
     <use transform="translate(592.236328125 0.125)" xlink:href="#ArialMT-30"/>
    </g>
   </g>
  </g>
  <g id="axes_2">
   <g id="patch_7">
    <path d="
M137.618 88.36
L235.987 88.36
L235.987 28.8
L137.618 28.8
z
" style="fill:#ffffff;"/>
   </g>
   <g id="patch_8">
    <path clip-path="url(#p1cb38098c2)" d="
M141.552 88.36
L141.552 88.36
L143.52 88.36
L143.52 88.36
L145.487 88.36
L145.487 88.36
L147.454 88.36
L147.454 88.36
L149.422 88.36
L149.422 88.36
L151.389 88.36
L151.389 88.36
L153.357 88.36
L153.357 87.8158
L155.324 87.8158
L155.324 87.5436
L157.292 87.5436
L157.292 82.9176
L159.259 82.9176
L159.259 81.2849
L161.226 81.2849
L161.226 78.0195
L163.194 78.0195
L163.194 67.679
L165.161 67.679
L165.161 66.8626
L167.129 66.8626
L167.129 61.9645
L169.096 61.9645
L169.096 55.4336
L171.063 55.4336
L171.063 55.7057
L173.031 55.7057
L173.031 54.6173
L174.998 54.6173
L174.998 48.6307
L176.965 48.6307
L176.965 60.6039
L178.933 60.6039
L178.933 55.7057
L180.9 55.7057
L180.9 58.6991
L182.868 58.6991
L182.868 63.5972
L184.835 63.5972
L184.835 70.9444
L186.803 70.9444
L186.803 66.5905
L188.77 66.5905
L188.77 66.5905
L190.737 66.5905
L190.737 73.9377
L192.705 73.9377
L192.705 76.931
L194.672 76.931
L194.672 77.7474
L196.639 77.7474
L196.639 79.108
L198.607 79.108
L198.607 81.8291
L200.574 81.8291
L200.574 84.5503
L202.542 84.5503
L202.542 86.183
L204.509 86.183
L204.509 85.9109
L206.476 85.9109
L206.476 85.9109
L208.444 85.9109
L208.444 86.4552
L210.411 86.4552
L210.411 87.5436
L212.379 87.5436
L212.379 88.0879
L214.346 88.0879
L214.346 87.8158
L216.313 87.8158
L216.313 87.5436
L218.281 87.5436
L218.281 88.0879
L220.248 88.0879
L220.248 87.8158
L222.216 87.8158
L222.216 88.36
L224.183 88.36
L224.183 88.0879
L226.15 88.0879
L226.15 88.36
L228.118 88.36
L228.118 88.0879
L230.085 88.0879
L230.085 88.36
L232.053 88.36
L232.053 88.36
L234.02 88.36
L234.02 88.36
L232.053 88.36
L232.053 88.36
L230.085 88.36
L230.085 88.36
L228.118 88.36
L228.118 88.36
L226.15 88.36
L226.15 88.36
L224.183 88.36
L224.183 88.36
L222.216 88.36
L222.216 88.36
L220.248 88.36
L220.248 88.36
L218.281 88.36
L218.281 88.36
L216.313 88.36
L216.313 88.36
L214.346 88.36
L214.346 88.36
L212.379 88.36
L212.379 88.36
L210.411 88.36
L210.411 88.36
L208.444 88.36
L208.444 88.36
L206.476 88.36
L206.476 88.36
L204.509 88.36
L204.509 88.36
L202.542 88.36
L202.542 88.36
L200.574 88.36
L200.574 88.36
L198.607 88.36
L198.607 88.36
L196.639 88.36
L196.639 88.36
L194.672 88.36
L194.672 88.36
L192.705 88.36
L192.705 88.36
L190.737 88.36
L190.737 88.36
L188.77 88.36
L188.77 88.36
L186.803 88.36
L186.803 88.36
L184.835 88.36
L184.835 88.36
L182.868 88.36
L182.868 88.36
L180.9 88.36
L180.9 88.36
L178.933 88.36
L178.933 88.36
L176.965 88.36
L176.965 88.36
L174.998 88.36
L174.998 88.36
L173.031 88.36
L173.031 88.36
L171.063 88.36
L171.063 88.36
L169.096 88.36
L169.096 88.36
L167.129 88.36
L167.129 88.36
L165.161 88.36
L165.161 88.36
L163.194 88.36
L163.194 88.36
L161.226 88.36
L161.226 88.36
L159.259 88.36
L159.259 88.36
L157.292 88.36
L157.292 88.36
L155.324 88.36
L155.324 88.36
L153.357 88.36
L153.357 88.36
L151.389 88.36
L151.389 88.36
L149.422 88.36
L149.422 88.36
L147.454 88.36
L147.454 88.36
L145.487 88.36
L145.487 88.36
L143.52 88.36
L143.52 88.36
z
" style="fill:#333333;stroke:#000000;stroke-linejoin:miter;"/>
   </g>
   <g id="patch_9">
    <path clip-path="url(#p1cb38098c2)" d="
M141.552 88.36
L141.552 88.36
L143.52 88.36
L143.52 88.36
L145.487 88.36
L145.487 88.36
L147.454 88.36
L147.454 88.36
L149.422 88.36
L149.422 88.36
L151.389 88.36
L151.389 88.36
L153.357 88.36
L153.357 88.3028
L155.324 88.3028
L155.324 87.8501
L157.292 87.8501
L157.292 86.4397
L159.259 86.4397
L159.259 83.1613
L161.226 83.1613
L161.226 77.0526
L163.194 77.0526
L163.194 71.2964
L165.161 71.2964
L165.161 67.8703
L167.129 67.8703
L167.129 66.4742
L169.096 66.4742
L169.096 64.0392
L171.063 64.0392
L171.063 63.0195
L173.031 63.0195
L173.031 61.0134
L174.998 61.0134
L174.998 60.4035
L176.965 60.4035
L176.965 61.3327
L178.933 61.3327
L178.933 61.4185
L180.9 61.4185
L180.9 61.7806
L182.868 61.7806
L182.868 63.0481
L184.835 63.0481
L184.835 64.7921
L186.803 64.7921
L186.803 66.5171
L188.77 66.5171
L188.77 68.3135
L190.737 68.3135
L190.737 70.2052
L192.705 70.2052
L192.705 72.4495
L194.672 72.4495
L194.672 74.0506
L196.639 74.0506
L196.639 75.4086
L198.607 75.4086
L198.607 77.3289
L200.574 77.3289
L200.574 78.8299
L202.542 78.8299
L202.542 79.964
L204.509 79.964
L204.509 81.222
L206.476 81.222
L206.476 82.4799
L208.444 82.4799
L208.444 83.5902
L210.411 83.5902
L210.411 84.5003
L212.379 84.5003
L212.379 85.439
L214.346 85.439
L214.346 86.3301
L216.313 86.3301
L216.313 86.8495
L218.281 86.8495
L218.281 87.0306
L220.248 87.0306
L220.248 87.5881
L222.216 87.5881
L222.216 87.8406
L224.183 87.8406
L224.183 88.0217
L226.15 88.0217
L226.15 88.1599
L228.118 88.1599
L228.118 88.2409
L230.085 88.2409
L230.085 88.2933
L232.053 88.2933
L232.053 88.3314
L234.02 88.3314
L234.02 88.36
L232.053 88.36
L232.053 88.36
L230.085 88.36
L230.085 88.36
L228.118 88.36
L228.118 88.36
L226.15 88.36
L226.15 88.36
L224.183 88.36
L224.183 88.36
L222.216 88.36
L222.216 88.36
L220.248 88.36
L220.248 88.36
L218.281 88.36
L218.281 88.36
L216.313 88.36
L216.313 88.36
L214.346 88.36
L214.346 88.36
L212.379 88.36
L212.379 88.36
L210.411 88.36
L210.411 88.36
L208.444 88.36
L208.444 88.36
L206.476 88.36
L206.476 88.36
L204.509 88.36
L204.509 88.36
L202.542 88.36
L202.542 88.36
L200.574 88.36
L200.574 88.36
L198.607 88.36
L198.607 88.36
L196.639 88.36
L196.639 88.36
L194.672 88.36
L194.672 88.36
L192.705 88.36
L192.705 88.36
L190.737 88.36
L190.737 88.36
L188.77 88.36
L188.77 88.36
L186.803 88.36
L186.803 88.36
L184.835 88.36
L184.835 88.36
L182.868 88.36
L182.868 88.36
L180.9 88.36
L180.9 88.36
L178.933 88.36
L178.933 88.36
L176.965 88.36
L176.965 88.36
L174.998 88.36
L174.998 88.36
L173.031 88.36
L173.031 88.36
L171.063 88.36
L171.063 88.36
L169.096 88.36
L169.096 88.36
L167.129 88.36
L167.129 88.36
L165.161 88.36
L165.161 88.36
L163.194 88.36
L163.194 88.36
L161.226 88.36
L161.226 88.36
L159.259 88.36
L159.259 88.36
L157.292 88.36
L157.292 88.36
L155.324 88.36
L155.324 88.36
L153.357 88.36
L153.357 88.36
L151.389 88.36
L151.389 88.36
L149.422 88.36
L149.422 88.36
L147.454 88.36
L147.454 88.36
L145.487 88.36
L145.487 88.36
L143.52 88.36
L143.52 88.36
z
" style="fill:#aaaaaa;opacity:0.5;stroke:#000000;stroke-linejoin:miter;"/>
   </g>
   <g id="patch_10">
    <path d="
M137.618 88.36
L235.987 88.36" style="fill:none;stroke:#000000;stroke-linecap:square;stroke-linejoin:miter;stroke-width:0.5;"/>
   </g>
   <g id="patch_11">
    <path d="
M137.618 88.36
L137.618 28.8" style="fill:none;stroke:#000000;stroke-linecap:square;stroke-linejoin:miter;stroke-width:0.5;"/>
   </g>
   <g id="matplotlib.axis_3">
    <g id="xtick_7">
     <g id="line2d_13">
      <g>
       <use style="stroke:#000000;stroke-width:0.5;" x="137.6175" xlink:href="#mc7db9fdffb" y="88.36"/>
      </g>
     </g>
    </g>
    <g id="xtick_8">
     <g id="line2d_14">
      <g>
       <use style="stroke:#000000;stroke-width:0.5;" x="157.2915" xlink:href="#mc7db9fdffb" y="88.36"/>
      </g>
     </g>
    </g>
    <g id="xtick_9">
     <g id="line2d_15">
      <g>
       <use style="stroke:#000000;stroke-width:0.5;" x="176.9655" xlink:href="#mc7db9fdffb" y="88.36"/>
      </g>
     </g>
    </g>
    <g id="xtick_10">
     <g id="line2d_16">
      <g>
       <use style="stroke:#000000;stroke-width:0.5;" x="196.6395" xlink:href="#mc7db9fdffb" y="88.36"/>
      </g>
     </g>
    </g>
    <g id="xtick_11">
     <g id="line2d_17">
      <g>
       <use style="stroke:#000000;stroke-width:0.5;" x="216.3135" xlink:href="#mc7db9fdffb" y="88.36"/>
      </g>
     </g>
    </g>
    <g id="xtick_12">
     <g id="line2d_18">
      <g>
       <use style="stroke:#000000;stroke-width:0.5;" x="235.9875" xlink:href="#mc7db9fdffb" y="88.36"/>
      </g>
     </g>
    </g>
   </g>
   <g id="matplotlib.axis_4">
    <g id="ytick_7">
     <g id="line2d_19">
      <g>
       <use style="stroke:#000000;stroke-width:0.5;" x="137.6175" xlink:href="#md7965d1ba0" y="88.36"/>
      </g>
     </g>
    </g>
    <g id="ytick_8">
     <g id="line2d_20">
      <g>
       <use style="stroke:#000000;stroke-width:0.5;" x="137.6175" xlink:href="#md7965d1ba0" y="76.448"/>
      </g>
     </g>
    </g>
    <g id="ytick_9">
     <g id="line2d_21">
      <g>
       <use style="stroke:#000000;stroke-width:0.5;" x="137.6175" xlink:href="#md7965d1ba0" y="64.536"/>
      </g>
     </g>
    </g>
    <g id="ytick_10">
     <g id="line2d_22">
      <g>
       <use style="stroke:#000000;stroke-width:0.5;" x="137.6175" xlink:href="#md7965d1ba0" y="52.624"/>
      </g>
     </g>
    </g>
    <g id="ytick_11">
     <g id="line2d_23">
      <g>
       <use style="stroke:#000000;stroke-width:0.5;" x="137.6175" xlink:href="#md7965d1ba0" y="40.712"/>
      </g>
     </g>
    </g>
    <g id="ytick_12">
     <g id="line2d_24">
      <g>
       <use style="stroke:#000000;stroke-width:0.5;" x="137.6175" xlink:href="#md7965d1ba0" y="28.8"/>
      </g>
     </g>
    </g>
   </g>
   <g id="text_8">
    <!-- c = 55, $\ell_p$ = 100 -->
    <g transform="translate(145.4871 35.9472)scale(0.07 -0.07)">
     <use transform="translate(0.0 0.125)" xlink:href="#ArialMT-63"/>
     <use transform="translate(50.0 0.125)" xlink:href="#ArialMT-20"/>
     <use transform="translate(77.783203125 0.125)" xlink:href="#ArialMT-3d"/>
     <use transform="translate(136.181640625 0.125)" xlink:href="#ArialMT-20"/>
     <use transform="translate(163.96484375 0.125)" xlink:href="#ArialMT-35"/>
     <use transform="translate(219.580078125 0.125)" xlink:href="#ArialMT-35"/>
     <use transform="translate(275.1953125 0.125)" xlink:href="#ArialMT-2c"/>
     <use transform="translate(302.978515625 0.125)" xlink:href="#ArialMT-20"/>
     <use transform="translate(330.76171875 0.125)" xlink:href="#Cmmi10-60"/>
     <use transform="translate(372.36328125 -25.384375000000006)scale(0.7)" xlink:href="#Cmmi10-70"/>
     <use transform="translate(422.65625 0.125)" xlink:href="#ArialMT-20"/>
     <use transform="translate(450.439453125 0.125)" xlink:href="#ArialMT-3d"/>
     <use transform="translate(508.837890625 0.125)" xlink:href="#ArialMT-20"/>
     <use transform="translate(536.62109375 0.125)" xlink:href="#ArialMT-31"/>
     <use transform="translate(592.236328125 0.125)" xlink:href="#ArialMT-30"/>
     <use transform="translate(647.8515625 0.125)" xlink:href="#ArialMT-30"/>
    </g>
   </g>
  </g>
  <g id="axes_3">
   <g id="patch_12">
    <path d="
M28.54 161.96
L126.91 161.96
L126.91 102.4
L28.54 102.4
z
" style="fill:#ffffff;"/>
   </g>
   <g id="patch_13">
    <path clip-path="url(#p9df077d6cd)" d="
M32.4748 161.96
L32.4748 161.96
L34.4422 161.96
L34.4422 161.96
L36.4096 161.96
L36.4096 161.96
L38.377 161.96
L38.377 161.96
L40.3444 161.96
L40.3444 161.96
L42.3118 161.96
L42.3118 161.96
L44.2792 161.96
L44.2792 161.416
L46.2466 161.416
L46.2466 161.144
L48.214 161.144
L48.214 156.518
L50.1814 156.518
L50.1814 154.885
L52.1488 154.885
L52.1488 151.619
L54.1162 151.619
L54.1162 141.279
L56.0836 141.279
L56.0836 140.463
L58.051 140.463
L58.051 135.564
L60.0184 135.564
L60.0184 129.034
L61.9858 129.034
L61.9858 129.306
L63.9532 129.306
L63.9532 128.217
L65.9206 128.217
L65.9206 122.231
L67.888 122.231
L67.888 134.204
L69.8554 134.204
L69.8554 129.306
L71.8228 129.306
L71.8228 132.299
L73.7902 132.299
L73.7902 137.197
L75.7576 137.197
L75.7576 144.544
L77.725 144.544
L77.725 140.19
L79.6924 140.19
L79.6924 140.19
L81.6598 140.19
L81.6598 147.538
L83.6272 147.538
L83.6272 150.531
L85.5946 150.531
L85.5946 151.347
L87.562 151.347
L87.562 152.708
L89.5294 152.708
L89.5294 155.429
L91.4968 155.429
L91.4968 158.15
L93.4642 158.15
L93.4642 159.783
L95.4316 159.783
L95.4316 159.511
L97.399 159.511
L97.399 159.511
L99.3664 159.511
L99.3664 160.055
L101.334 160.055
L101.334 161.144
L103.301 161.144
L103.301 161.688
L105.269 161.688
L105.269 161.416
L107.236 161.416
L107.236 161.144
L109.203 161.144
L109.203 161.688
L111.171 161.688
L111.171 161.416
L113.138 161.416
L113.138 161.96
L115.106 161.96
L115.106 161.688
L117.073 161.688
L117.073 161.96
L119.04 161.96
L119.04 161.688
L121.008 161.688
L121.008 161.96
L122.975 161.96
L122.975 161.96
L124.943 161.96
L124.943 161.96
L122.975 161.96
L122.975 161.96
L121.008 161.96
L121.008 161.96
L119.04 161.96
L119.04 161.96
L117.073 161.96
L117.073 161.96
L115.106 161.96
L115.106 161.96
L113.138 161.96
L113.138 161.96
L111.171 161.96
L111.171 161.96
L109.203 161.96
L109.203 161.96
L107.236 161.96
L107.236 161.96
L105.269 161.96
L105.269 161.96
L103.301 161.96
L103.301 161.96
L101.334 161.96
L101.334 161.96
L99.3664 161.96
L99.3664 161.96
L97.399 161.96
L97.399 161.96
L95.4316 161.96
L95.4316 161.96
L93.4642 161.96
L93.4642 161.96
L91.4968 161.96
L91.4968 161.96
L89.5294 161.96
L89.5294 161.96
L87.562 161.96
L87.562 161.96
L85.5946 161.96
L85.5946 161.96
L83.6272 161.96
L83.6272 161.96
L81.6598 161.96
L81.6598 161.96
L79.6924 161.96
L79.6924 161.96
L77.725 161.96
L77.725 161.96
L75.7576 161.96
L75.7576 161.96
L73.7902 161.96
L73.7902 161.96
L71.8228 161.96
L71.8228 161.96
L69.8554 161.96
L69.8554 161.96
L67.888 161.96
L67.888 161.96
L65.9206 161.96
L65.9206 161.96
L63.9532 161.96
L63.9532 161.96
L61.9858 161.96
L61.9858 161.96
L60.0184 161.96
L60.0184 161.96
L58.051 161.96
L58.051 161.96
L56.0836 161.96
L56.0836 161.96
L54.1162 161.96
L54.1162 161.96
L52.1488 161.96
L52.1488 161.96
L50.1814 161.96
L50.1814 161.96
L48.214 161.96
L48.214 161.96
L46.2466 161.96
L46.2466 161.96
L44.2792 161.96
L44.2792 161.96
L42.3118 161.96
L42.3118 161.96
L40.3444 161.96
L40.3444 161.96
L38.377 161.96
L38.377 161.96
L36.4096 161.96
L36.4096 161.96
L34.4422 161.96
L34.4422 161.96
z
" style="fill:#333333;stroke:#000000;stroke-linejoin:miter;"/>
   </g>
   <g id="patch_14">
    <path clip-path="url(#p9df077d6cd)" d="
M32.4748 161.96
L32.4748 161.96
L34.4422 161.96
L34.4422 161.96
L36.4096 161.96
L36.4096 161.96
L38.377 161.96
L38.377 161.96
L40.3444 161.96
L40.3444 161.96
L42.3118 161.96
L42.3118 161.96
L44.2792 161.96
L44.2792 161.96
L46.2466 161.96
L46.2466 161.955
L48.214 161.955
L48.214 161.866
L50.1814 161.866
L50.1814 161.648
L52.1488 161.648
L52.1488 161.094
L54.1162 161.094
L54.1162 160.15
L56.0836 160.15
L56.0836 158.621
L58.051 158.621
L58.051 156.761
L60.0184 156.761
L60.0184 154.57
L61.9858 154.57
L61.9858 151.81
L63.9532 151.81
L63.9532 149.198
L65.9206 149.198
L65.9206 146.735
L67.888 146.735
L67.888 144.652
L69.8554 144.652
L69.8554 143.356
L71.8228 143.356
L71.8228 142.233
L73.7902 142.233
L73.7902 141.343
L75.7576 141.343
L75.7576 140.378
L77.725 140.378
L77.725 139.76
L79.6924 139.76
L79.6924 140.26
L81.6598 140.26
L81.6598 140.027
L83.6272 140.027
L83.6272 140.369
L85.5946 140.369
L85.5946 140.843
L87.562 140.843
L87.562 141.773
L89.5294 141.773
L89.5294 142.822
L91.4968 142.822
L91.4968 143.609
L93.4642 143.609
L93.4642 144.776
L95.4316 144.776
L95.4316 145.493
L97.399 145.493
L97.399 146.601
L99.3664 146.601
L99.3664 148.293
L101.334 148.293
L101.334 148.931
L103.301 148.931
L103.301 150.049
L105.269 150.049
L105.269 151.464
L107.236 151.464
L107.236 151.909
L109.203 151.909
L109.203 153.437
L111.171 153.437
L111.171 154.323
L113.138 154.323
L113.138 155.079
L115.106 155.079
L115.106 155.906
L117.073 155.906
L117.073 156.558
L119.04 156.558
L119.04 157.068
L121.008 157.068
L121.008 157.825
L122.975 157.825
L122.975 158.374
L124.943 158.374
L124.943 161.96
L122.975 161.96
L122.975 161.96
L121.008 161.96
L121.008 161.96
L119.04 161.96
L119.04 161.96
L117.073 161.96
L117.073 161.96
L115.106 161.96
L115.106 161.96
L113.138 161.96
L113.138 161.96
L111.171 161.96
L111.171 161.96
L109.203 161.96
L109.203 161.96
L107.236 161.96
L107.236 161.96
L105.269 161.96
L105.269 161.96
L103.301 161.96
L103.301 161.96
L101.334 161.96
L101.334 161.96
L99.3664 161.96
L99.3664 161.96
L97.399 161.96
L97.399 161.96
L95.4316 161.96
L95.4316 161.96
L93.4642 161.96
L93.4642 161.96
L91.4968 161.96
L91.4968 161.96
L89.5294 161.96
L89.5294 161.96
L87.562 161.96
L87.562 161.96
L85.5946 161.96
L85.5946 161.96
L83.6272 161.96
L83.6272 161.96
L81.6598 161.96
L81.6598 161.96
L79.6924 161.96
L79.6924 161.96
L77.725 161.96
L77.725 161.96
L75.7576 161.96
L75.7576 161.96
L73.7902 161.96
L73.7902 161.96
L71.8228 161.96
L71.8228 161.96
L69.8554 161.96
L69.8554 161.96
L67.888 161.96
L67.888 161.96
L65.9206 161.96
L65.9206 161.96
L63.9532 161.96
L63.9532 161.96
L61.9858 161.96
L61.9858 161.96
L60.0184 161.96
L60.0184 161.96
L58.051 161.96
L58.051 161.96
L56.0836 161.96
L56.0836 161.96
L54.1162 161.96
L54.1162 161.96
L52.1488 161.96
L52.1488 161.96
L50.1814 161.96
L50.1814 161.96
L48.214 161.96
L48.214 161.96
L46.2466 161.96
L46.2466 161.96
L44.2792 161.96
L44.2792 161.96
L42.3118 161.96
L42.3118 161.96
L40.3444 161.96
L40.3444 161.96
L38.377 161.96
L38.377 161.96
L36.4096 161.96
L36.4096 161.96
L34.4422 161.96
L34.4422 161.96
z
" style="fill:#aaaaaa;opacity:0.5;stroke:#000000;stroke-linejoin:miter;"/>
   </g>
   <g id="patch_15">
    <path d="
M28.54 161.96
L126.91 161.96" style="fill:none;stroke:#000000;stroke-linecap:square;stroke-linejoin:miter;stroke-width:0.5;"/>
   </g>
   <g id="patch_16">
    <path d="
M28.54 161.96
L28.54 102.4" style="fill:none;stroke:#000000;stroke-linecap:square;stroke-linejoin:miter;stroke-width:0.5;"/>
   </g>
   <g id="matplotlib.axis_5">
    <g id="xtick_13">
     <g id="line2d_25">
      <g>
       <use style="stroke:#000000;stroke-width:0.5;" x="28.54" xlink:href="#mc7db9fdffb" y="161.96"/>
      </g>
     </g>
     <g id="text_9">
      <!-- 0 -->
      <g transform="translate(26.906484375 170.97046875)scale(0.07 -0.07)">
       <use xlink:href="#ArialMT-30"/>
      </g>
     </g>
    </g>
    <g id="xtick_14">
     <g id="line2d_26">
      <g>
       <use style="stroke:#000000;stroke-width:0.5;" x="48.214" xlink:href="#mc7db9fdffb" y="161.96"/>
      </g>
     </g>
     <g id="text_10">
      <!-- 50 -->
      <g transform="translate(44.63415625 170.97046875)scale(0.07 -0.07)">
       <use xlink:href="#ArialMT-35"/>
       <use x="55.615234375" xlink:href="#ArialMT-30"/>
      </g>
     </g>
    </g>
    <g id="xtick_15">
     <g id="line2d_27">
      <g>
       <use style="stroke:#000000;stroke-width:0.5;" x="67.888" xlink:href="#mc7db9fdffb" y="161.96"/>
      </g>
     </g>
     <g id="text_11">
      <!-- 100 -->
      <g transform="translate(62.59753125 170.97046875)scale(0.07 -0.07)">
       <use xlink:href="#ArialMT-31"/>
       <use x="55.615234375" xlink:href="#ArialMT-30"/>
       <use x="111.23046875" xlink:href="#ArialMT-30"/>
      </g>
     </g>
    </g>
    <g id="xtick_16">
     <g id="line2d_28">
      <g>
       <use style="stroke:#000000;stroke-width:0.5;" x="87.562" xlink:href="#mc7db9fdffb" y="161.96"/>
      </g>
     </g>
     <g id="text_12">
      <!-- 150 -->
      <g transform="translate(82.27153125 170.97046875)scale(0.07 -0.07)">
       <use xlink:href="#ArialMT-31"/>
       <use x="55.615234375" xlink:href="#ArialMT-35"/>
       <use x="111.23046875" xlink:href="#ArialMT-30"/>
      </g>
     </g>
    </g>
    <g id="xtick_17">
     <g id="line2d_29">
      <g>
       <use style="stroke:#000000;stroke-width:0.5;" x="107.236" xlink:href="#mc7db9fdffb" y="161.96"/>
      </g>
     </g>
     <g id="text_13">
      <!-- 200 -->
      <g transform="translate(101.667171875 170.97046875)scale(0.07 -0.07)">
       <use xlink:href="#ArialMT-32"/>
       <use x="55.615234375" xlink:href="#ArialMT-30"/>
       <use x="111.23046875" xlink:href="#ArialMT-30"/>
      </g>
     </g>
    </g>
    <g id="xtick_18">
     <g id="line2d_30">
      <g>
       <use style="stroke:#000000;stroke-width:0.5;" x="126.91" xlink:href="#mc7db9fdffb" y="161.96"/>
      </g>
     </g>
     <g id="text_14">
      <!-- 250 -->
      <g transform="translate(121.341171875 170.97046875)scale(0.07 -0.07)">
       <use xlink:href="#ArialMT-32"/>
       <use x="55.615234375" xlink:href="#ArialMT-35"/>
       <use x="111.23046875" xlink:href="#ArialMT-30"/>
      </g>
     </g>
    </g>
   </g>
   <g id="matplotlib.axis_6">
    <g id="ytick_13">
     <g id="line2d_31">
      <g>
       <use style="stroke:#000000;stroke-width:0.5;" x="28.54" xlink:href="#md7965d1ba0" y="161.96"/>
      </g>
     </g>
     <g id="text_15">
      <!-- 0.000 -->
      <g transform="translate(7.6503125 163.769609375)scale(0.07 -0.07)">
       <use xlink:href="#ArialMT-30"/>
       <use x="55.615234375" xlink:href="#ArialMT-2e"/>
       <use x="83.3984375" xlink:href="#ArialMT-30"/>
       <use x="139.013671875" xlink:href="#ArialMT-30"/>
       <use x="194.62890625" xlink:href="#ArialMT-30"/>
      </g>
     </g>
    </g>
    <g id="ytick_14">
     <g id="line2d_32">
      <g>
       <use style="stroke:#000000;stroke-width:0.5;" x="28.54" xlink:href="#md7965d1ba0" y="150.048"/>
      </g>
     </g>
     <g id="text_16">
      <!-- 0.005 -->
      <g transform="translate(7.595625 151.857609375)scale(0.07 -0.07)">
       <use xlink:href="#ArialMT-30"/>
       <use x="55.615234375" xlink:href="#ArialMT-2e"/>
       <use x="83.3984375" xlink:href="#ArialMT-30"/>
       <use x="139.013671875" xlink:href="#ArialMT-30"/>
       <use x="194.62890625" xlink:href="#ArialMT-35"/>
      </g>
     </g>
    </g>
    <g id="ytick_15">
     <g id="line2d_33">
      <g>
       <use style="stroke:#000000;stroke-width:0.5;" x="28.54" xlink:href="#md7965d1ba0" y="138.136"/>
      </g>
     </g>
     <g id="text_17">
      <!-- 0.010 -->
      <g transform="translate(7.6503125 139.945609375)scale(0.07 -0.07)">
       <use xlink:href="#ArialMT-30"/>
       <use x="55.615234375" xlink:href="#ArialMT-2e"/>
       <use x="83.3984375" xlink:href="#ArialMT-30"/>
       <use x="139.013671875" xlink:href="#ArialMT-31"/>
       <use x="194.62890625" xlink:href="#ArialMT-30"/>
      </g>
     </g>
    </g>
    <g id="ytick_16">
     <g id="line2d_34">
      <g>
       <use style="stroke:#000000;stroke-width:0.5;" x="28.54" xlink:href="#md7965d1ba0" y="126.224"/>
      </g>
     </g>
     <g id="text_18">
      <!-- 0.015 -->
      <g transform="translate(7.595625 128.033609375)scale(0.07 -0.07)">
       <use xlink:href="#ArialMT-30"/>
       <use x="55.615234375" xlink:href="#ArialMT-2e"/>
       <use x="83.3984375" xlink:href="#ArialMT-30"/>
       <use x="139.013671875" xlink:href="#ArialMT-31"/>
       <use x="194.62890625" xlink:href="#ArialMT-35"/>
      </g>
     </g>
    </g>
    <g id="ytick_17">
     <g id="line2d_35">
      <g>
       <use style="stroke:#000000;stroke-width:0.5;" x="28.54" xlink:href="#md7965d1ba0" y="114.312"/>
      </g>
     </g>
     <g id="text_19">
      <!-- 0.020 -->
      <g transform="translate(7.6503125 116.121609375)scale(0.07 -0.07)">
       <use xlink:href="#ArialMT-30"/>
       <use x="55.615234375" xlink:href="#ArialMT-2e"/>
       <use x="83.3984375" xlink:href="#ArialMT-30"/>
       <use x="139.013671875" xlink:href="#ArialMT-32"/>
       <use x="194.62890625" xlink:href="#ArialMT-30"/>
      </g>
     </g>
    </g>
    <g id="ytick_18">
     <g id="line2d_36">
      <g>
       <use style="stroke:#000000;stroke-width:0.5;" x="28.54" xlink:href="#md7965d1ba0" y="102.4"/>
      </g>
     </g>
     <g id="text_20">
      <!-- 0.025 -->
      <g transform="translate(7.595625 104.209609375)scale(0.07 -0.07)">
       <use xlink:href="#ArialMT-30"/>
       <use x="55.615234375" xlink:href="#ArialMT-2e"/>
       <use x="83.3984375" xlink:href="#ArialMT-30"/>
       <use x="139.013671875" xlink:href="#ArialMT-32"/>
       <use x="194.62890625" xlink:href="#ArialMT-35"/>
      </g>
     </g>
    </g>
   </g>
   <g id="text_21">
    <!-- c = 30, $\ell_p$ = 80 -->
    <defs>
     <path d="
M17.6719 38.8125
Q12.2031 40.8281 9.5625 44.5312
Q6.9375 48.25 6.9375 53.4219
Q6.9375 61.2344 12.5469 66.5469
Q18.1719 71.875 27.4844 71.875
Q36.8594 71.875 42.5781 66.4219
Q48.2969 60.9844 48.2969 53.1719
Q48.2969 48.1875 45.6719 44.5
Q43.0625 40.8281 37.75 38.8125
Q44.3438 36.6719 47.7812 31.875
Q51.2188 27.0938 51.2188 20.4531
Q51.2188 11.2812 44.7188 5.03125
Q38.2344 -1.21875 27.6406 -1.21875
Q17.0469 -1.21875 10.5469 5.04688
Q4.04688 11.3281 4.04688 20.7031
Q4.04688 27.6875 7.59375 32.3906
Q11.1406 37.1094 17.6719 38.8125
M15.9219 53.7188
Q15.9219 48.6406 19.1875 45.4062
Q22.4688 42.1875 27.6875 42.1875
Q32.7656 42.1875 36.0156 45.375
Q39.2656 48.5781 39.2656 53.2188
Q39.2656 58.0625 35.9062 61.3594
Q32.5625 64.6562 27.5938 64.6562
Q22.5625 64.6562 19.2344 61.4219
Q15.9219 58.2031 15.9219 53.7188
M13.0938 20.6562
Q13.0938 16.8906 14.875 13.375
Q16.6562 9.85938 20.1719 7.92188
Q23.6875 6 27.7344 6
Q34.0312 6 38.125 10.0469
Q42.2344 14.1094 42.2344 20.3594
Q42.2344 26.7031 38.0156 30.8594
Q33.7969 35.0156 27.4375 35.0156
Q21.2344 35.0156 17.1562 30.9062
Q13.0938 26.8125 13.0938 20.6562" id="ArialMT-38"/>
    </defs>
    <g transform="translate(36.4096 109.5472)scale(0.07 -0.07)">
     <use transform="translate(0.0 0.125)" xlink:href="#ArialMT-63"/>
     <use transform="translate(50.0 0.125)" xlink:href="#ArialMT-20"/>
     <use transform="translate(77.783203125 0.125)" xlink:href="#ArialMT-3d"/>
     <use transform="translate(136.181640625 0.125)" xlink:href="#ArialMT-20"/>
     <use transform="translate(163.96484375 0.125)" xlink:href="#ArialMT-33"/>
     <use transform="translate(219.580078125 0.125)" xlink:href="#ArialMT-30"/>
     <use transform="translate(275.1953125 0.125)" xlink:href="#ArialMT-2c"/>
     <use transform="translate(302.978515625 0.125)" xlink:href="#ArialMT-20"/>
     <use transform="translate(330.76171875 0.125)" xlink:href="#Cmmi10-60"/>
     <use transform="translate(372.36328125 -25.384375000000006)scale(0.7)" xlink:href="#Cmmi10-70"/>
     <use transform="translate(422.65625 0.125)" xlink:href="#ArialMT-20"/>
     <use transform="translate(450.439453125 0.125)" xlink:href="#ArialMT-3d"/>
     <use transform="translate(508.837890625 0.125)" xlink:href="#ArialMT-20"/>
     <use transform="translate(536.62109375 0.125)" xlink:href="#ArialMT-38"/>
     <use transform="translate(592.236328125 0.125)" xlink:href="#ArialMT-30"/>
    </g>
   </g>
  </g>
  <g id="axes_4">
   <g id="patch_17">
    <path d="
M137.618 161.96
L235.987 161.96
L235.987 102.4
L137.618 102.4
z
" style="fill:#ffffff;"/>
   </g>
   <g id="patch_18">
    <path clip-path="url(#pba72682987)" d="
M141.552 161.96
L141.552 161.96
L143.52 161.96
L143.52 161.96
L145.487 161.96
L145.487 161.96
L147.454 161.96
L147.454 161.96
L149.422 161.96
L149.422 161.96
L151.389 161.96
L151.389 161.96
L153.357 161.96
L153.357 161.416
L155.324 161.416
L155.324 161.144
L157.292 161.144
L157.292 156.518
L159.259 156.518
L159.259 154.885
L161.226 154.885
L161.226 151.619
L163.194 151.619
L163.194 141.279
L165.161 141.279
L165.161 140.463
L167.129 140.463
L167.129 135.564
L169.096 135.564
L169.096 129.034
L171.063 129.034
L171.063 129.306
L173.031 129.306
L173.031 128.217
L174.998 128.217
L174.998 122.231
L176.965 122.231
L176.965 134.204
L178.933 134.204
L178.933 129.306
L180.9 129.306
L180.9 132.299
L182.868 132.299
L182.868 137.197
L184.835 137.197
L184.835 144.544
L186.803 144.544
L186.803 140.19
L188.77 140.19
L188.77 140.19
L190.737 140.19
L190.737 147.538
L192.705 147.538
L192.705 150.531
L194.672 150.531
L194.672 151.347
L196.639 151.347
L196.639 152.708
L198.607 152.708
L198.607 155.429
L200.574 155.429
L200.574 158.15
L202.542 158.15
L202.542 159.783
L204.509 159.783
L204.509 159.511
L206.476 159.511
L206.476 159.511
L208.444 159.511
L208.444 160.055
L210.411 160.055
L210.411 161.144
L212.379 161.144
L212.379 161.688
L214.346 161.688
L214.346 161.416
L216.313 161.416
L216.313 161.144
L218.281 161.144
L218.281 161.688
L220.248 161.688
L220.248 161.416
L222.216 161.416
L222.216 161.96
L224.183 161.96
L224.183 161.688
L226.15 161.688
L226.15 161.96
L228.118 161.96
L228.118 161.688
L230.085 161.688
L230.085 161.96
L232.053 161.96
L232.053 161.96
L234.02 161.96
L234.02 161.96
L232.053 161.96
L232.053 161.96
L230.085 161.96
L230.085 161.96
L228.118 161.96
L228.118 161.96
L226.15 161.96
L226.15 161.96
L224.183 161.96
L224.183 161.96
L222.216 161.96
L222.216 161.96
L220.248 161.96
L220.248 161.96
L218.281 161.96
L218.281 161.96
L216.313 161.96
L216.313 161.96
L214.346 161.96
L214.346 161.96
L212.379 161.96
L212.379 161.96
L210.411 161.96
L210.411 161.96
L208.444 161.96
L208.444 161.96
L206.476 161.96
L206.476 161.96
L204.509 161.96
L204.509 161.96
L202.542 161.96
L202.542 161.96
L200.574 161.96
L200.574 161.96
L198.607 161.96
L198.607 161.96
L196.639 161.96
L196.639 161.96
L194.672 161.96
L194.672 161.96
L192.705 161.96
L192.705 161.96
L190.737 161.96
L190.737 161.96
L188.77 161.96
L188.77 161.96
L186.803 161.96
L186.803 161.96
L184.835 161.96
L184.835 161.96
L182.868 161.96
L182.868 161.96
L180.9 161.96
L180.9 161.96
L178.933 161.96
L178.933 161.96
L176.965 161.96
L176.965 161.96
L174.998 161.96
L174.998 161.96
L173.031 161.96
L173.031 161.96
L171.063 161.96
L171.063 161.96
L169.096 161.96
L169.096 161.96
L167.129 161.96
L167.129 161.96
L165.161 161.96
L165.161 161.96
L163.194 161.96
L163.194 161.96
L161.226 161.96
L161.226 161.96
L159.259 161.96
L159.259 161.96
L157.292 161.96
L157.292 161.96
L155.324 161.96
L155.324 161.96
L153.357 161.96
L153.357 161.96
L151.389 161.96
L151.389 161.96
L149.422 161.96
L149.422 161.96
L147.454 161.96
L147.454 161.96
L145.487 161.96
L145.487 161.96
L143.52 161.96
L143.52 161.96
z
" style="fill:#333333;stroke:#000000;stroke-linejoin:miter;"/>
   </g>
   <g id="patch_19">
    <path clip-path="url(#pba72682987)" d="
M141.552 161.96
L141.552 161.96
L143.52 161.96
L143.52 161.96
L145.487 161.96
L145.487 161.96
L147.454 161.96
L147.454 161.96
L149.422 161.96
L149.422 161.96
L151.389 161.96
L151.389 161.707
L153.357 161.707
L153.357 159.416
L155.324 159.416
L155.324 149.295
L157.292 149.295
L157.292 137.988
L159.259 137.988
L159.259 134.205
L161.226 134.205
L161.226 130.145
L163.194 130.145
L163.194 126.234
L165.161 126.234
L165.161 125.119
L167.129 125.119
L167.129 125.009
L169.096 125.009
L169.096 125.829
L171.063 125.829
L171.063 127.577
L173.031 127.577
L173.031 129.941
L174.998 129.941
L174.998 132.056
L176.965 132.056
L176.965 136.192
L178.933 136.192
L178.933 139.618
L180.9 139.618
L180.9 142.377
L182.868 142.377
L182.868 145.931
L184.835 145.931
L184.835 148.214
L186.803 148.214
L186.803 151.172
L188.77 151.172
L188.77 153.007
L190.737 153.007
L190.737 155.261
L192.705 155.261
L192.705 157.443
L194.672 157.443
L194.672 158.93
L196.639 158.93
L196.639 160.011
L198.607 160.011
L198.607 160.674
L200.574 160.674
L200.574 161.441
L202.542 161.441
L202.542 161.769
L204.509 161.769
L204.509 161.865
L206.476 161.865
L206.476 161.936
L208.444 161.936
L208.444 161.96
L210.411 161.96
L210.411 161.96
L212.379 161.96
L212.379 161.96
L214.346 161.96
L214.346 161.96
L216.313 161.96
L216.313 161.96
L218.281 161.96
L218.281 161.96
L220.248 161.96
L220.248 161.96
L222.216 161.96
L222.216 161.96
L224.183 161.96
L224.183 161.96
L226.15 161.96
L226.15 161.96
L228.118 161.96
L228.118 161.96
L230.085 161.96
L230.085 161.96
L232.053 161.96
L232.053 161.96
L234.02 161.96
L234.02 161.96
L232.053 161.96
L232.053 161.96
L230.085 161.96
L230.085 161.96
L228.118 161.96
L228.118 161.96
L226.15 161.96
L226.15 161.96
L224.183 161.96
L224.183 161.96
L222.216 161.96
L222.216 161.96
L220.248 161.96
L220.248 161.96
L218.281 161.96
L218.281 161.96
L216.313 161.96
L216.313 161.96
L214.346 161.96
L214.346 161.96
L212.379 161.96
L212.379 161.96
L210.411 161.96
L210.411 161.96
L208.444 161.96
L208.444 161.96
L206.476 161.96
L206.476 161.96
L204.509 161.96
L204.509 161.96
L202.542 161.96
L202.542 161.96
L200.574 161.96
L200.574 161.96
L198.607 161.96
L198.607 161.96
L196.639 161.96
L196.639 161.96
L194.672 161.96
L194.672 161.96
L192.705 161.96
L192.705 161.96
L190.737 161.96
L190.737 161.96
L188.77 161.96
L188.77 161.96
L186.803 161.96
L186.803 161.96
L184.835 161.96
L184.835 161.96
L182.868 161.96
L182.868 161.96
L180.9 161.96
L180.9 161.96
L178.933 161.96
L178.933 161.96
L176.965 161.96
L176.965 161.96
L174.998 161.96
L174.998 161.96
L173.031 161.96
L173.031 161.96
L171.063 161.96
L171.063 161.96
L169.096 161.96
L169.096 161.96
L167.129 161.96
L167.129 161.96
L165.161 161.96
L165.161 161.96
L163.194 161.96
L163.194 161.96
L161.226 161.96
L161.226 161.96
L159.259 161.96
L159.259 161.96
L157.292 161.96
L157.292 161.96
L155.324 161.96
L155.324 161.96
L153.357 161.96
L153.357 161.96
L151.389 161.96
L151.389 161.96
L149.422 161.96
L149.422 161.96
L147.454 161.96
L147.454 161.96
L145.487 161.96
L145.487 161.96
L143.52 161.96
L143.52 161.96
z
" style="fill:#aaaaaa;opacity:0.5;stroke:#000000;stroke-linejoin:miter;"/>
   </g>
   <g id="patch_20">
    <path d="
M137.618 161.96
L235.987 161.96" style="fill:none;stroke:#000000;stroke-linecap:square;stroke-linejoin:miter;stroke-width:0.5;"/>
   </g>
   <g id="patch_21">
    <path d="
M137.618 161.96
L137.618 102.4" style="fill:none;stroke:#000000;stroke-linecap:square;stroke-linejoin:miter;stroke-width:0.5;"/>
   </g>
   <g id="matplotlib.axis_7">
    <g id="xtick_19">
     <g id="line2d_37">
      <g>
       <use style="stroke:#000000;stroke-width:0.5;" x="137.6175" xlink:href="#mc7db9fdffb" y="161.96"/>
      </g>
     </g>
     <g id="text_22">
      <!-- 0 -->
      <g transform="translate(135.983984375 170.97046875)scale(0.07 -0.07)">
       <use xlink:href="#ArialMT-30"/>
      </g>
     </g>
    </g>
    <g id="xtick_20">
     <g id="line2d_38">
      <g>
       <use style="stroke:#000000;stroke-width:0.5;" x="157.2915" xlink:href="#mc7db9fdffb" y="161.96"/>
      </g>
     </g>
     <g id="text_23">
      <!-- 50 -->
      <g transform="translate(153.71165625 170.97046875)scale(0.07 -0.07)">
       <use xlink:href="#ArialMT-35"/>
       <use x="55.615234375" xlink:href="#ArialMT-30"/>
      </g>
     </g>
    </g>
    <g id="xtick_21">
     <g id="line2d_39">
      <g>
       <use style="stroke:#000000;stroke-width:0.5;" x="176.9655" xlink:href="#mc7db9fdffb" y="161.96"/>
      </g>
     </g>
     <g id="text_24">
      <!-- 100 -->
      <g transform="translate(171.67503125 170.97046875)scale(0.07 -0.07)">
       <use xlink:href="#ArialMT-31"/>
       <use x="55.615234375" xlink:href="#ArialMT-30"/>
       <use x="111.23046875" xlink:href="#ArialMT-30"/>
      </g>
     </g>
    </g>
    <g id="xtick_22">
     <g id="line2d_40">
      <g>
       <use style="stroke:#000000;stroke-width:0.5;" x="196.6395" xlink:href="#mc7db9fdffb" y="161.96"/>
      </g>
     </g>
     <g id="text_25">
      <!-- 150 -->
      <g transform="translate(191.34903125 170.97046875)scale(0.07 -0.07)">
       <use xlink:href="#ArialMT-31"/>
       <use x="55.615234375" xlink:href="#ArialMT-35"/>
       <use x="111.23046875" xlink:href="#ArialMT-30"/>
      </g>
     </g>
    </g>
    <g id="xtick_23">
     <g id="line2d_41">
      <g>
       <use style="stroke:#000000;stroke-width:0.5;" x="216.3135" xlink:href="#mc7db9fdffb" y="161.96"/>
      </g>
     </g>
     <g id="text_26">
      <!-- 200 -->
      <g transform="translate(210.744671875 170.97046875)scale(0.07 -0.07)">
       <use xlink:href="#ArialMT-32"/>
       <use x="55.615234375" xlink:href="#ArialMT-30"/>
       <use x="111.23046875" xlink:href="#ArialMT-30"/>
      </g>
     </g>
    </g>
    <g id="xtick_24">
     <g id="line2d_42">
      <g>
       <use style="stroke:#000000;stroke-width:0.5;" x="235.9875" xlink:href="#mc7db9fdffb" y="161.96"/>
      </g>
     </g>
     <g id="text_27">
      <!-- 250 -->
      <g transform="translate(230.418671875 170.97046875)scale(0.07 -0.07)">
       <use xlink:href="#ArialMT-32"/>
       <use x="55.615234375" xlink:href="#ArialMT-35"/>
       <use x="111.23046875" xlink:href="#ArialMT-30"/>
      </g>
     </g>
    </g>
   </g>
   <g id="matplotlib.axis_8">
    <g id="ytick_19">
     <g id="line2d_43">
      <g>
       <use style="stroke:#000000;stroke-width:0.5;" x="137.6175" xlink:href="#md7965d1ba0" y="161.96"/>
      </g>
     </g>
    </g>
    <g id="ytick_20">
     <g id="line2d_44">
      <g>
       <use style="stroke:#000000;stroke-width:0.5;" x="137.6175" xlink:href="#md7965d1ba0" y="150.048"/>
      </g>
     </g>
    </g>
    <g id="ytick_21">
     <g id="line2d_45">
      <g>
       <use style="stroke:#000000;stroke-width:0.5;" x="137.6175" xlink:href="#md7965d1ba0" y="138.136"/>
      </g>
     </g>
    </g>
    <g id="ytick_22">
     <g id="line2d_46">
      <g>
       <use style="stroke:#000000;stroke-width:0.5;" x="137.6175" xlink:href="#md7965d1ba0" y="126.224"/>
      </g>
     </g>
    </g>
    <g id="ytick_23">
     <g id="line2d_47">
      <g>
       <use style="stroke:#000000;stroke-width:0.5;" x="137.6175" xlink:href="#md7965d1ba0" y="114.312"/>
      </g>
     </g>
    </g>
    <g id="ytick_24">
     <g id="line2d_48">
      <g>
       <use style="stroke:#000000;stroke-width:0.5;" x="137.6175" xlink:href="#md7965d1ba0" y="102.4"/>
      </g>
     </g>
    </g>
   </g>
   <g id="text_28">
    <!-- c = 80, $\ell_p$ = 90 -->
    <defs>
     <path d="
M5.46875 16.5469
L13.9219 17.3281
Q14.9844 11.375 18.0156 8.6875
Q21.0469 6 25.7812 6
Q29.8281 6 32.875 7.85938
Q35.9375 9.71875 37.8906 12.8125
Q39.8438 15.9219 41.1562 21.1875
Q42.4844 26.4688 42.4844 31.9375
Q42.4844 32.5156 42.4375 33.6875
Q39.7969 29.5 35.2344 26.875
Q30.6719 24.2656 25.3438 24.2656
Q16.4531 24.2656 10.2969 30.7031
Q4.15625 37.1562 4.15625 47.7031
Q4.15625 58.5938 10.5781 65.2344
Q17 71.875 26.6562 71.875
Q33.6406 71.875 39.4219 68.1094
Q45.2188 64.3594 48.2188 57.3906
Q51.2188 50.4375 51.2188 37.25
Q51.2188 23.5312 48.2344 15.4062
Q45.2656 7.28125 39.375 3.03125
Q33.5 -1.21875 25.5938 -1.21875
Q17.1875 -1.21875 11.8594 3.4375
Q6.54688 8.10938 5.46875 16.5469
M41.4531 48.1406
Q41.4531 55.7188 37.4219 60.1562
Q33.4062 64.5938 27.7344 64.5938
Q21.875 64.5938 17.5312 59.8125
Q13.1875 55.0312 13.1875 47.4062
Q13.1875 40.5781 17.3125 36.2969
Q21.4375 32.0312 27.4844 32.0312
Q33.5938 32.0312 37.5156 36.2969
Q41.4531 40.5781 41.4531 48.1406" id="ArialMT-39"/>
    </defs>
    <g transform="translate(145.4871 109.5472)scale(0.07 -0.07)">
     <use transform="translate(0.0 0.125)" xlink:href="#ArialMT-63"/>
     <use transform="translate(50.0 0.125)" xlink:href="#ArialMT-20"/>
     <use transform="translate(77.783203125 0.125)" xlink:href="#ArialMT-3d"/>
     <use transform="translate(136.181640625 0.125)" xlink:href="#ArialMT-20"/>
     <use transform="translate(163.96484375 0.125)" xlink:href="#ArialMT-38"/>
     <use transform="translate(219.580078125 0.125)" xlink:href="#ArialMT-30"/>
     <use transform="translate(275.1953125 0.125)" xlink:href="#ArialMT-2c"/>
     <use transform="translate(302.978515625 0.125)" xlink:href="#ArialMT-20"/>
     <use transform="translate(330.76171875 0.125)" xlink:href="#Cmmi10-60"/>
     <use transform="translate(372.36328125 -25.384375000000006)scale(0.7)" xlink:href="#Cmmi10-70"/>
     <use transform="translate(422.65625 0.125)" xlink:href="#ArialMT-20"/>
     <use transform="translate(450.439453125 0.125)" xlink:href="#ArialMT-3d"/>
     <use transform="translate(508.837890625 0.125)" xlink:href="#ArialMT-20"/>
     <use transform="translate(536.62109375 0.125)" xlink:href="#ArialMT-39"/>
     <use transform="translate(592.236328125 0.125)" xlink:href="#ArialMT-30"/>
    </g>
   </g>
   <g id="legend_1">
    <g id="patch_22">
     <path d="
M101.231 14.9105
L115.231 14.9105
L115.231 10.0105
L101.231 10.0105
z
" style="fill:#333333;stroke:#000000;stroke-linejoin:miter;"/>
    </g>
    <g id="text_29">
     <!-- Experiment -->
     <defs>
      <path d="
M42.0938 16.7031
L51.1719 15.5781
Q49.0312 7.625 43.2188 3.21875
Q37.4062 -1.17188 28.375 -1.17188
Q17 -1.17188 10.3281 5.82812
Q3.65625 12.8438 3.65625 25.4844
Q3.65625 38.5781 10.3906 45.7969
Q17.1406 53.0312 27.875 53.0312
Q38.2812 53.0312 44.875 45.9531
Q51.4688 38.875 51.4688 26.0312
Q51.4688 25.25 51.4219 23.6875
L12.75 23.6875
Q13.2344 15.1406 17.5781 10.5938
Q21.9219 6.0625 28.4219 6.0625
Q33.25 6.0625 36.6719 8.59375
Q40.0938 11.1406 42.0938 16.7031
M13.2344 30.9062
L42.1875 30.9062
Q41.6094 37.4531 38.875 40.7188
Q34.6719 45.7969 27.9844 45.7969
Q21.9219 45.7969 17.7969 41.75
Q13.6719 37.7031 13.2344 30.9062" id="ArialMT-65"/>
      <path d="
M6.64062 61.4688
L6.64062 71.5781
L15.4375 71.5781
L15.4375 61.4688
z

M6.64062 0
L6.64062 51.8594
L15.4375 51.8594
L15.4375 0
z
" id="ArialMT-69"/>
      <path d="
M6.59375 -19.875
L6.59375 51.8594
L14.5938 51.8594
L14.5938 45.125
Q17.4375 49.0781 21 51.0469
Q24.5625 53.0312 29.6406 53.0312
Q36.2812 53.0312 41.3594 49.6094
Q46.4375 46.1875 49.0156 39.9531
Q51.6094 33.7344 51.6094 26.3125
Q51.6094 18.3594 48.75 11.9844
Q45.9062 5.60938 40.4531 2.21875
Q35.0156 -1.17188 29 -1.17188
Q24.6094 -1.17188 21.1094 0.6875
Q17.625 2.54688 15.375 5.375
L15.375 -19.875
z

M14.5469 25.6406
Q14.5469 15.625 18.5938 10.8438
Q22.6562 6.0625 28.4219 6.0625
Q34.2812 6.0625 38.4531 11.0156
Q42.625 15.9688 42.625 26.375
Q42.625 36.2812 38.5469 41.2031
Q34.4688 46.1406 28.8125 46.1406
Q23.1875 46.1406 18.8594 40.8906
Q14.5469 35.6406 14.5469 25.6406" id="ArialMT-70"/>
      <path d="
M6.5 0
L6.5 51.8594
L14.4062 51.8594
L14.4062 44
Q17.4375 49.5156 20 51.2656
Q22.5625 53.0312 25.6406 53.0312
Q30.0781 53.0312 34.6719 50.2031
L31.6406 42.0469
Q28.4219 43.9531 25.2031 43.9531
Q22.3125 43.9531 20.0156 42.2188
Q17.7188 40.4844 16.75 37.4062
Q15.2812 32.7188 15.2812 27.1562
L15.2812 0
z
" id="ArialMT-72"/>
      <path d="
M25.7812 7.85938
L27.0469 0.09375
Q23.3438 -0.6875 20.4062 -0.6875
Q15.625 -0.6875 12.9844 0.828125
Q10.3594 2.34375 9.28125 4.8125
Q8.20312 7.28125 8.20312 15.1875
L8.20312 45.0156
L1.76562 45.0156
L1.76562 51.8594
L8.20312 51.8594
L8.20312 64.7031
L16.9375 69.9688
L16.9375 51.8594
L25.7812 51.8594
L25.7812 45.0156
L16.9375 45.0156
L16.9375 14.7031
Q16.9375 10.9375 17.4062 9.85938
Q17.875 8.79688 18.9219 8.15625
Q19.9688 7.51562 21.9219 7.51562
Q23.3906 7.51562 25.7812 7.85938" id="ArialMT-74"/>
      <path d="
M7.90625 0
L7.90625 71.5781
L59.6719 71.5781
L59.6719 63.1406
L17.3906 63.1406
L17.3906 41.2188
L56.9844 41.2188
L56.9844 32.8125
L17.3906 32.8125
L17.3906 8.45312
L61.3281 8.45312
L61.3281 0
z
" id="ArialMT-45"/>
      <path d="
M6.59375 0
L6.59375 51.8594
L14.5 51.8594
L14.5 44.4844
Q20.2188 53.0312 31 53.0312
Q35.6875 53.0312 39.625 51.3438
Q43.5625 49.6562 45.5156 46.9219
Q47.4688 44.1875 48.25 40.4375
Q48.7344 37.9844 48.7344 31.8906
L48.7344 0
L39.9375 0
L39.9375 31.5469
Q39.9375 36.9219 38.9062 39.5781
Q37.8906 42.2344 35.2812 43.8125
Q32.6719 45.4062 29.1562 45.4062
Q23.5312 45.4062 19.4531 41.8438
Q15.375 38.2812 15.375 28.3281
L15.375 0
z
" id="ArialMT-6e"/>
      <path d="
M6.59375 0
L6.59375 51.8594
L14.4531 51.8594
L14.4531 44.5781
Q16.8906 48.3906 20.9375 50.7031
Q25 53.0312 30.1719 53.0312
Q35.9375 53.0312 39.625 50.6406
Q43.3125 48.25 44.8281 43.9531
Q50.9844 53.0312 60.8438 53.0312
Q68.5625 53.0312 72.7031 48.75
Q76.8594 44.4844 76.8594 35.5938
L76.8594 0
L68.1094 0
L68.1094 32.6719
Q68.1094 37.9375 67.25 40.25
Q66.4062 42.5781 64.1562 43.9844
Q61.9219 45.4062 58.8906 45.4062
Q53.4219 45.4062 49.7969 41.7656
Q46.1875 38.1406 46.1875 30.125
L46.1875 0
L37.4062 0
L37.4062 33.6875
Q37.4062 39.5469 35.25 42.4688
Q33.1094 45.4062 28.2188 45.4062
Q24.5156 45.4062 21.3594 43.4531
Q18.2188 41.5 16.7969 37.7344
Q15.375 33.9844 15.375 26.9062
L15.375 0
z
" id="ArialMT-6d"/>
      <path d="
M0.734375 0
L19.6719 26.9531
L2.15625 51.8594
L13.1406 51.8594
L21.0938 39.7031
Q23.3438 36.2344 24.7031 33.8906
Q26.8594 37.1094 28.6562 39.5938
L37.4062 51.8594
L47.9062 51.8594
L29.9844 27.4375
L49.2656 0
L38.4844 0
L27.8281 16.1094
L25 20.4531
L11.375 0
z
" id="ArialMT-78"/>
     </defs>
     <g transform="translate(120.8314375 14.91046875)scale(0.07 -0.07)">
      <use xlink:href="#ArialMT-45"/>
      <use x="66.69921875" xlink:href="#ArialMT-78"/>
      <use x="116.69921875" xlink:href="#ArialMT-70"/>
      <use x="172.314453125" xlink:href="#ArialMT-65"/>
      <use x="227.9296875" xlink:href="#ArialMT-72"/>
      <use x="261.23046875" xlink:href="#ArialMT-69"/>
      <use x="283.447265625" xlink:href="#ArialMT-6d"/>
      <use x="366.748046875" xlink:href="#ArialMT-65"/>
      <use x="422.36328125" xlink:href="#ArialMT-6e"/>
      <use x="477.978515625" xlink:href="#ArialMT-74"/>
     </g>
    </g>
    <g id="patch_23">
     <path d="
M101.231 24.8122
L115.231 24.8122
L115.231 19.9122
L101.231 19.9122
z
" style="fill:#aaaaaa;opacity:0.5;stroke:#000000;stroke-linejoin:miter;"/>
    </g>
    <g id="text_30">
     <!-- Simulation -->
     <defs>
      <path d="
M40.4375 6.39062
Q35.5469 2.25 31.0312 0.53125
Q26.5156 -1.17188 21.3438 -1.17188
Q12.7969 -1.17188 8.20312 3
Q3.60938 7.17188 3.60938 13.6719
Q3.60938 17.4844 5.34375 20.625
Q7.07812 23.7812 9.89062 25.6875
Q12.7031 27.5938 16.2188 28.5625
Q18.7969 29.25 24.0312 29.8906
Q34.6719 31.1562 39.7031 32.9062
Q39.75 34.7188 39.75 35.2031
Q39.75 40.5781 37.25 42.7812
Q33.8906 45.75 27.25 45.75
Q21.0469 45.75 18.0938 43.5781
Q15.1406 41.4062 13.7188 35.8906
L5.125 37.0625
Q6.29688 42.5781 8.98438 45.9688
Q11.6719 49.3594 16.75 51.1875
Q21.8281 53.0312 28.5156 53.0312
Q35.1562 53.0312 39.2969 51.4688
Q43.4531 49.9062 45.4062 47.5312
Q47.3594 45.1719 48.1406 41.5469
Q48.5781 39.3125 48.5781 33.4531
L48.5781 21.7344
Q48.5781 9.46875 49.1406 6.21875
Q49.7031 2.98438 51.375 0
L42.1875 0
Q40.8281 2.73438 40.4375 6.39062
M39.7031 26.0312
Q34.9062 24.0781 25.3438 22.7031
Q19.9219 21.9219 17.6719 20.9375
Q15.4375 19.9688 14.2031 18.0938
Q12.9844 16.2188 12.9844 13.9219
Q12.9844 10.4062 15.6406 8.0625
Q18.3125 5.71875 23.4375 5.71875
Q28.5156 5.71875 32.4688 7.9375
Q36.4219 10.1562 38.2812 14.0156
Q39.7031 17 39.7031 22.7969
z
" id="ArialMT-61"/>
      <path d="
M3.32812 25.9219
Q3.32812 40.3281 11.3281 47.2656
Q18.0156 53.0312 27.6406 53.0312
Q38.3281 53.0312 45.1094 46.0156
Q51.9062 39.0156 51.9062 26.6562
Q51.9062 16.6562 48.9062 10.9062
Q45.9062 5.17188 40.1562 2
Q34.4219 -1.17188 27.6406 -1.17188
Q16.75 -1.17188 10.0312 5.8125
Q3.32812 12.7969 3.32812 25.9219
M12.3594 25.9219
Q12.3594 15.9688 16.7031 11.0156
Q21.0469 6.0625 27.6406 6.0625
Q34.1875 6.0625 38.5312 11.0312
Q42.875 16.0156 42.875 26.2188
Q42.875 35.8438 38.5 40.7969
Q34.125 45.75 27.6406 45.75
Q21.0469 45.75 16.7031 40.8125
Q12.3594 35.8906 12.3594 25.9219" id="ArialMT-6f"/>
      <path d="
M4.5 23
L13.4219 23.7812
Q14.0625 18.4062 16.375 14.9688
Q18.7031 11.5312 23.5781 9.40625
Q28.4688 7.28125 34.5781 7.28125
Q39.9844 7.28125 44.1406 8.89062
Q48.2969 10.5 50.3125 13.2969
Q52.3438 16.1094 52.3438 19.4375
Q52.3438 22.7969 50.3906 25.3125
Q48.4375 27.8281 43.9531 29.5469
Q41.0625 30.6719 31.2031 33.0312
Q21.3438 35.4062 17.3906 37.5
Q12.25 40.1875 9.73438 44.1562
Q7.23438 48.1406 7.23438 53.0781
Q7.23438 58.5 10.2969 63.2031
Q13.375 67.9219 19.2812 70.3594
Q25.2031 72.7969 32.4219 72.7969
Q40.375 72.7969 46.4531 70.2344
Q52.5469 67.6719 55.8125 62.6875
Q59.0781 57.7188 59.3281 51.4219
L50.25 50.7344
Q49.5156 57.5156 45.2812 60.9844
Q41.0625 64.4531 32.8125 64.4531
Q24.2188 64.4531 20.2812 61.2969
Q16.3594 58.1562 16.3594 53.7188
Q16.3594 49.8594 19.1406 47.3594
Q21.875 44.875 33.4219 42.2656
Q44.9688 39.6562 49.2656 37.7031
Q55.5156 34.8125 58.4844 30.3906
Q61.4688 25.9844 61.4688 20.2188
Q61.4688 14.5 58.2031 9.4375
Q54.9375 4.39062 48.7969 1.57812
Q42.6719 -1.21875 35.0156 -1.21875
Q25.2969 -1.21875 18.7188 1.60938
Q12.1562 4.4375 8.42188 10.125
Q4.6875 15.8281 4.5 23" id="ArialMT-53"/>
      <path d="
M6.39062 0
L6.39062 71.5781
L15.1875 71.5781
L15.1875 0
z
" id="ArialMT-6c"/>
      <path d="
M40.5781 0
L40.5781 7.625
Q34.5156 -1.17188 24.125 -1.17188
Q19.5312 -1.17188 15.5469 0.578125
Q11.5781 2.34375 9.64062 5
Q7.71875 7.67188 6.9375 11.5312
Q6.39062 14.1094 6.39062 19.7344
L6.39062 51.8594
L15.1875 51.8594
L15.1875 23.0938
Q15.1875 16.2188 15.7188 13.8125
Q16.5469 10.3594 19.2344 8.375
Q21.9219 6.39062 25.875 6.39062
Q29.8281 6.39062 33.2969 8.42188
Q36.7656 10.4531 38.2031 13.9375
Q39.6562 17.4375 39.6562 24.0781
L39.6562 51.8594
L48.4375 51.8594
L48.4375 0
z
" id="ArialMT-75"/>
     </defs>
     <g transform="translate(120.8314375 24.8121875)scale(0.07 -0.07)">
      <use xlink:href="#ArialMT-53"/>
      <use x="66.69921875" xlink:href="#ArialMT-69"/>
      <use x="88.916015625" xlink:href="#ArialMT-6d"/>
      <use x="172.216796875" xlink:href="#ArialMT-75"/>
      <use x="227.83203125" xlink:href="#ArialMT-6c"/>
      <use x="250.048828125" xlink:href="#ArialMT-61"/>
      <use x="305.6640625" xlink:href="#ArialMT-74"/>
      <use x="333.447265625" xlink:href="#ArialMT-69"/>
      <use x="355.6640625" xlink:href="#ArialMT-6f"/>
      <use x="411.279296875" xlink:href="#ArialMT-6e"/>
     </g>
    </g>
   </g>
  </g>
  <g id="text_31">
   <!-- Radius of gyration, nm -->
   <defs>
    <path d="
M4.98438 -4.29688
L13.5312 -5.5625
Q14.0625 -9.51562 16.5 -11.3281
Q19.7812 -13.7656 25.4375 -13.7656
Q31.5469 -13.7656 34.8594 -11.3281
Q38.1875 -8.89062 39.3594 -4.5
Q40.0469 -1.8125 39.9844 6.78125
Q34.2344 0 25.6406 0
Q14.9375 0 9.07812 7.71875
Q3.21875 15.4375 3.21875 26.2188
Q3.21875 33.6406 5.90625 39.9062
Q8.59375 46.1875 13.6875 49.6094
Q18.7969 53.0312 25.6875 53.0312
Q34.8594 53.0312 40.8281 45.6094
L40.8281 51.8594
L48.9219 51.8594
L48.9219 7.03125
Q48.9219 -5.07812 46.4531 -10.125
Q44 -15.1875 38.6406 -18.1094
Q33.2969 -21.0469 25.4844 -21.0469
Q16.2188 -21.0469 10.5 -16.875
Q4.78125 -12.7031 4.98438 -4.29688
M12.25 26.8594
Q12.25 16.6562 16.2969 11.9688
Q20.3594 7.28125 26.4688 7.28125
Q32.5156 7.28125 36.6094 11.9375
Q40.7188 16.6094 40.7188 26.5625
Q40.7188 36.0781 36.5 40.9062
Q32.2812 45.75 26.3125 45.75
Q20.4531 45.75 16.3438 40.9844
Q12.25 36.2344 12.25 26.8594" id="ArialMT-67"/>
    <path d="
M40.2344 0
L40.2344 6.54688
Q35.2969 -1.17188 25.7344 -1.17188
Q19.5312 -1.17188 14.3281 2.25
Q9.125 5.67188 6.26562 11.7969
Q3.42188 17.9219 3.42188 25.875
Q3.42188 33.6406 6 39.9688
Q8.59375 46.2969 13.7656 49.6562
Q18.9531 53.0312 25.3438 53.0312
Q30.0312 53.0312 33.6875 51.0469
Q37.3594 49.0781 39.6562 45.9062
L39.6562 71.5781
L48.3906 71.5781
L48.3906 0
z

M12.4531 25.875
Q12.4531 15.9219 16.6406 10.9844
Q20.8438 6.0625 26.5625 6.0625
Q32.3281 6.0625 36.3438 10.7656
Q40.375 15.4844 40.375 25.1406
Q40.375 35.7969 36.2656 40.7656
Q32.1719 45.75 26.1719 45.75
Q20.3125 45.75 16.375 40.9688
Q12.4531 36.1875 12.4531 25.875" id="ArialMT-64"/>
    <path d="
M6.20312 -19.9688
L5.21875 -11.7188
Q8.10938 -12.5 10.25 -12.5
Q13.1875 -12.5 14.9375 -11.5156
Q16.7031 -10.5469 17.8281 -8.79688
Q18.6562 -7.46875 20.5156 -2.25
Q20.75 -1.51562 21.2969 -0.09375
L1.60938 51.8594
L11.0781 51.8594
L21.875 21.8281
Q23.9688 16.1094 25.6406 9.8125
Q27.1562 15.875 29.25 21.625
L40.3281 51.8594
L49.125 51.8594
L29.3906 -0.875
Q26.2188 -9.42188 24.4688 -12.6406
Q22.125 -17 19.0938 -19.0156
Q16.0625 -21.0469 11.8594 -21.0469
Q9.32812 -21.0469 6.20312 -19.9688" id="ArialMT-79"/>
    <path d="
M3.07812 15.4844
L11.7656 16.8438
Q12.5 11.625 15.8438 8.84375
Q19.1875 6.0625 25.2031 6.0625
Q31.25 6.0625 34.1719 8.51562
Q37.1094 10.9844 37.1094 14.3125
Q37.1094 17.2812 34.5156 19
Q32.7188 20.1719 25.5312 21.9688
Q15.875 24.4219 12.1406 26.2031
Q8.40625 27.9844 6.46875 31.125
Q4.54688 34.2812 4.54688 38.0938
Q4.54688 41.5469 6.125 44.5
Q7.71875 47.4688 10.4531 49.4219
Q12.5 50.9219 16.0312 51.9688
Q19.5781 53.0312 23.6406 53.0312
Q29.7344 53.0312 34.3438 51.2656
Q38.9688 49.5156 41.1562 46.5
Q43.3594 43.5 44.1875 38.4844
L35.5938 37.3125
Q35.0156 41.3125 32.2031 43.5469
Q29.3906 45.7969 24.2656 45.7969
Q18.2188 45.7969 15.625 43.7969
Q13.0312 41.7969 13.0312 39.1094
Q13.0312 37.4062 14.1094 36.0312
Q15.1875 34.625 17.4844 33.6875
Q18.7969 33.2031 25.25 31.4531
Q34.5781 28.9531 38.25 27.3594
Q41.9375 25.7812 44.0312 22.75
Q46.1406 19.7344 46.1406 15.2344
Q46.1406 10.8438 43.5781 6.95312
Q41.0156 3.07812 36.1719 0.953125
Q31.3438 -1.17188 25.25 -1.17188
Q15.1406 -1.17188 9.84375 3.03125
Q4.54688 7.23438 3.07812 15.4844" id="ArialMT-73"/>
    <path d="
M8.6875 0
L8.6875 45.0156
L0.921875 45.0156
L0.921875 51.8594
L8.6875 51.8594
L8.6875 57.375
Q8.6875 62.5938 9.625 65.1406
Q10.8906 68.5625 14.0781 70.6719
Q17.2812 72.7969 23.0469 72.7969
Q26.7656 72.7969 31.25 71.9219
L29.9375 64.2656
Q27.2031 64.75 24.75 64.75
Q20.75 64.75 19.0938 63.0312
Q17.4375 61.3281 17.4375 56.6406
L17.4375 51.8594
L27.5469 51.8594
L27.5469 45.0156
L17.4375 45.0156
L17.4375 0
z
" id="ArialMT-66"/>
    <path d="
M7.85938 0
L7.85938 71.5781
L39.5938 71.5781
Q49.1719 71.5781 54.1406 69.6406
Q59.125 67.7188 62.1094 62.8281
Q65.0938 57.9531 65.0938 52.0469
Q65.0938 44.4375 60.1562 39.2031
Q55.2188 33.9844 44.9219 32.5625
Q48.6875 30.7656 50.6406 29
Q54.7812 25.2031 58.5 19.4844
L70.9531 0
L59.0312 0
L49.5625 14.8906
Q45.4062 21.3438 42.7188 24.75
Q40.0469 28.1719 37.9219 29.5312
Q35.7969 30.9062 33.5938 31.4531
Q31.9844 31.7812 28.3281 31.7812
L17.3281 31.7812
L17.3281 0
z

M17.3281 39.9844
L37.7031 39.9844
Q44.1875 39.9844 47.8438 41.3281
Q51.5156 42.6719 53.4219 45.625
Q55.3281 48.5781 55.3281 52.0469
Q55.3281 57.125 51.6406 60.3906
Q47.9531 63.6719 39.9844 63.6719
L17.3281 63.6719
z
" id="ArialMT-52"/>
   </defs>
   <g transform="translate(95.998546875 178.39125)scale(0.07 -0.07)">
    <use xlink:href="#ArialMT-52"/>
    <use x="72.216796875" xlink:href="#ArialMT-61"/>
    <use x="127.83203125" xlink:href="#ArialMT-64"/>
    <use x="183.447265625" xlink:href="#ArialMT-69"/>
    <use x="205.6640625" xlink:href="#ArialMT-75"/>
    <use x="261.279296875" xlink:href="#ArialMT-73"/>
    <use x="311.279296875" xlink:href="#ArialMT-20"/>
    <use x="339.0625" xlink:href="#ArialMT-6f"/>
    <use x="394.677734375" xlink:href="#ArialMT-66"/>
    <use x="422.4609375" xlink:href="#ArialMT-20"/>
    <use x="450.244140625" xlink:href="#ArialMT-67"/>
    <use x="505.859375" xlink:href="#ArialMT-79"/>
    <use x="555.859375" xlink:href="#ArialMT-72"/>
    <use x="589.16015625" xlink:href="#ArialMT-61"/>
    <use x="644.775390625" xlink:href="#ArialMT-74"/>
    <use x="672.55859375" xlink:href="#ArialMT-69"/>
    <use x="694.775390625" xlink:href="#ArialMT-6f"/>
    <use x="750.390625" xlink:href="#ArialMT-6e"/>
    <use x="806.005859375" xlink:href="#ArialMT-2c"/>
    <use x="833.7890625" xlink:href="#ArialMT-20"/>
    <use x="861.572265625" xlink:href="#ArialMT-6e"/>
    <use x="917.1875" xlink:href="#ArialMT-6d"/>
   </g>
  </g>
  <g id="text_32">
   <!-- Normalized frequency -->
   <defs>
    <path d="
M1.95312 0
L1.95312 7.125
L34.9688 45.0156
Q29.3438 44.7344 25.0469 44.7344
L3.90625 44.7344
L3.90625 51.8594
L46.2969 51.8594
L46.2969 46.0469
L18.2188 13.1406
L12.7969 7.125
Q18.7031 7.5625 23.875 7.5625
L47.8594 7.5625
L47.8594 0
z
" id="ArialMT-7a"/>
    <path d="
M39.6562 -19.875
L39.6562 5.51562
Q37.5938 2.64062 33.9062 0.734375
Q30.2188 -1.17188 26.0781 -1.17188
Q16.8438 -1.17188 10.1719 6.20312
Q3.51562 13.5781 3.51562 26.4219
Q3.51562 34.2344 6.21875 40.4219
Q8.9375 46.625 14.0781 49.8281
Q19.2344 53.0312 25.3906 53.0312
Q35.0156 53.0312 40.5312 44.9219
L40.5312 51.8594
L48.4375 51.8594
L48.4375 -19.875
z

M12.5469 26.0781
Q12.5469 16.0625 16.75 11.0625
Q20.9531 6.0625 26.8125 6.0625
Q32.4219 6.0625 36.4688 10.8125
Q40.5312 15.5781 40.5312 25.2969
Q40.5312 35.6406 36.25 40.8594
Q31.9844 46.0938 26.2188 46.0938
Q20.5156 46.0938 16.5312 41.2344
Q12.5469 36.375 12.5469 26.0781" id="ArialMT-71"/>
    <path d="
M7.625 0
L7.625 71.5781
L17.3281 71.5781
L54.9375 15.375
L54.9375 71.5781
L64.0156 71.5781
L64.0156 0
L54.2969 0
L16.7031 56.25
L16.7031 0
z
" id="ArialMT-4e"/>
   </defs>
   <g transform="translate(5.54805 124.01015625)rotate(-90.0)scale(0.07 -0.07)">
    <use xlink:href="#ArialMT-4e"/>
    <use x="72.216796875" xlink:href="#ArialMT-6f"/>
    <use x="127.83203125" xlink:href="#ArialMT-72"/>
    <use x="161.1328125" xlink:href="#ArialMT-6d"/>
    <use x="244.43359375" xlink:href="#ArialMT-61"/>
    <use x="300.048828125" xlink:href="#ArialMT-6c"/>
    <use x="322.265625" xlink:href="#ArialMT-69"/>
    <use x="344.482421875" xlink:href="#ArialMT-7a"/>
    <use x="394.482421875" xlink:href="#ArialMT-65"/>
    <use x="450.09765625" xlink:href="#ArialMT-64"/>
    <use x="505.712890625" xlink:href="#ArialMT-20"/>
    <use x="533.49609375" xlink:href="#ArialMT-66"/>
    <use x="561.279296875" xlink:href="#ArialMT-72"/>
    <use x="594.580078125" xlink:href="#ArialMT-65"/>
    <use x="650.1953125" xlink:href="#ArialMT-71"/>
    <use x="705.810546875" xlink:href="#ArialMT-75"/>
    <use x="761.42578125" xlink:href="#ArialMT-65"/>
    <use x="817.041015625" xlink:href="#ArialMT-6e"/>
    <use x="872.65625" xlink:href="#ArialMT-63"/>
    <use x="922.65625" xlink:href="#ArialMT-79"/>
   </g>
  </g>
 </g>
 <defs>
  <clipPath id="p9df077d6cd">
   <rect height="59.56" width="98.37" x="28.54" y="102.4"/>
  </clipPath>
  <clipPath id="p1cb38098c2">
   <rect height="59.56" width="98.37" x="137.6175" y="28.8"/>
  </clipPath>
  <clipPath id="p14e54db3e2">
   <rect height="59.56" width="98.37" x="28.54" y="28.8"/>
  </clipPath>
  <clipPath id="pba72682987">
   <rect height="59.56" width="98.37" x="137.6175" y="102.4"/>
  </clipPath>
 </defs>
</svg>
